<svg width="516" height="178" viewBox="0 0 516 178" fill="none" xmlns="http://www.w3.org/2000/svg">
<path d="M417 21H392V87H417V21Z" fill="#D20000"/>
<path d="M511.306 0L501.564 11.4061L506.127 15.3028L515.869 3.89669L511.306 0Z" fill="#D20000"/>
<path d="M497.306 0L487.564 11.4061L492.127 15.3028L501.868 3.89669L497.306 0Z" fill="#D20000"/>
<path d="M483.306 0L473.564 11.4061L478.127 15.3028L487.868 3.89669L483.306 0Z" fill="#D20000"/>
<path d="M488 36.527L488 94C488 106.703 477.702 117 465 117H415C409.919 117 405.223 114.772 401.417 111H465C474.389 111 482 103.389 482 94L482 34.3134L498.967 14.4478L503.529 18.3444L488 36.527Z" fill="#D20000"/>
<path d="M478 31.8436V92C478 100.284 471.284 107 463 107H398.103C396.864 105.187 395.782 103.173 394.888 101H463C467.97 101 472 96.9706 472 92L472 29.63L484.967 14.4478L489.529 18.3444L478 31.8436Z" fill="#D20000"/>
<path d="M468 27.1602L468 90C468 93.866 464.866 97 461 97H393.508C392.966 95.0838 392.561 93.0766 392.308 91H461C461.552 91 462 90.5523 462 90L462 24.9466L470.967 14.4478L475.529 18.3444L468 27.1602Z" fill="#D20000"/>
<path d="M139.024 111H114.024L114.024 117H139.024V111Z" fill="#D20000"/>
<path d="M147.024 111H173.024V117H147.024V111Z" fill="#D20000"/>
<path d="M206.024 111V117H232.024V111H206.024Z" fill="#D20000"/>
<path d="M265.401 111V117H346.896C353.04 117 358.544 116.232 363.152 114.696C366.183 113.686 368.882 112.454 371.249 111H265.401Z" fill="#D20000"/>
<path d="M139.024 101H114.024V107H139.024V101Z" fill="#D20000"/>
<path d="M147.024 107V101H173.024V107H147.024Z" fill="#D20000"/>
<path d="M376.378 107H265.024V101H380.738C379.602 103.236 378.172 105.212 376.378 107Z" fill="#D20000"/>
<path d="M206.024 101V107H232.024V101H206.024Z" fill="#D20000"/>
<path d="M139.024 91H114.024V97H139.024V91Z" fill="#D20000"/>
<path d="M147.024 97V91H173.024V97H147.024Z" fill="#D20000"/>
<path d="M382.428 97C383.09 95.0861 383.584 93.0556 383.836 91H265.024V97H382.428Z" fill="#D20000"/>
<path d="M232.024 97V91H206.024V97H232.024Z" fill="#D20000"/>
<path d="M206.024 87H232.024V43H256.024C259.739 43 262.243 43.836 263.524 45.5C264.805 47.164 265.024 50.16 265.024 54V87H291.024V51.08C291.024 41.48 288.718 34.056 284.106 28.808C279.494 23.688 271.679 21 260.405 21H147.024V87H173.024V43H206.024V87Z" fill="#D20000"/>
<path d="M358.907 87H384.007C383.768 79.954 380.977 74.6993 376.208 70.664C371.216 66.44 363.792 62.856 353.936 59.912L330.524 53C328.092 52.36 326.548 51.524 325.524 50.5C324.5 49.476 324.024 48.536 324.024 47C324.024 45.848 324.372 44.524 325.524 43.5C326.548 42.476 328.208 42 331.024 42L384.024 42.12V21H331.28C321.04 21 313.104 23.432 307.472 28.04C301.84 32.776 299.024 39.064 299.024 47C299.024 53.4 301.072 59.016 305.424 63.624C309.648 68.232 316.176 71.944 325.136 74.504L348.176 81.288C352.528 82.568 355.472 83.848 357.008 84.872C357.844 85.4295 358.491 86.1389 358.907 87Z" fill="#D20000"/>
<path fill-rule="evenodd" clip-rule="evenodd" d="M0 138L59.0241 69L87.3592 35.6087C99.467 21.5868 114.024 21 114.024 21H139.024V87H73.4256L29.7834 138H0ZM114.024 66H91.3613L105.024 50C110.862 43.2812 114.024 43 114.024 43V66Z" fill="#D20000"/>
<path d="M235.792 145.819V176.943H218.236C214.289 176.943 211.432 176.009 209.666 174.09C207.848 172.222 206.965 169.421 206.965 165.79V145.819H212.679V166.412C212.679 168.487 213.042 169.888 213.873 170.614C214.652 171.392 215.951 171.755 217.821 171.755H230.079V145.819H235.792Z" fill="#D20000"/>
<path d="M246.172 176.943V145.819H263.728C267.624 145.819 270.481 146.804 272.299 148.672C274.065 150.591 275 153.34 275 156.971V176.943H269.286V156.349C269.286 154.326 268.871 152.925 268.091 152.147C267.26 151.421 265.962 151.006 264.144 151.006H251.886V176.943H246.172Z" fill="#D20000"/>
<path d="M316.648 158.839V163.922C316.648 168.28 315.453 171.652 313.064 174.038C310.675 176.424 307.143 177.617 302.572 177.617H298.677C293.794 177.617 290.262 176.424 287.977 174.038C285.691 171.652 284.601 168.28 284.601 163.922V158.839C284.601 154.533 285.691 151.161 287.977 148.775C290.262 146.389 293.794 145.144 298.677 145.144H302.572C307.143 145.144 310.675 146.389 313.064 148.775C315.453 151.161 316.648 154.533 316.648 158.839ZM310.675 158.061C310.675 155.311 310.104 153.288 309.065 151.991C308.026 150.747 306.104 150.072 303.299 150.072H297.897C295.248 150.072 293.379 150.747 292.236 151.991C291.093 153.288 290.574 155.311 290.574 158.061V164.7C290.574 167.502 291.093 169.525 292.236 170.77C293.379 172.067 295.248 172.689 297.897 172.689H303.299C306.104 172.689 308.026 172.067 309.065 170.77C310.104 169.525 310.675 167.502 310.675 164.7V158.061Z" fill="#D20000"/>
<path d="M327.923 176.943V150.747H322.885V145.819H327.923V145.352C327.923 142.447 328.65 140.372 330.208 139.023C331.767 137.674 334 137 336.909 137H345.219V141.513H336.961C335.714 141.513 334.779 141.772 334.26 142.291C333.688 142.81 333.429 143.692 333.429 144.989V145.819H345.739V150.747H333.636V176.943H327.923Z" fill="#D20000"/>
<path d="M349.986 176.943V150.747H344.947V145.819H349.986C349.986 142.758 350.765 140.527 352.427 139.127C354.089 137.726 356.426 137 359.491 137H367.282V141.513H359.023C357.777 141.513 356.842 141.772 356.322 142.291C355.751 142.81 355.491 143.692 355.491 144.989V145.819H367.282V150.747H355.699V176.943H349.986Z" fill="#D20000"/>
<path d="M380.779 143.121H375.065V138.037H380.779V143.121ZM375.065 176.943V145.819H380.779V176.943H375.065Z" fill="#D20000"/>
<path d="M404.57 150.747C401.817 150.747 399.843 151.317 398.648 152.355C397.454 153.392 396.882 155.311 396.882 158.061V164.649C396.882 167.45 397.454 169.421 398.648 170.458C399.843 171.496 401.817 172.015 404.57 172.015H418.022V176.943H404.31C400.31 176.943 397.09 175.853 394.597 173.675C392.104 171.496 390.909 168.28 390.909 163.922V158.839C390.909 154.533 392.104 151.265 394.597 149.087C397.09 146.908 400.31 145.819 404.31 145.819H418.022V150.747H404.57Z" fill="#D20000"/>
<path d="M433.324 143.121H427.611V138.037H433.324V143.121ZM427.611 176.943V145.819H433.324V176.943H427.611Z" fill="#D20000"/>
<path d="M471.399 157.075V176.943H452.181C449.168 176.943 446.831 176.372 445.169 175.127C443.507 173.934 442.676 172.067 442.676 169.525C442.676 167.865 443.247 166.36 444.493 165.064C445.74 163.767 447.454 162.314 449.636 160.654L462.777 150.747H443.039V145.819H459.608C463.556 145.819 466.464 146.856 468.438 148.879C470.412 150.954 471.399 153.651 471.399 157.075ZM451.921 171.755H465.685V154.793L451.713 165.375C450.726 166.101 449.947 166.724 449.428 167.242C448.856 167.761 448.597 168.435 448.597 169.317C448.597 170.199 448.908 170.822 449.584 171.185C450.207 171.6 450.986 171.755 451.921 171.755Z" fill="#D20000"/>
<path d="M482.287 138.037H488V176.943H482.287V138.037Z" fill="#D20000"/>
<path d="M104.009 160.084V176.943H82.661C79.5446 176.943 77.1553 176.268 75.4932 174.92C73.8311 173.571 73 171.807 73 169.629C73 167.242 73.7791 165.375 75.4412 163.922C77.0514 162.47 79.0252 160.966 81.3106 159.409L90.1405 153.34H73V145.819H87.3876C93.3089 145.819 97.5681 147.115 100.165 149.605C102.71 152.095 104.009 155.623 104.009 160.084ZM85.4658 169.421H94.6594V159.098L85.2581 166.412C84.6348 166.879 84.2192 167.242 84.0115 167.45C83.7518 167.657 83.6479 167.969 83.6479 168.28C83.6479 168.695 83.7518 168.954 84.0634 169.162C84.3231 169.369 84.7906 169.421 85.4658 169.421Z" fill="#D20000"/>
<path d="M112.089 176.943V145.819H149.071C153.798 145.819 157.226 146.96 159.355 149.242C161.433 151.525 162.524 154.637 162.524 158.528V176.943H152.655V158.268C152.655 156.712 152.343 155.571 151.824 154.896C151.305 154.222 150.266 153.859 148.76 153.859H142.215V176.943H132.346V153.859H121.958V176.943H112.089Z" fill="#D20000"/>
<path d="M187.813 166.049L179.347 164.389C176.231 163.767 173.841 162.677 172.179 161.121C170.517 159.565 169.738 157.49 169.738 154.896C169.738 153.703 169.946 152.562 170.413 151.421C170.881 150.332 171.608 149.346 172.595 148.516C173.582 147.686 174.828 147.064 176.386 146.545C177.945 146.078 179.763 145.819 181.892 145.819H198.929V153.34H181.113C180.074 153.34 179.347 153.496 179.035 153.807C178.672 154.118 178.516 154.481 178.516 154.845C178.516 155.26 178.672 155.623 178.983 155.934C179.295 156.245 179.815 156.505 180.594 156.608L188.281 158.113C192.073 158.891 194.774 160.032 196.436 161.536C198.098 163.041 198.929 165.012 198.929 167.502C198.929 170.303 197.838 172.585 195.708 174.349C193.579 176.113 190.359 176.943 186.047 176.943H169.738V169.421H187.71C188.8 169.421 189.527 169.265 189.839 168.954C190.151 168.643 190.359 168.28 190.359 167.761C190.359 167.242 190.099 166.879 189.631 166.62C189.164 166.412 188.541 166.205 187.813 166.049Z" fill="#D20000"/>
</svg>
