<?xml version="1.0" encoding="UTF-8" standalone="no"?>
<svg
   width="96"
   height="96"
   viewBox="0 0 96 96"
   fill="none"
   version="1.1"
   id="svg307"
   sodipodi:docname="avatar--extended-u--red-colour-white--a--bg--a.svg"
   inkscape:export-filename="avatar--extended-u--red-colour-white--a--bg--a.png"
   inkscape:export-xdpi="512"
   inkscape:export-ydpi="512"
   inkscape:version="1.2 (dc2aedaf03, 2022-05-15)"
   xmlns:inkscape="http://www.inkscape.org/namespaces/inkscape"
   xmlns:sodipodi="http://sodipodi.sourceforge.net/DTD/sodipodi-0.dtd"
   xmlns="http://www.w3.org/2000/svg"
   xmlns:svg="http://www.w3.org/2000/svg">
  <sodipodi:namedview
     id="namedview309"
     pagecolor="#ffffff"
     bordercolor="#666666"
     borderopacity="1.0"
     inkscape:showpageshadow="2"
     inkscape:pageopacity="0.0"
     inkscape:pagecheckerboard="0"
     inkscape:deskcolor="#d1d1d1"
     showgrid="false"
     inkscape:zoom="10.697917"
     inkscape:cx="47.953262"
     inkscape:cy="47.953262"
     inkscape:window-width="2560"
     inkscape:window-height="1377"
     inkscape:window-x="2552"
     inkscape:window-y="-6"
     inkscape:window-maximized="1"
     inkscape:current-layer="svg307" />
  <rect
     width="96"
     height="96"
     fill="#1a1a1a"
     id="rect271"
     x="0"
     y="0" />
  <g
     mask="url(#mask312)"
     id="g290">
    <path
       d="M 33.8438,31.2 H 19 v 43.05 h 14.8438 z"
       fill="#d20000"
       id="path276" />
    <path
       d="M 62.3437,90 C 69.8859,90 76,84.5939 76,77.925 V 35.4 h -3.5625 v 42.525 c 0,4.9292 -4.5191,8.925 -10.0938,8.925 H 24.5912 c 2.2599,1.9805 5.0483,3.15 8.0651,3.15 z"
       fill="#d20000"
       id="path278" />
    <path
       d="m 22.6236,84.75 h 38.5327 c 4.9188,0 8.9062,-3.5258 8.9062,-7.875 v -60.9 H 66.5 v 60.9 c 0,2.6095 -2.3924,4.725 -5.3437,4.725 H 20.7147 c 0.531,1.141 1.1732,2.198 1.9089,3.15 z"
       fill="#d20000"
       id="path280" />
    <path
       d="m 19.8953,79.5 h 40.0734 c 2.2954,0 4.1563,-1.6453 4.1563,-3.675 v -47.25 h -3.5625 v 47.25 c 0,0.29 -0.2659,0.525 -0.5938,0.525 H 19.1826 c 0.1504,1.0902 0.3911,2.144 0.7127,3.15 z"
       fill="#d20000"
       id="path282" />
    <rect
       x="66.5"
       y="13.875"
       width="7.875"
       height="3.5625"
       transform="rotate(-90,66.5,13.875)"
       fill="#03a9f4"
       id="rect284" />
    <rect
       x="72.4375"
       y="33.299999"
       width="7.875"
       height="3.5625"
       transform="rotate(-90,72.4375,33.3)"
       fill="#ff4a00"
       id="rect286" />
    <rect
       x="60.5625"
       y="26.475"
       width="7.875"
       height="3.5625"
       transform="rotate(-90,60.5625,26.475)"
       fill="#ff357a"
       id="rect288" />
  </g>
  <g
     id="g323"
     style="display:none">
    <path
       d="M 24.9009,66 V 48 h 20.0648 c 2.5644,0 4.4244,0.66 5.5798,1.98 1.1272,1.32 1.719,3.12 1.719,5.37 V 66 H 46.9101 V 55.2 c 0,-0.9 -0.169,-1.56 -0.4508,-1.95 -0.2819,-0.39 -0.8455,-0.6 -1.6627,-0.6 H 41.2458 V 66 H 35.8914 V 52.65 H 30.2552 V 66 Z"
       fill="#ffffff"
       id="path292" />
    <path
       d="m 65.0098,59.7 -4.6382,-0.96 c -1.7073,-0.36 -3.0162,-0.99 -3.9268,-1.89 -0.9106,-0.9 -1.3374,-2.1 -1.3374,-3.6 0,-0.69 0.1138,-1.35 0.3699,-2.01 0.2561,-0.63 0.6545,-1.2 1.1951,-1.68 0.5407,-0.48 1.2236,-0.84 2.0773,-1.14 C 59.6033,48.15 60.5992,48 61.7659,48 h 9.3333 v 4.35 h -9.7601 c -0.5691,0 -0.9675,0.09 -1.1382,0.27 -0.1992,0.18 -0.2846,0.39 -0.2846,0.6 0,0.24 0.0854,0.45 0.2561,0.63 0.1707,0.18 0.4553,0.33 0.8821,0.39 l 4.2114,0.87 c 2.0772,0.45 3.5569,1.11 4.4674,1.98 0.9106,0.87 1.3659,2.01 1.3659,3.45 0,1.62 -0.5976,2.94 -1.7643,3.96 -1.1666,1.02 -2.9308,1.5 -5.2926,1.5 h -8.9349 v -4.35 h 9.8455 c 0.5975,0 0.9959,-0.09 1.1666,-0.27 0.1708,-0.18 0.2846,-0.39 0.2846,-0.69 0,-0.3 -0.1423,-0.51 -0.3984,-0.66 -0.2561,-0.12 -0.5975,-0.24 -0.9959,-0.33 z"
       fill="#ffffff"
       id="path294" />
    <path
       d="M 22.0579,56.25 V 66 H 10.3145 C 8.60015,66 7.28581,65.61 6.37149,64.83 5.45716,64.05 5,63.03 5,61.77 5,60.39 5.42859,59.31 6.34291,58.47 7.22866,57.63 8.31442,56.76 9.57162,55.86 L 14.429,52.35 H 5 V 48 h 7.9146 c 3.2573,0 5.6002,0.75 7.0289,2.19 1.4,1.44 2.1144,3.48 2.1144,6.06 z m -10.2005,5.4 h 5.0574 v -5.97 l -5.1717,4.23 c -0.3428,0.27 -0.5714,0.48 -0.6857,0.6 -0.1429,0.12 -0.2,0.3 -0.2,0.48 0,0.24 0.0571,0.39 0.2286,0.51 0.1428,0.12 0.4,0.15 0.7714,0.15 z"
       fill="#ffffff"
       id="path296" />
    <path
       d="m 80.9243,66 h 3.0936 c 2.4676,0 4.2341,-0.66 5.3277,-1.98 C 90.4672,62.7 91,60.93 91,58.65 V 48 h -5.3277 v 10.8 c 0,0.93 -0.1402,1.59 -0.4206,1.98 -0.2804,0.39 -0.8413,0.57 -1.6825,0.57 h -2.1963 c -0.8412,0 -1.402,-0.18 -1.6824,-0.57 -0.2804,-0.39 -0.4206,-1.05 -0.4206,-1.98 V 48 h -5.3278 v 10.65 c 0,2.28 0.5328,4.05 1.6544,5.37 1.0936,1.32 2.8602,1.98 5.3278,1.98 z"
       fill="#ffffff"
       id="path298" />
  </g>
  <g
     id="g360">
    <path
       d="M 34.8513,66 V 48 h 20.0648 c 2.5644,0 4.4244,0.66 5.5798,1.98 1.1272,1.32 1.719,3.12 1.719,5.37 V 66 H 56.8605 V 55.2 c 0,-0.9 -0.169,-1.56 -0.4508,-1.95 -0.2819,-0.39 -0.8455,-0.6 -1.6627,-0.6 H 51.1962 V 66 H 45.8418 V 52.65 H 40.2056 V 66 Z"
       fill="#ffffff"
       id="path325"
       style="display:inline" />
    <path
       d="M 76.9602,59.7 72.322,58.74 c -1.7073,-0.36 -3.0162,-0.99 -3.9268,-1.89 -0.9106,-0.9 -1.3374,-2.1 -1.3374,-3.6 0,-0.69 0.1138,-1.35 0.3699,-2.01 0.2561,-0.63 0.6545,-1.2 1.1951,-1.68 0.5407,-0.48 1.2236,-0.84 2.0773,-1.14 C 71.5537,48.15 72.5496,48 73.7163,48 h 9.3333 v 4.35 h -9.7601 c -0.5691,0 -0.9675,0.09 -1.1382,0.27 -0.1992,0.18 -0.2846,0.39 -0.2846,0.6 0,0.24 0.0854,0.45 0.2561,0.63 0.1707,0.18 0.4553,0.33 0.8821,0.39 l 4.2114,0.87 c 2.0772,0.45 3.5569,1.11 4.4674,1.98 0.9106,0.87 1.3659,2.01 1.3659,3.45 0,1.62 -0.5976,2.94 -1.7643,3.96 -1.1666,1.02 -2.9308,1.5 -5.2926,1.5 h -8.9349 v -4.35 h 9.8455 c 0.5975,0 0.9959,-0.09 1.1666,-0.27 0.1708,-0.18 0.2846,-0.39 0.2846,-0.69 0,-0.3 -0.1423,-0.51 -0.3984,-0.66 C 77.7,59.91 77.3586,59.79 76.9602,59.7 Z"
       fill="#ffffff"
       id="path327" />
    <path
       d="M 30.0083,56.25 V 66 H 18.2649 c -1.71435,0 -3.02869,-0.39 -3.94301,-1.17 -0.91433,-0.78 -1.37149,-1.8 -1.37149,-3.06 0,-1.38 0.42859,-2.46 1.34291,-3.3 0.88575,-0.84 1.97151,-1.71 3.22871,-2.61 l 4.85738,-3.51 h -9.429 V 48 h 7.9146 c 3.2573,0 5.6002,0.75 7.0289,2.19 1.4,1.44 2.1144,3.48 2.1144,6.06 z m -10.2005,5.4 h 5.0574 v -5.97 l -5.1717,4.23 c -0.3428,0.27 -0.5714,0.48 -0.6857,0.6 -0.1429,0.12 -0.2,0.3 -0.2,0.48 0,0.24 0.0571,0.39 0.2286,0.51 0.1428,0.12 0.4,0.15 0.7714,0.15 z"
       fill="#ffffff"
       id="path329" />
  </g>
  <defs
     id="defs305">
    <mask
       maskUnits="userSpaceOnUse"
       id="mask312">
      <path
         fill-rule="evenodd"
         clip-rule="evenodd"
         d="M 96,0 H 0 V 96 H 96 Z M 94,45 H 2 v 24 h 92 z"
         fill="#ff0000"
         id="path314"
         style="fill:#ffffff" />
    </mask>
  </defs>
</svg>
