<?xml version="1.0" encoding="UTF-8" standalone="no"?>
<svg
   width="96"
   height="96"
   viewBox="0 0 96 96"
   fill="none"
   version="1.1"
   id="svg666"
   sodipodi:docname="avatar--inline-u--red-colour-white--b--bg--a.svg"
   inkscape:export-filename="avatar--inline-u--red-colour-white--b--bg--a.png"
   inkscape:export-xdpi="512"
   inkscape:export-ydpi="512"
   inkscape:version="1.2 (dc2aedaf03, 2022-05-15)"
   xmlns:inkscape="http://www.inkscape.org/namespaces/inkscape"
   xmlns:sodipodi="http://sodipodi.sourceforge.net/DTD/sodipodi-0.dtd"
   xmlns="http://www.w3.org/2000/svg"
   xmlns:svg="http://www.w3.org/2000/svg">
  <sodipodi:namedview
     id="namedview668"
     pagecolor="#ffffff"
     bordercolor="#666666"
     borderopacity="1.0"
     inkscape:showpageshadow="2"
     inkscape:pageopacity="0.0"
     inkscape:pagecheckerboard="0"
     inkscape:deskcolor="#d1d1d1"
     showgrid="false"
     inkscape:zoom="10.697917"
     inkscape:cx="47.953262"
     inkscape:cy="47.953262"
     inkscape:window-width="2560"
     inkscape:window-height="1377"
     inkscape:window-x="2552"
     inkscape:window-y="-6"
     inkscape:window-maximized="1"
     inkscape:current-layer="svg666" />
  <rect
     width="96"
     height="96"
     fill="#1a1a1a"
     id="rect630"
     x="0"
     y="0" />
  <g
     mask="url(#mask687)"
     id="g649">
    <path
       d="M 32.6667,19 H 16 v 44 h 16.6667 z"
       fill="#d20000"
       id="path635" />
    <path
       d="M 64.6667,83 C 73.135,83 80,76.135 80,67.6667 v -36 h -4 v 36 C 76,73.9259 70.9259,79 64.6667,79 H 22.2778 c 2.5375,2.5149 5.6683,4 9.0555,4 z"
       fill="#ff4a00"
       id="path637" />
    <path
       d="m 20.0685,76.3334 h 43.2648 c 5.5229,0 10,-4.4772 10,-10 V 31.6667 h -4 v 34.6667 c 0,3.3137 -2.6863,6 -6,6 H 17.9252 c 0.5963,1.4489 1.3172,2.791 2.1433,4 z"
       fill="#03a9f4"
       id="path639" />
    <path
       d="M 17.0053,69.6667 H 62 c 2.5773,0 4.6667,-2.0893 4.6667,-4.6667 V 31.6667 h -4 V 65 c 0,0.3682 -0.2985,0.6667 -0.6667,0.6667 H 16.2051 c 0.1688,1.3844 0.4391,2.7225 0.8002,4 z"
       fill="#ff357a"
       id="path641" />
    <rect
       x="69.333298"
       y="29"
       width="10"
       height="4"
       transform="rotate(-90,69.3333,29)"
       fill="#03a9f4"
       id="rect643" />
    <rect
       x="76"
       y="29"
       width="10"
       height="4"
       transform="rotate(-90,76,29)"
       fill="#ff4a00"
       id="rect645" />
    <rect
       x="62.666698"
       y="29"
       width="10"
       height="4"
       transform="rotate(-90,62.6667,29)"
       fill="#ff357a"
       id="rect647" />
  </g>
  <g
     id="g698"
     style="display:none">
    <path
       d="M 24.9008,57 V 39 h 20.0648 c 2.5645,0 4.4244,0.66 5.5798,1.98 1.1273,1.32 1.7191,3.12 1.7191,5.37 V 57 H 46.9101 V 46.2 c 0,-0.9 -0.1691,-1.56 -0.4509,-1.95 -0.2818,-0.39 -0.8454,-0.6 -1.6627,-0.6 H 41.2457 V 57 H 35.8914 V 43.65 H 30.2552 V 57 Z"
       fill="#ffffff"
       id="path651" />
    <path
       d="m 65.0098,50.7 -4.6382,-0.96 c -1.7073,-0.36 -3.0162,-0.99 -3.9268,-1.89 -0.9106,-0.9 -1.3374,-2.1 -1.3374,-3.6 0,-0.69 0.1138,-1.35 0.3699,-2.01 0.2561,-0.63 0.6545,-1.2 1.1951,-1.68 0.5407,-0.48 1.2236,-0.84 2.0773,-1.14 C 59.6033,39.15 60.5992,39 61.7659,39 h 9.3333 v 4.35 h -9.7601 c -0.5691,0 -0.9675,0.09 -1.1382,0.27 -0.1992,0.18 -0.2846,0.39 -0.2846,0.6 0,0.24 0.0854,0.45 0.2561,0.63 0.1707,0.18 0.4553,0.33 0.8821,0.39 l 4.2114,0.87 c 2.0772,0.45 3.5569,1.11 4.4674,1.98 0.9106,0.87 1.3659,2.01 1.3659,3.45 0,1.62 -0.5976,2.94 -1.7643,3.96 -1.1666,1.02 -2.9308,1.5 -5.2926,1.5 h -8.9349 v -4.35 h 9.8455 c 0.5975,0 0.9959,-0.09 1.1666,-0.27 0.1708,-0.18 0.2846,-0.39 0.2846,-0.69 0,-0.3 -0.1423,-0.51 -0.3984,-0.66 -0.2561,-0.12 -0.5975,-0.24 -0.9959,-0.33 z"
       fill="#ffffff"
       id="path653" />
    <path
       d="M 22.0579,47.25 V 57 H 10.3145 C 8.60015,57 7.28581,56.61 6.37149,55.83 5.45716,55.05 5,54.03 5,52.77 5,51.39 5.42859,50.31 6.34291,49.47 7.22866,48.63 8.31442,47.76 9.57162,46.86 L 14.429,43.35 H 5 V 39 h 7.9146 c 3.2573,0 5.6002,0.75 7.0289,2.19 1.4,1.44 2.1144,3.48 2.1144,6.06 z m -10.2005,5.4 h 5.0574 v -5.97 l -5.1717,4.23 c -0.3428,0.27 -0.5714,0.48 -0.6857,0.6 -0.1429,0.12 -0.2,0.3 -0.2,0.48 0,0.24 0.0571,0.39 0.2286,0.51 0.1428,0.12 0.4,0.15 0.7714,0.15 z"
       fill="#ffffff"
       id="path655" />
    <path
       d="m 80.9243,57 h 3.0936 c 2.4676,0 4.2341,-0.66 5.3277,-1.98 C 90.4672,53.7 91,51.93 91,49.65 V 39 h -5.3277 v 10.8 c 0,0.93 -0.1402,1.59 -0.4206,1.98 -0.2804,0.39 -0.8413,0.57 -1.6825,0.57 h -2.1963 c -0.8412,0 -1.402,-0.18 -1.6824,-0.57 -0.2804,-0.39 -0.4206,-1.05 -0.4206,-1.98 V 39 h -5.3278 v 10.65 c 0,2.28 0.5328,4.05 1.6544,5.37 1.0936,1.32 2.8602,1.98 5.3278,1.98 z"
       fill="#ffffff"
       id="path657" />
  </g>
  <defs
     id="defs664">
    <mask
       maskUnits="userSpaceOnUse"
       id="mask687">
      <path
         fill-rule="evenodd"
         clip-rule="evenodd"
         d="M 96,0 H 0 V 96 H 96 Z M 94,36 H 2 v 24 h 92 z"
         fill="#ff0000"
         id="path689"
         style="fill:#ffffff" />
    </mask>
  </defs>
  <g
     id="g716">
    <path
       d="M 34.8512,57 V 39 H 54.916 c 2.5645,0 4.4244,0.66 5.5798,1.98 1.1273,1.32 1.7191,3.12 1.7191,5.37 V 57 H 56.8605 V 46.2 c 0,-0.9 -0.1691,-1.56 -0.4509,-1.95 -0.2818,-0.39 -0.8454,-0.6 -1.6627,-0.6 H 51.1961 V 57 H 45.8418 V 43.65 H 40.2056 V 57 Z"
       fill="#ffffff"
       id="path700" />
    <path
       d="M 76.9602,50.7 72.322,49.74 c -1.7073,-0.36 -3.0162,-0.99 -3.9268,-1.89 -0.9106,-0.9 -1.3374,-2.1 -1.3374,-3.6 0,-0.69 0.1138,-1.35 0.3699,-2.01 0.2561,-0.63 0.6545,-1.2 1.1951,-1.68 0.5407,-0.48 1.2236,-0.84 2.0773,-1.14 C 71.5537,39.15 72.5496,39 73.7163,39 h 9.3333 v 4.35 h -9.7601 c -0.5691,0 -0.9675,0.09 -1.1382,0.27 -0.1992,0.18 -0.2846,0.39 -0.2846,0.6 0,0.24 0.0854,0.45 0.2561,0.63 0.1707,0.18 0.4553,0.33 0.8821,0.39 l 4.2114,0.87 c 2.0772,0.45 3.5569,1.11 4.4674,1.98 0.9106,0.87 1.3659,2.01 1.3659,3.45 0,1.62 -0.5976,2.94 -1.7643,3.96 -1.1666,1.02 -2.9308,1.5 -5.2926,1.5 h -8.9349 v -4.35 h 9.8455 c 0.5975,0 0.9959,-0.09 1.1666,-0.27 0.1708,-0.18 0.2846,-0.39 0.2846,-0.69 0,-0.3 -0.1423,-0.51 -0.3984,-0.66 C 77.7,50.91 77.3586,50.79 76.9602,50.7 Z"
       fill="#ffffff"
       id="path702" />
    <path
       d="M 30.0083,47.25 V 57 H 18.2649 c -1.71435,0 -3.02869,-0.39 -3.94301,-1.17 -0.91433,-0.78 -1.37149,-1.8 -1.37149,-3.06 0,-1.38 0.42859,-2.46 1.34291,-3.3 0.88575,-0.84 1.97151,-1.71 3.22871,-2.61 l 4.85738,-3.51 h -9.429 V 39 h 7.9146 c 3.2573,0 5.6002,0.75 7.0289,2.19 1.4,1.44 2.1144,3.48 2.1144,6.06 z m -10.2005,5.4 h 5.0574 v -5.97 l -5.1717,4.23 c -0.3428,0.27 -0.5714,0.48 -0.6857,0.6 -0.1429,0.12 -0.2,0.3 -0.2,0.48 0,0.24 0.0571,0.39 0.2286,0.51 0.1428,0.12 0.4,0.15 0.7714,0.15 z"
       fill="#ffffff"
       id="path704" />
  </g>
</svg>
