<svg width="96" height="96" viewBox="0 0 96 96" fill="none" xmlns="http://www.w3.org/2000/svg">
<mask id="mask0_112_3988" style="mask-type:alpha" maskUnits="userSpaceOnUse" x="10" y="10" width="76" height="76">
<path fill-rule="evenodd" clip-rule="evenodd" d="M86 10H10V86H86V10ZM84.4167 38.5H11.5833V57.5H84.4167V38.5Z" fill="#FF0000"/>
</mask>
<g mask="url(#mask0_112_3988)">
<path d="M35.8612 25.0417H22.6667V59.875H35.8612V25.0417Z" fill="white"/>
<path d="M61.1945 75.7083C67.8987 75.7083 73.3334 70.2736 73.3334 63.5694V35.0695H70.1668V63.5694C70.1668 68.5247 66.1498 72.5417 61.1945 72.5417H27.6367C29.6456 74.5326 32.1241 75.7083 34.8057 75.7083H61.1945Z" fill="white"/>
<path d="M25.8877 70.4306H60.139C64.5112 70.4306 68.0556 66.8861 68.0556 62.5139V35.0695H64.889V62.5139C64.889 65.1372 62.7623 67.2639 60.139 67.2639H24.1909C24.6629 68.4109 25.2337 69.4735 25.8877 70.4306Z" fill="white"/>
<path d="M23.4626 65.1528H59.0834C61.1238 65.1528 62.7779 63.4987 62.7779 61.4583V35.0695H59.6112V61.4583C59.6112 61.7498 59.3749 61.9861 59.0834 61.9861H22.8291C22.9628 63.0821 23.1768 64.1414 23.4626 65.1528Z" fill="white"/>
<rect x="64.8889" y="32.9583" width="7.91667" height="3.16666" transform="rotate(-90 64.8889 32.9583)" fill="white"/>
<rect x="70.1667" y="32.9583" width="7.91667" height="3.16667" transform="rotate(-90 70.1667 32.9583)" fill="white"/>
<rect x="59.6112" y="32.9583" width="7.91667" height="3.16667" transform="rotate(-90 59.6112 32.9583)" fill="white"/>
</g>
<path d="M29.713 55.125V40.875H45.5976C47.6278 40.875 49.1003 41.3975 50.015 42.4425C50.9074 43.4875 51.3759 44.9125 51.3759 46.6938V55.125H47.137V46.575C47.137 45.8625 47.0032 45.34 46.7801 45.0313C46.557 44.7225 46.1108 44.5562 45.4638 44.5562H42.6527V55.125H38.4139V44.5562H33.9519V55.125H29.713Z" fill="white"/>
<path d="M61.466 50.1375L57.7941 49.3775C56.4424 49.0925 55.4062 48.5938 54.6854 47.8813C53.9645 47.1688 53.6266 46.2187 53.6266 45.0313C53.6266 44.485 53.7167 43.9625 53.9194 43.44C54.1222 42.9413 54.4376 42.49 54.8656 42.11C55.2936 41.73 55.8342 41.445 56.51 41.2075C57.1858 40.9937 57.9743 40.875 58.8979 40.875H66.2867V44.3188H58.56C58.1094 44.3188 57.7941 44.39 57.6589 44.5325C57.5012 44.675 57.4336 44.8413 57.4336 45.0075C57.4336 45.1975 57.5012 45.3638 57.6364 45.5062C57.7715 45.6488 57.9968 45.7675 58.3347 45.815L61.6687 46.5038C63.3132 46.86 64.4846 47.3825 65.2054 48.0712C65.9263 48.76 66.2867 49.6625 66.2867 50.8025C66.2867 52.085 65.8137 53.13 64.89 53.9375C63.9664 54.745 62.5698 55.125 60.7 55.125H53.6266V51.6812H61.4209C61.894 51.6812 62.2093 51.61 62.3445 51.4675C62.4797 51.325 62.5698 51.1587 62.5698 50.9213C62.5698 50.6837 62.4571 50.5175 62.2544 50.3987C62.0517 50.3037 61.7813 50.2088 61.466 50.1375Z" fill="white"/>
<path d="M27.4624 47.4062V55.125H18.1656C16.8084 55.125 15.7679 54.8162 15.044 54.1987C14.3202 53.5812 13.9583 52.7738 13.9583 51.7763C13.9583 50.6838 14.2976 49.8288 15.0214 49.1638C15.7226 48.4988 16.5822 47.81 17.5775 47.0975L21.4228 44.3188H13.9583V40.875H20.224C22.8027 40.875 24.6575 41.4687 25.7885 42.6088C26.8969 43.7487 27.4624 45.3638 27.4624 47.4062ZM19.387 51.6812H23.3908V46.955L19.2966 50.3038C19.0251 50.5175 18.8442 50.6838 18.7537 50.7788C18.6406 50.8738 18.5953 51.0162 18.5953 51.1587C18.5953 51.3487 18.6406 51.4675 18.7763 51.5625C18.8894 51.6575 19.093 51.6812 19.387 51.6812Z" fill="white"/>
<path d="M74.065 55.125H76.5141C78.4676 55.125 79.8661 54.6025 80.7319 53.5575C81.6198 52.5125 82.0416 51.1112 82.0416 49.3063V40.875H77.8238V49.425C77.8238 50.1612 77.7128 50.6837 77.4908 50.9925C77.2689 51.3012 76.8249 51.4438 76.1589 51.4438H74.4202C73.7542 51.4438 73.3102 51.3012 73.0882 50.9925C72.8662 50.6837 72.7553 50.1612 72.7553 49.425V40.875H68.5375V49.3063C68.5375 51.1112 68.9593 52.5125 69.8472 53.5575C70.713 54.6025 72.1115 55.125 74.065 55.125Z" fill="white"/>
</svg>
