<svg width="516" height="138" viewBox="0 0 516 138" fill="none" xmlns="http://www.w3.org/2000/svg">
<path d="M417 21H392V87H417V21Z" fill="#FF4A00"/>
<path d="M511.306 0L501.564 11.4061L506.127 15.3028L515.869 3.89669L511.306 0Z" fill="white"/>
<path d="M497.306 0L487.564 11.4061L492.127 15.3028L501.868 3.89669L497.306 0Z" fill="white"/>
<path d="M483.306 0L473.564 11.4061L478.127 15.3028L487.868 3.89669L483.306 0Z" fill="white"/>
<path d="M488 36.527L488 94C488 106.703 477.702 117 465 117H415C409.919 117 405.223 114.772 401.417 111H465C474.389 111 482 103.389 482 94L482 34.3134L498.967 14.4478L503.529 18.3444L488 36.527Z" fill="white"/>
<path d="M478 31.8436V92C478 100.284 471.284 107 463 107H398.103C396.864 105.187 395.782 103.173 394.888 101H463C467.97 101 472 96.9706 472 92L472 29.63L484.967 14.4478L489.529 18.3444L478 31.8436Z" fill="white"/>
<path d="M468 27.1602L468 90C468 93.866 464.866 97 461 97H393.508C392.966 95.0838 392.561 93.0766 392.308 91H461C461.552 91 462 90.5523 462 90L462 24.9466L470.967 14.4478L475.529 18.3444L468 27.1602Z" fill="white"/>
<path d="M139.024 111H114.024L114.024 117H139.024V111Z" fill="white"/>
<path d="M147.024 111H173.024V117H147.024V111Z" fill="white"/>
<path d="M206.024 111V117H232.024V111H206.024Z" fill="white"/>
<path d="M265.401 111V117H346.896C353.04 117 358.544 116.232 363.152 114.696C366.183 113.686 368.882 112.454 371.249 111H265.401Z" fill="white"/>
<path d="M139.024 101H114.024V107H139.024V101Z" fill="white"/>
<path d="M147.024 107V101H173.024V107H147.024Z" fill="white"/>
<path d="M376.378 107H265.024V101H380.738C379.602 103.236 378.172 105.212 376.378 107Z" fill="white"/>
<path d="M206.024 101V107H232.024V101H206.024Z" fill="white"/>
<path d="M139.024 91H114.024V97H139.024V91Z" fill="white"/>
<path d="M147.024 97V91H173.024V97H147.024Z" fill="white"/>
<path d="M382.428 97C383.09 95.0861 383.584 93.0556 383.836 91H265.024V97H382.428Z" fill="white"/>
<path d="M232.024 97V91H206.024V97H232.024Z" fill="white"/>
<path d="M206.024 87H232.024V43H256.024C259.739 43 262.243 43.836 263.524 45.5C264.805 47.164 265.024 50.16 265.024 54V87H291.024V51.08C291.024 41.48 288.718 34.056 284.106 28.808C279.494 23.688 271.679 21 260.405 21H147.024V87H173.024V43H206.024V87Z" fill="#FF4A00"/>
<path d="M358.907 87H384.007C383.768 79.954 380.977 74.6993 376.208 70.664C371.216 66.44 363.792 62.856 353.936 59.912L330.524 53C328.092 52.36 326.548 51.524 325.524 50.5C324.5 49.476 324.024 48.536 324.024 47C324.024 45.848 324.372 44.524 325.524 43.5C326.548 42.476 328.208 42 331.024 42L384.024 42.12V21H331.28C321.04 21 313.104 23.432 307.472 28.04C301.84 32.776 299.024 39.064 299.024 47C299.024 53.4 301.072 59.016 305.424 63.624C309.648 68.232 316.176 71.944 325.136 74.504L348.176 81.288C352.528 82.568 355.472 83.848 357.008 84.872C357.844 85.4295 358.491 86.1389 358.907 87Z" fill="#FF4A00"/>
<path fill-rule="evenodd" clip-rule="evenodd" d="M0 138L59.0241 69L87.3592 35.6087C99.467 21.5868 114.024 21 114.024 21H139.024V87H73.4256L29.7834 138H0ZM114.024 66H91.3613L105.024 50C110.862 43.2812 114.024 43 114.024 43V66Z" fill="#FF4A00"/>
</svg>
