<?xml version="1.0" encoding="UTF-8" standalone="no"?>
<!-- Created with Inkscape (http://www.inkscape.org/) -->

<svg
   xmlns:dc="http://purl.org/dc/elements/1.1/"
   xmlns:cc="http://creativecommons.org/ns#"
   xmlns:rdf="http://www.w3.org/1999/02/22-rdf-syntax-ns#"
   xmlns:svg="http://www.w3.org/2000/svg"
   xmlns="http://www.w3.org/2000/svg"
   xmlns:sodipodi="http://sodipodi.sourceforge.net/DTD/sodipodi-0.dtd"
   xmlns:inkscape="http://www.inkscape.org/namespaces/inkscape"
   width="232.69307"
   height="109.99998"
   viewBox="0 0 61.566707 29.104163"
   version="1.1"
   id="svg581"
   inkscape:version="0.92.1 r15371"
   sodipodi:docname="Arai Helmet company logo.svg">
  <defs
     id="defs575" />
  <sodipodi:namedview
     id="base"
     pagecolor="#ffffff"
     bordercolor="#666666"
     borderopacity="1.0"
     inkscape:pageopacity="0.0"
     inkscape:pageshadow="2"
     inkscape:zoom="1"
     inkscape:cx="87.738833"
     inkscape:cy="68.186312"
     inkscape:document-units="mm"
     inkscape:current-layer="layer1"
     showgrid="false"
     units="px"
     fit-margin-top="5"
     fit-margin-bottom="5"
     fit-margin-right="5"
     fit-margin-left="5"
     inkscape:window-width="1280"
     inkscape:window-height="972"
     inkscape:window-x="-8"
     inkscape:window-y="-8"
     inkscape:window-maximized="1" />
  <metadata
     id="metadata578">
    <rdf:RDF>
      <cc:Work
         rdf:about="">
        <dc:format>image/svg+xml</dc:format>
        <dc:type
           rdf:resource="http://purl.org/dc/dcmitype/StillImage" />
        <dc:title></dc:title>
      </cc:Work>
    </rdf:RDF>
  </metadata>
  <g
     inkscape:label="Layer 1"
     inkscape:groupmode="layer"
     id="layer1"
     transform="translate(-82.6191,-177.45762)">
    <path
       inkscape:connector-curvature="0"
       style="fill:#211e1e;fill-opacity:1;fill-rule:nonzero;stroke:none;stroke-width:0.81069213"
       d="m 132.70071,186.78302 c 1.0007,0 1.80823,-0.8107 1.80823,-1.8114 -0.002,-1.0007 -0.8107,-1.81139 -1.8114,-1.81139 -1.0007,0 -1.81139,0.81387 -1.81139,1.81456 0.002,0.99753 0.81387,1.80823 1.81456,1.80823"
       id="path527" />
    <path
       inkscape:connector-curvature="0"
       style="fill:#211e1e;fill-opacity:1;fill-rule:nonzero;stroke:none;stroke-width:0.81069213"
       d="m 123.25107,188.70525 c -0.66817,-0.25651 -1.42188,0.62701 -1.42188,0.62701 -0.78218,0.76952 -1.18119,1.97607 -1.18119,1.97607 -0.73786,1.85256 0.61434,2.32124 0.61434,2.32124 1.34906,0.29766 1.60239,-0.79804 1.60239,-0.79804 0.49403,-0.99752 0.91519,-3.04642 0.91519,-3.04642 0.0823,-0.92153 -0.52885,-1.07986 -0.52885,-1.07986 m -23.760239,3.14459 2.929259,-0.002 1.16537,-4.63615 z m -8.863779,2.27059 c 0,0 2.023565,1.26669 4.06613,-0.023 0,0 3.746284,-2.79943 10.130488,-12.15407 l 4.09779,-0.0138 -2.72342,11.10585 c 0,0 -0.79169,2.33392 1.11154,0.99121 0,0 1.25087,-0.88353 1.33321,-1.02603 l 1.42504,-5.46268 4.28781,-0.002 -0.17734,0.86452 1.58971,-1.05769 c 0,0 0.50985,1.14954 1.76389,1.22871 0,0 0.9247,0.0887 1.49788,-0.40218 0,0 0.85503,-0.77903 1.49472,-0.96903 0,0 2.29907,-0.87403 3.79695,1.0957 l 0.19947,-0.78852 3.8508,0.0161 -1.48839,5.72868 c 0,0 -0.52887,2.60941 2.15024,-0.27234 l 1.33637,-5.42467 3.92995,-0.0138 -1.33003,5.31699 c 0,0 -0.34836,1.46306 1.23185,0.51618 0,0 1.6689,-1.5707 1.69739,-1.6847 0,0 -1.71954,4.17696 -4.19596,5.24416 0,0 -3.2586,1.13371 -3.2776,-1.72589 0,0 -1.71006,1.98239 -4.04395,2.07108 0,0 -1.65306,0.19946 -2.07425,-1.42506 0,0 -1.58654,2.19774 -4.03128,1.54855 0,0 -4.22447,-1.43771 -1.11154,-6.3272 0,0 -2.40674,0.39584 -3.46444,-0.65236 l -1.81773,6.82438 -4.2783,-0.007 0.56369,-2.24839 c 0,0 -2.64108,2.59675 -5.19983,2.43524 0,0 -2.25157,0.009 -1.43138,-2.58725 l 0.50351,-1.73538 -4.097791,0.0138 c 0,0 -2.932427,3.10659 -5.256833,4.33212 0,0 -2.299073,1.22239 -4.579143,-0.10777 z m 0,0"
       id="path529" />
    <path
       inkscape:connector-curvature="0"
       style="fill:#211e1e;fill-opacity:1;fill-rule:nonzero;stroke:none;stroke-width:0.81069213"
       d="m 103.02178,198.58239 h 0.79802 l -0.003,0.89935 h 1.14638 v -0.89935 h 0.8202 v 2.49857 h -0.8202 v -1.02285 h -1.14637 l 0.003,1.02285 h -0.79803 z m 0,0"
       id="path535" />
    <path
       inkscape:connector-curvature="0"
       style="fill:#211e1e;fill-opacity:1;fill-rule:nonzero;stroke:none;stroke-width:0.81069213"
       d="m 109.92216,198.58239 h 0.79803 v 1.86838 h 1.82089 v 0.63019 h -2.61575 z m 0,0"
       id="path537" />
    <path
       inkscape:connector-curvature="0"
       style="fill:#211e1e;fill-opacity:1;fill-rule:nonzero;stroke:none;stroke-width:0.81069213"
       d="m 113.3011,198.58239 v 2.49857 h 0.81702 v -1.34586 l 0.7537,1.34586 h 0.57001 l 0.63336,-1.34903 v 1.34903 h 0.81702 v -2.49857 h -0.98803 l -0.74735,1.38072 -0.78853,-1.38072 z m 0,0"
       id="path539" />
    <path
       inkscape:connector-curvature="0"
       style="fill:#211e1e;fill-opacity:1;fill-rule:nonzero;stroke:none;stroke-width:0.81069213"
       d="m 121.01852,198.58239 h 2.84374 l 0.002,0.53836 h -0.96273 v 1.96021 h -0.81704 v -1.95704 h -1.0672 z m 0,0"
       id="path541" />
    <path
       inkscape:connector-curvature="0"
       style="fill:#211e1e;fill-opacity:1;fill-rule:nonzero;stroke:none;stroke-width:0.81069213"
       d="m 117.65857,198.58239 h 2.60942 v 0.57634 h -1.81456 v 0.40535 h 1.13687 v 0.5447 l -1.1432,0.002 v 0.38317 l 1.79872,-0.002 v 0.58903 h -2.58725 z m 0,0"
       id="path543" />
    <path
       inkscape:connector-curvature="0"
       style="fill:#211e1e;fill-opacity:1;fill-rule:nonzero;stroke:none;stroke-width:0.81069213"
       d="m 106.54005,198.58239 h 2.60942 v 0.55736 h -1.81456 v 0.40533 l 1.14004,-0.002 v 0.54785 h -1.14637 v 0.38319 h 1.79872 v 0.60801 h -2.58725 z m 0,0"
       id="path545" />
    <path
       inkscape:connector-curvature="0"
       style="fill:#211e1e;fill-opacity:1;fill-rule:nonzero;stroke:none;stroke-width:0.81069213"
       d="m 134.55644,186.00399 c 0.17097,-0.30401 0.26916,-0.65869 0.26916,-1.03237 -0.002,-1.17169 -0.95636,-2.12806 -2.12806,-2.12489 -0.73153,0 -1.3807,0.37051 -1.76072,0.93737 -4.4683,-2.15341 -10.672,-3.48661 -17.53122,-3.48661 -13.607592,0 -24.634272,5.24416 -24.634272,11.71386 0,1.0197 0.275508,2.01091 0.79169,2.95459 l -1.706885,2.18191 -0.221668,0.28817 0.310344,0.18361 c 0.756857,0.43702 1.586549,0.66185 2.476411,0.66185 0.731524,0 1.358542,-0.15511 1.792391,-0.29768 4.290966,3.43594 12.176219,5.73819 21.191999,5.73819 13.60127,0 24.6311,-5.24416 24.6311,-11.71071 0,-2.19774 -1.27304,-4.24981 -3.48027,-6.00736 m 8.30645,6.00736 c 0,7.30574 -13.18961,13.22759 -29.45728,13.22759 -16.274012,0 -29.463593,-5.92185 -29.463593,-13.22759 0,-7.30889 13.189581,-13.23074 29.463593,-13.23074 16.26767,0 29.45728,5.92185 29.45728,13.23074"
       id="path547" />
  </g>
</svg>
