<?xml version="1.0" encoding="utf-8"?>
<!-- Generator: Adobe Illustrator 18.0.0, SVG Export Plug-In . SVG Version: 6.00 Build 0)  -->
<!DOCTYPE svg PUBLIC "-//W3C//DTD SVG 1.1//EN" "http://www.w3.org/Graphics/SVG/1.1/DTD/svg11.dtd">
<svg version="1.1" id="Layer_1" xmlns="http://www.w3.org/2000/svg" xmlns:xlink="http://www.w3.org/1999/xlink" x="0px" y="0px"
	 viewBox="0 0 913.3 177.8" enable-background="new 0 0 913.3 177.8" xml:space="preserve">
<path fill="#FCAF17" d="M866.7,89.9L792,172.3c-0.6,0.7-1.1,1.7-1.1,2.5c0,1.2,0.9,2.1,2.4,2.1l46.5,0c2.1,0,2.8-0.3,4.8-2.5
	l63.7-69.9c3.2-3.5,5.1-7,5.1-10.8c0-3.2-1.3-6.5-2.8-9.8l-36-81.2c-0.5-1-1.7-2.9-4.5-2.9l-39.8,0c-1.4,0-2.1,1.1-2.1,2.2
	c0,0.5,0.2,1,0.5,1.8L866.7,89.9"/>
<path fill="#0364B0" d="M520.6,50.3l-43.1,0c-1.8,0-4.1,0.6-5.8,2.5l-36.4,40.5l30.5-88.6c0.3-0.7,0.5-1.3,0.5-1.8
	c0-1.3-0.9-1.9-2.1-1.9l-38,0c-2.7,0-4,1.1-4.9,3.9l-50.1,148.1c-0.2,0.5-0.4,1.2-0.4,1.7c0,1.3,0.8,2.3,2.4,2.3l38.5,0
	c2.2,0,3.3-1.1,4.1-3.3l15.1-47l20.1,47.4c0.5,1.1,1.7,3,4.4,3l39.6,0c1.4,0,2.1-1.1,2.1-2.2c0-0.5-0.2-1-0.5-1.8l-22.9-50.3
	L522,55.7c1.2-1.1,1.4-2,1.4-3C523.4,51.2,522,50.3,520.6,50.3"/>
<path fill="#0364B0" d="M520,153.4c-0.2,0.5-0.4,1.1-0.4,1.7c0,1.1,0.9,2.1,2.1,2.1l37.8,0c2.9,0,4.3-1.8,4.7-3.7l16.4-48.9l44,0
	c2.9,0,3.6-1,4.4-3.2l9.1-27.2c0.2-0.6,0.3-1.1,0.3-1.5c0-1.4-1.1-2.1-2.8-2.1l-43.8,0l5-17.7c2.7-9.5,7.6-14.5,19.6-14.5l29.9,0
	c2.1,0,3.6-1.5,4-3.2l10.3-30.4c0.1-0.4,0.2-0.8,0.2-1.2c0-1.3-0.8-2.4-2.7-2.4l-44.8,0c-30,0-49.2,14.4-58.1,41.9L520,153.4z"/>
<path fill="#0364B0" d="M670.6,30.7c-0.2,0.7-0.4,1.1-0.4,1.6c0,1.2,1,2.2,2.3,2.2l38,0c2.9,0,3.6-1.5,4.4-3.2l8.6-25.8
	c0.2-0.7,0.4-1.3,0.4-1.9c0-1.6-1-2.4-3-2.4l-37.1,0c-2.9,0-3.7,1.4-4.4,3.3L670.6,30.7z"/>
<path fill="#0364B0" d="M667.8,50.4c-3,0-4.4,1.2-5.3,4l-33.4,99c-0.3,0.7-0.4,1.1-0.4,1.5c0,1.1,0.7,2.3,2.3,2.3l38,0
	c2.9,0,3.6-1.5,4.3-3.3L707,54.5c0.2-0.6,0.4-1.1,0.4-1.7c0-1.3-0.7-2.3-2.5-2.3L667.8,50.4z"/>
<path fill="#0364B0" d="M753.9,124.7c-3.6,0-5.6-2.1-5.6-5.4c0-0.7,0.2-1.8,0.6-3c0,0,12.1-37.6,15.7-46.3l25.1,0
	c2.9,0,3.5-1,4.3-3.2l8.9-26.4c0.2-0.6,0.3-1.1,0.3-1.5c0-1.4-1.1-2.1-2.8-2.1l-24.9,0l10.7-31.4c0.2-0.6,0.4-1.1,0.4-1.7
	c0-1.3-0.7-2.3-2.5-2.3l-34.9,0c-3,0-4.4,1.2-5.3,4l-36.7,109.3c-1.8,5.4-2.7,10.6-2.7,15.3c0,16.3,10.4,27.5,29.8,27.5l31.8,0
	c2.9,0,3.5-1,4.3-3.3l8.7-25.8c0.2-0.5,0.3-1.1,0.3-1.5c0-1.4-1.1-2.1-2.8-2.1L753.9,124.7z"/>
<path fill="#0364B0" d="M346.1,30.5c-0.2,0.7-0.4,1.1-0.4,1.6c0,1.2,1,2.2,2.3,2.2l38,0c2.9,0,3.6-1.5,4.4-3.2L399,5.3
	c0.2-0.6,0.4-1.3,0.4-1.9c0-1.6-1-2.4-3-2.4l-37.1,0c-2.9,0-3.7,1.4-4.4,3.2L346.1,30.5z"/>
<path fill="#0364B0" d="M343.4,50.2c-3,0-4.3,1.2-5.3,4l-33.3,99c-0.3,0.7-0.4,1.1-0.4,1.5c0,1.1,0.7,2.3,2.3,2.3l38,0
	c2.9,0,3.6-1.5,4.3-3.3l33.5-99.5c0.2-0.6,0.4-1.1,0.4-1.7c0-1.3-0.7-2.3-2.5-2.3L343.4,50.2z"/>
<path fill="#0364B0" d="M277.8,50.2c-1.9,0-2.5,1-2.9,2.1l-23.6,70l-19.1,0l22.9-68c0.3-0.7,0.5-1.4,0.5-1.8c0-1.2-0.9-2.3-2.2-2.3
	l-27.4,0c-1.9,0-2.5,1-2.9,2.1l-23.5,70l-12,0c-3.3,0-4.9-1.9-4.9-4.6c0-0.9,0.2-1.9,0.6-3l20.2-60.1c0.1-0.2,0.6-1.6,0.6-2.2
	c0-1.3-1.1-2.2-2.4-2.2l-34.8,0c-1.8,0-2.7,0.9-3.2,2.5l-18.9,56.6c-2,6.2-3.1,12-3.1,16.4c0,15.2,12,31.3,31.9,31.3l104.8,0.1
	c2.6,0,3.8-1.9,4.4-3.7l33.4-99.1c0.2-0.6,0.4-1.1,0.4-1.7c0-1.3-0.7-2.3-2.5-2.3L277.8,50.2z"/>
<path fill="#0364B0" d="M55.4,0.7c-2.7,0-4,1.1-4.9,3.9L0.4,152.8C0.2,153.3,0,154,0,154.5c0,1.3,0.8,2.3,2.4,2.3l38.5,0
	c2.5,0,3.6-1.5,4.4-3l19.4-59.7l36.4,80.8c0.6,1.7,2.5,2.9,4.6,2.9l39.5,0c1.3,0,2-1.1,2-1.9c0-0.3,0-0.7-0.4-1.6l-42.2-89.6
	l78.8-79.1c0.7-0.8,1-1.6,1-2.5c0-1.3-0.8-2.2-2.5-2.2l-43,0c-2.9,0-3.7,0.3-5.7,2.5L73,67.2l21.8-62c0.3-0.7,0.6-1.6,0.6-2.2
	c0-1.3-1.1-2.2-2.4-2.2L55.4,0.7"/>
</svg>
