<?xml version="1.0" encoding="UTF-8" standalone="no"?>
<svg
   xmlns:dc="http://purl.org/dc/elements/1.1/"
   xmlns:cc="http://creativecommons.org/ns#"
   xmlns:rdf="http://www.w3.org/1999/02/22-rdf-syntax-ns#"
   xmlns:svg="http://www.w3.org/2000/svg"
   xmlns="http://www.w3.org/2000/svg"
   xmlns:sodipodi="http://sodipodi.sourceforge.net/DTD/sodipodi-0.dtd"
   xmlns:inkscape="http://www.inkscape.org/namespaces/inkscape"
   class="sc-pjTqr leQSFC header-logo"
   version="1.1"
   id="Calque_1"
   x="0px"
   y="0px"
   viewBox="0 0 700 700"
   xml:space="preserve"
   sodipodi:docname="rolex-logo.svg"
   width="700"
   height="700"
   inkscape:export-filename="C:\Users\suitedoalex\sites\rolex-logo-0.png"
   inkscape:export-xdpi="561.73999"
   inkscape:export-ydpi="561.73999"
   inkscape:version="0.92.4 (5da689c313, 2019-01-14)"><metadata
     id="metadata19"><rdf:RDF><cc:Work
         rdf:about=""><dc:format>image/svg+xml</dc:format><dc:type
           rdf:resource="http://purl.org/dc/dcmitype/StillImage" /><dc:title></dc:title></cc:Work></rdf:RDF></metadata><defs
     id="defs17" /><sodipodi:namedview
     pagecolor="#ffffff"
     bordercolor="#666666"
     borderopacity="1"
     objecttolerance="10"
     gridtolerance="10"
     guidetolerance="10"
     inkscape:pageopacity="0"
     inkscape:pageshadow="2"
     inkscape:window-width="1600"
     inkscape:window-height="837"
     id="namedview15"
     showgrid="false"
     inkscape:zoom="0.25"
     inkscape:cx="887.59359"
     inkscape:cy="751.18868"
     inkscape:window-x="-8"
     inkscape:window-y="-8"
     inkscape:window-maximized="1"
     inkscape:current-layer="Calque_1" /><path
     class="st0"
     d="m 288.98827,259.35399 c 0.99611,0 1.49416,0 1.99222,-0.49804 l 25.89885,86.66156 v 0 c 2.98833,9.46303 16.93387,16.93387 33.86774,16.93387 16.93387,0 30.87941,-7.47083 33.86774,-16.93387 v 0 l 25.4008,-86.66156 c 0.49806,0 1.49417,0 1.99222,0 4.98055,0 8.96499,-3.98444 8.96499,-8.96499 0,-4.98055 -3.98444,-8.96499 -8.96499,-8.96499 -4.98055,0 -8.96499,3.98444 -8.96499,8.96499 0,3.48638 1.99222,6.47471 4.98055,7.96888 l -29.38524,63.25297 4.98055,-85.16739 c 0,0 0,0 0,0 4.98055,0 8.96499,-3.98444 8.96499,-8.96499 0,-4.98055 -3.98444,-8.96499 -8.96499,-8.96499 -4.98055,0 -8.96499,3.98444 -8.96499,8.96499 0,3.98444 2.98833,7.47082 6.47471,8.46693 l -19.42414,83.17518 -9.9611,-91.14406 c 4.4825,-0.49804 7.47083,-4.48248 7.47083,-8.96498 0,-4.98055 -3.98444,-8.96499 -8.96499,-8.96499 -4.98055,0 -8.96499,3.98444 -8.96499,8.96499 0,4.48249 3.48638,8.46693 7.47082,8.96498 l -9.46304,91.64212 -18.92609,-83.17518 c 3.98444,-0.99611 6.47471,-4.4825 6.47471,-8.46694 0,-4.98054 -3.98444,-8.96498 -8.96499,-8.96498 -4.98055,0 -8.96498,3.98444 -8.96498,8.96498 0,4.98055 3.98443,8.96499 8.96498,8.96499 0,0 0,0 0,0 l 4.98055,85.1674 -29.38524,-63.25298 c 2.98833,-1.49416 4.98055,-4.48248 4.98055,-7.96888 0,-4.98055 -3.98444,-8.96499 -8.96499,-8.96499 -4.98055,0 -8.96499,3.98444 -8.96499,8.96499 -0.49805,4.98055 3.48639,8.96499 8.46694,8.96498 z m 61.75881,78.69268 c 15.4397,0 27.89108,3.98444 27.89108,8.96499 0,4.98055 -12.45138,8.96499 -27.89108,8.96499 -15.4397,0 -27.89108,-3.98444 -27.89108,-8.96499 -0.49805,-4.98055 12.45138,-8.96499 27.89108,-8.96499 z"
     id="path2"
     inkscape:connector-curvature="0"
     style="fill:#a37e2c;fill-opacity:1;stroke-width:4.98054934" /><path
     class="st1"
     d="m 251.63415,398.80938 c -25.89886,0 -46.31912,20.91831 -46.31912,45.82105 0,24.90275 20.91831,45.82106 46.31912,45.82106 25.89885,0 46.31911,-20.91831 46.31911,-45.82106 0,-24.90274 -20.42026,-45.82105 -46.31911,-45.82105 z m 19.42414,72.21797 c -1.49417,1.99222 -3.48639,3.98444 -5.47861,5.4786 -3.48638,2.49028 -7.47082,4.4825 -11.45526,4.4825 -0.99611,0 -1.49416,0 -2.49027,0 -0.99611,0 -1.49417,0 -2.49028,0 -3.98444,0 -7.96888,-1.99221 -11.45526,-4.4825 -1.99222,-1.49416 -3.98444,-3.48638 -5.47861,-5.4786 -4.98055,-6.47472 -7.96888,-15.93776 -7.96888,-26.39692 0,-9.96109 2.49028,-18.42803 6.97277,-25.4008 2.49028,-4.48249 5.97666,-7.96888 10.95721,-9.9611 0,0 0,0 0,0 0,0 0.49806,0 0.49806,-0.49805 0.49805,-0.49806 0.99611,-0.49806 1.99222,-0.49806 1.99222,-0.49805 4.48249,-0.99611 6.47471,-0.99611 2.49028,0 4.4825,0.49806 6.47471,0.99611 0.49806,0 1.49417,0.49806 1.99222,0.49806 0,0 0.49806,0 0.49806,0.49805 0,0 0,0 0,0 4.48249,1.99222 8.46693,5.47861 10.95721,9.9611 4.48249,6.47472 6.97277,15.43971 6.97277,25.4008 0.99611,10.45916 -1.99222,19.9222 -6.97277,26.39692 z"
     id="path4"
     inkscape:connector-curvature="0"
     style="fill:#006039;fill-opacity:1;stroke-width:4.98054934" /><path
     class="st1"
     d="m 390.09342,454.09348 h -6.47471 v 12.94943 c 0,7.96888 -6.47472,13.94554 -14.4436,13.94554 0,0 0,0 0,0 v 0 h -19.92219 -7.47083 v -72.71603 h 12.45138 v -6.47471 h -12.45138 v 0 h -1.49416 -30.87941 v 6.47471 h 12.45137 v 72.71603 h -12.45137 v 6.47471 h 74.21019 5.4786 0.49806 0.49805 v 0 0 -20.91831 0 z"
     id="path6"
     inkscape:connector-curvature="0"
     style="fill:#006039;fill-opacity:1;stroke-width:4.98054934" /><path
     class="st1"
     d="m 488.7083,402.29576 v 0 h -0.49805 -19.9222 -64.24909 v 6.47472 h 12.45138 v 72.71602 h -12.45138 v 6.47472 0 h 64.24909 14.44359 5.47861 0.49805 v 0 h 0.49806 v -20.91831 -9.46305 h -6.47472 v 9.9611 0 c 0,7.96888 -6.47471,13.94554 -14.44359,13.94554 0,0 0,0 0,0 v 0 h -22.91053 v 0 h -8.96499 -0.49805 v -34.86385 -1.49416 h 6.47471 c 0,0 0,0 0,0 h 3.98444 v 0 c 5.97666,0 10.45916,4.98055 10.45916,10.45915 0,0 0,0 0,0 v 0 3.48639 0 1.49416 h 5.97666 v -0.49805 -14.94165 0 -5.47861 0 -14.44359 -0.49805 h -5.97666 v 3.98444 0 c 0,0 0,0 0,0 0,5.97666 -4.4825,9.96109 -10.45916,9.96109 v 0 h -3.98444 -3.98444 -2.49027 v -30.87939 h 0.49805 18.42804 c 0,0 0,0 0.49805,0 h 12.94943 c 7.96888,0 13.94554,6.47471 14.44359,13.94554 v 0 8.96499 h 6.47472 v -8.46695 z"
     id="path8"
     inkscape:connector-curvature="0"
     style="fill:#006039;fill-opacity:1;stroke-width:4.98054934" /><path
     class="st1"
     d="m 599.77456,481.4865 c -5.97666,0 -7.47083,-1.99222 -12.45138,-7.47082 l -28.38913,-35.36191 18.92609,-22.41247 v 0 c 4.98055,-5.97666 6.47471,-7.96888 12.94943,-7.96888 h 3.98444 0.99611 v -6.47471 h -0.99611 -18.92609 -0.99611 -13.44748 -0.49806 v 6.47471 h 0.99611 6.97277 v 0 c 0,0 0,0 0,0 1.49417,0 2.98833,1.49417 2.98833,2.98833 0,0.49806 0,0.99611 -0.49805,1.49417 l -16.43582,19.9222 -13.94554,-15.93776 -2.49027,-3.48639 c -0.49806,-0.49805 -0.49806,-0.99611 -0.49806,-1.99222 0,-1.49416 1.49417,-2.98833 2.98833,-2.98833 h 7.47083 v -6.47471 h -13.44749 -19.42414 -10.45915 v 6.47471 h 1.99222 c 5.4786,0.49806 6.97277,1.99222 11.45526,6.97277 l 24.90275,31.37746 -22.41247,26.89497 v 0 c -4.98055,5.97666 -6.47472,7.96888 -12.94943,7.96888 h -3.98444 -1.49417 v 6.47473 h 1.49417 21.41636 1.49416 11.45527 1.49416 v -6.47473 h -1.49416 -7.96888 v 0 c 0,0 0,0 0,0 -1.49417,0 -2.98833,-1.49416 -2.98833,-2.98833 0,-0.49805 0.49805,-1.49416 0.49805,-1.99222 l 19.9222,-23.90664 16.43582,20.91831 2.49027,2.98833 c 0.49806,0.49806 0.49806,0.99612 0.49806,1.99222 0,1.49417 -1.49417,2.98833 -2.98833,2.98833 0,0 0,0 0,0 v 0 h -7.96888 v 6.47473 0 0 h 46.31911 v -6.47473 z"
     id="path10"
     inkscape:connector-curvature="0"
     style="fill:#006039;fill-opacity:1;stroke-width:4.98054934" /><path
     class="st1"
     d="m 190.37339,480.98845 -5.47861,-16.43582 c -2.49027,-7.47082 -4.48249,-10.45915 -8.46693,-14.44358 -2.49028,-2.49028 -6.47472,-3.4864 -9.46305,-4.4825 10.45916,-1.49417 18.42804,-10.9572 18.42804,-21.91441 0,-11.95331 -9.9611,-21.91441 -21.91442,-21.91441 0,0 -0.49806,0 -0.49806,0 v 0 h -33.36968 -19.9222 -11.953315 v 6.4747 h 11.953315 v 72.71604 H 97.23711 v 6.4747 h 31.87552 v 0 H 141.564 v -6.4747 h -11.95332 v -34.86385 h 9.46305 c 0.49805,0 0.49805,0 0.99611,0 h 1.99222 c 2.98833,0 5.4786,0.49805 7.96888,0.99611 1.99222,0.49805 4.48249,1.49416 5.97665,2.49027 1.99222,1.49417 4.4825,3.48639 6.47472,6.47472 0.49805,0.99611 0.99611,1.99222 1.49416,2.49027 3.48639,6.97277 5.97666,16.43582 8.46694,28.38914 h 14.94165 v 0 h 13.44748 v -6.47473 z m -39.8444,-41.33857 h -20.91831 v -31.37746 h 20.91831 c 8.96499,0.49806 15.93776,6.47472 15.93776,15.43971 0,8.96499 -6.97277,15.4397 -15.93776,15.93775 z"
     id="path12"
     inkscape:connector-curvature="0"
     style="fill:#006039;fill-opacity:1;stroke-width:4.98054934" /></svg>