<svg width="96" height="96" viewBox="0 0 96 96" fill="none" xmlns="http://www.w3.org/2000/svg">
<mask id="mask0_112_3989" style="mask-type:alpha" maskUnits="userSpaceOnUse" x="10" y="10" width="76" height="76">
<path fill-rule="evenodd" clip-rule="evenodd" d="M86 10H10V86H86V10ZM84.4167 45.625H11.5833V64.625H84.4167V45.625Z" fill="#FF0000"/>
</mask>
<g mask="url(#mask0_112_3989)">
<path d="M36.793 34.7H25.0417V68.7812H36.793V34.7Z" fill="white"/>
<path d="M59.3556 81.25C65.3264 81.25 70.1668 76.9701 70.1668 71.6906V38.025H67.3465V71.6906C67.3465 75.5929 63.7688 78.7562 59.3556 78.7562H29.4681C31.2573 80.3241 33.4647 81.25 35.853 81.25H59.3556Z" fill="white"/>
<path d="M27.9104 77.0937H58.4154C62.3095 77.0937 65.4662 74.3025 65.4662 70.8594V22.6469H62.6459V70.8594C62.6459 72.9253 60.7518 74.6 58.4154 74.6H26.3992C26.8196 75.5033 27.3279 76.3401 27.9104 77.0937Z" fill="white"/>
<path d="M25.7506 72.9375H57.4754C59.2926 72.9375 60.7658 71.6349 60.7658 70.0281V32.6219H57.9455V70.0281C57.9455 70.2577 57.735 70.4437 57.4754 70.4437H25.1864C25.3055 71.3068 25.496 72.1411 25.7506 72.9375Z" fill="white"/>
<rect x="62.6459" y="20.9844" width="6.23438" height="2.82031" transform="rotate(-90 62.6459 20.9844)" fill="white"/>
<rect x="67.3464" y="36.3625" width="6.23437" height="2.82031" transform="rotate(-90 67.3464 36.3625)" fill="white"/>
<rect x="57.9454" y="30.9594" width="6.23438" height="2.82031" transform="rotate(-90 57.9454 30.9594)" fill="white"/>
</g>
<path d="M29.713 62.25V48H45.5976C47.6278 48 49.1003 48.5225 50.015 49.5675C50.9074 50.6125 51.3759 52.0375 51.3759 53.8188V62.25H47.137V53.7C47.137 52.9875 47.0032 52.465 46.7801 52.1563C46.557 51.8475 46.1108 51.6812 45.4638 51.6812H42.6527V62.25H38.4139V51.6812H33.9519V62.25H29.713Z" fill="white"/>
<path d="M61.466 57.2625L57.7941 56.5025C56.4424 56.2175 55.4062 55.7188 54.6854 55.0063C53.9645 54.2938 53.6266 53.3437 53.6266 52.1563C53.6266 51.61 53.7167 51.0875 53.9194 50.565C54.1222 50.0663 54.4376 49.615 54.8656 49.235C55.2936 48.855 55.8342 48.57 56.51 48.3325C57.1858 48.1187 57.9743 48 58.8979 48H66.2867V51.4438H58.56C58.1094 51.4438 57.7941 51.515 57.6589 51.6575C57.5012 51.8 57.4336 51.9663 57.4336 52.1325C57.4336 52.3225 57.5012 52.4888 57.6364 52.6312C57.7715 52.7738 57.9968 52.8925 58.3347 52.94L61.6687 53.6288C63.3132 53.985 64.4846 54.5075 65.2054 55.1962C65.9263 55.885 66.2867 56.7875 66.2867 57.9275C66.2867 59.21 65.8137 60.255 64.89 61.0625C63.9664 61.87 62.5698 62.25 60.7 62.25H53.6266V58.8062H61.4209C61.894 58.8062 62.2093 58.735 62.3445 58.5925C62.4797 58.45 62.5698 58.2837 62.5698 58.0463C62.5698 57.8087 62.4571 57.6425 62.2544 57.5237C62.0517 57.4287 61.7813 57.3338 61.466 57.2625Z" fill="white"/>
<path d="M27.4624 54.5312V62.25H18.1656C16.8084 62.25 15.7679 61.9412 15.044 61.3237C14.3202 60.7062 13.9583 59.8988 13.9583 58.9013C13.9583 57.8088 14.2976 56.9538 15.0214 56.2888C15.7226 55.6238 16.5822 54.935 17.5775 54.2225L21.4228 51.4438H13.9583V48H20.224C22.8027 48 24.6575 48.5937 25.7885 49.7338C26.8969 50.8737 27.4624 52.4888 27.4624 54.5312ZM19.387 58.8062H23.3908V54.08L19.2966 57.4288C19.0251 57.6425 18.8442 57.8088 18.7537 57.9038C18.6406 57.9988 18.5953 58.1412 18.5953 58.2837C18.5953 58.4737 18.6406 58.5925 18.7763 58.6875C18.8894 58.7825 19.093 58.8062 19.387 58.8062Z" fill="white"/>
<path d="M74.065 62.25H76.5141C78.4676 62.25 79.8661 61.7275 80.7319 60.6825C81.6198 59.6375 82.0416 58.2362 82.0416 56.4313V48H77.8238V56.55C77.8238 57.2862 77.7128 57.8087 77.4908 58.1175C77.2689 58.4262 76.8249 58.5688 76.1589 58.5688H74.4202C73.7542 58.5688 73.3102 58.4262 73.0882 58.1175C72.8662 57.8087 72.7553 57.2862 72.7553 56.55V48H68.5375V56.4313C68.5375 58.2362 68.9593 59.6375 69.8472 60.6825C70.713 61.7275 72.1115 62.25 74.065 62.25Z" fill="white"/>
</svg>
