<svg width="96" height="96" viewBox="0 0 96 96" fill="none" xmlns="http://www.w3.org/2000/svg">
<rect width="96" height="96" fill="#1A1A1A"/>
<mask id="mask0_112_4196" style="mask-type:alpha" maskUnits="userSpaceOnUse" x="10" y="10" width="76" height="76">
<path fill-rule="evenodd" clip-rule="evenodd" d="M86 10H10V86H86V10ZM84.4167 38.5H11.5833V57.5H84.4167V38.5Z" fill="#FF0000"/>
</mask>
<g mask="url(#mask0_112_4196)">
<path d="M35.8612 25.0417H22.6667V59.875H35.8612V25.0417Z" fill="#D20000"/>
<path d="M61.1945 75.7083C67.8987 75.7083 73.3334 70.2735 73.3334 63.5694V35.0694H70.1668V63.5694C70.1668 68.5246 66.1498 72.5416 61.1945 72.5416H27.6367C29.6456 74.5326 32.1241 75.7083 34.8057 75.7083H61.1945Z" fill="#D20000"/>
<path d="M25.8877 70.4305H60.139C64.5112 70.4305 68.0556 66.8861 68.0556 62.5139V35.0694H64.889V62.5139C64.889 65.1372 62.7623 67.2639 60.139 67.2639H24.1909C24.6629 68.4109 25.2337 69.4735 25.8877 70.4305Z" fill="#D20000"/>
<path d="M23.4626 65.1528H59.0834C61.1238 65.1528 62.7779 63.4987 62.7779 61.4583V35.0694H59.6112V61.4583C59.6112 61.7498 59.3749 61.9861 59.0834 61.9861H22.8291C22.9628 63.0821 23.1768 64.1414 23.4626 65.1528Z" fill="#D20000"/>
<rect x="64.8889" y="32.9583" width="7.91667" height="3.16666" transform="rotate(-90 64.8889 32.9583)" fill="#D20000"/>
<rect x="70.1667" y="32.9583" width="7.91667" height="3.16667" transform="rotate(-90 70.1667 32.9583)" fill="#D20000"/>
<rect x="59.6111" y="32.9583" width="7.91667" height="3.16667" transform="rotate(-90 59.6111 32.9583)" fill="#D20000"/>
</g>
<path d="M29.713 55.125V40.875H45.5976C47.6278 40.875 49.1003 41.3975 50.015 42.4425C50.9074 43.4875 51.3759 44.9125 51.3759 46.6938V55.125H47.137V46.575C47.137 45.8625 47.0032 45.34 46.7801 45.0313C46.557 44.7225 46.1108 44.5562 45.4638 44.5562H42.6527V55.125H38.4139V44.5562H33.9519V55.125H29.713Z" fill="#D20000"/>
<path d="M61.4661 50.1375L57.7942 49.3775C56.4426 49.0925 55.4063 48.5938 54.6855 47.8813C53.9646 47.1688 53.6267 46.2187 53.6267 45.0313C53.6267 44.485 53.7168 43.9625 53.9196 43.44C54.1223 42.9413 54.4377 42.49 54.8657 42.11C55.2937 41.73 55.8343 41.445 56.5102 41.2075C57.186 40.9937 57.9744 40.875 58.898 40.875H66.2868V44.3188H58.5601C58.1096 44.3188 57.7942 44.39 57.659 44.5325C57.5013 44.675 57.4338 44.8413 57.4338 45.0075C57.4338 45.1975 57.5013 45.3638 57.6365 45.5062C57.7717 45.6488 57.9969 45.7675 58.3348 45.815L61.6688 46.5038C63.3133 46.86 64.4847 47.3825 65.2055 48.0712C65.9264 48.76 66.2868 49.6625 66.2868 50.8025C66.2868 52.085 65.8138 53.13 64.8902 53.9375C63.9666 54.745 62.5699 55.125 60.7002 55.125H53.6267V51.6812H61.421C61.8941 51.6812 62.2095 51.61 62.3446 51.4675C62.4798 51.325 62.5699 51.1587 62.5699 50.9213C62.5699 50.6837 62.4573 50.5175 62.2545 50.3987C62.0518 50.3037 61.7815 50.2088 61.4661 50.1375Z" fill="#D20000"/>
<path d="M27.4624 47.4062V55.125H18.1656C16.8084 55.125 15.7679 54.8162 15.044 54.1987C14.3202 53.5812 13.9583 52.7738 13.9583 51.7763C13.9583 50.6838 14.2976 49.8288 15.0214 49.1638C15.7226 48.4988 16.5822 47.81 17.5775 47.0975L21.4228 44.3188H13.9583V40.875H20.224C22.8027 40.875 24.6575 41.4687 25.7885 42.6088C26.8969 43.7487 27.4624 45.3638 27.4624 47.4062ZM19.387 51.6812H23.3908V46.955L19.2966 50.3038C19.0251 50.5175 18.8442 50.6838 18.7537 50.7788C18.6406 50.8738 18.5953 51.0162 18.5953 51.1587C18.5953 51.3487 18.6406 51.4675 18.7763 51.5625C18.8894 51.6575 19.093 51.6812 19.387 51.6812Z" fill="#D20000"/>
<path d="M74.0649 55.125H76.514C78.4675 55.125 79.866 54.6025 80.7318 53.5575C81.6197 52.5125 82.0415 51.1112 82.0415 49.3063V40.875H77.8237V49.425C77.8237 50.1612 77.7127 50.6837 77.4907 50.9925C77.2687 51.3012 76.8248 51.4438 76.1588 51.4438H74.42C73.7541 51.4438 73.3101 51.3012 73.0881 50.9925C72.8661 50.6837 72.7551 50.1612 72.7551 49.425V40.875H68.5374V49.3063C68.5374 51.1112 68.9591 52.5125 69.8471 53.5575C70.7128 54.6025 72.1114 55.125 74.0649 55.125Z" fill="#D20000"/>
</svg>
