<svg width="96" height="96" viewBox="0 0 96 96" fill="none" xmlns="http://www.w3.org/2000/svg">
<rect width="96" height="96" fill="#1A1A1A"/>
<mask id="mask0_112_4201" style="mask-type:alpha" maskUnits="userSpaceOnUse" x="10" y="10" width="76" height="76">
<path fill-rule="evenodd" clip-rule="evenodd" d="M86 10H10V86H86V10ZM84.4167 45.625H11.5833V64.625H84.4167V45.625Z" fill="#FF0000"/>
</mask>
<g mask="url(#mask0_112_4201)">
<path d="M36.793 34.7H25.0417V68.7813H36.793V34.7Z" fill="#D20000"/>
<path d="M59.3555 81.25C65.3263 81.25 70.1667 76.9701 70.1667 71.6906V38.025H67.3463V71.6906C67.3463 75.5929 63.7687 78.7563 59.3555 78.7563H29.468C31.2571 80.3242 33.4646 81.25 35.8529 81.25H59.3555Z" fill="white"/>
<path d="M27.9104 77.0937H58.4154C62.3095 77.0937 65.4662 74.3025 65.4662 70.8594V22.6469H62.6459V70.8594C62.6459 72.9252 60.7518 74.6 58.4154 74.6H26.3992C26.8196 75.5033 27.3279 76.34 27.9104 77.0937Z" fill="white"/>
<path d="M25.7505 72.9375H57.4753C59.2925 72.9375 60.7656 71.6349 60.7656 70.0281V32.6219H57.9453V70.0281C57.9453 70.2577 57.7349 70.4438 57.4753 70.4438H25.1863C25.3053 71.3068 25.4959 72.1411 25.7505 72.9375Z" fill="white"/>
<rect x="62.646" y="20.9844" width="6.23438" height="2.82031" transform="rotate(-90 62.646 20.9844)" fill="white"/>
<rect x="67.3464" y="36.3625" width="6.23437" height="2.82031" transform="rotate(-90 67.3464 36.3625)" fill="white"/>
<rect x="57.9453" y="30.9594" width="6.23438" height="2.82031" transform="rotate(-90 57.9453 30.9594)" fill="white"/>
</g>
<path d="M29.7131 62.25V48H45.5978C47.628 48 49.1004 48.5225 50.0151 49.5675C50.9075 50.6125 51.376 52.0375 51.376 53.8188V62.25H47.1371V53.7C47.1371 52.9875 47.0033 52.465 46.7802 52.1563C46.5571 51.8475 46.1109 51.6812 45.4639 51.6812H42.6529V62.25H38.414V51.6812H33.952V62.25H29.7131Z" fill="white"/>
<path d="M61.4661 57.2625L57.7942 56.5025C56.4426 56.2175 55.4063 55.7188 54.6855 55.0063C53.9646 54.2938 53.6267 53.3437 53.6267 52.1563C53.6267 51.61 53.7168 51.0875 53.9196 50.565C54.1223 50.0663 54.4377 49.615 54.8657 49.235C55.2937 48.855 55.8343 48.57 56.5102 48.3325C57.186 48.1187 57.9744 48 58.898 48H66.2868V51.4438H58.5601C58.1096 51.4438 57.7942 51.515 57.659 51.6575C57.5013 51.8 57.4338 51.9663 57.4338 52.1325C57.4338 52.3225 57.5013 52.4888 57.6365 52.6312C57.7717 52.7738 57.9969 52.8925 58.3348 52.94L61.6688 53.6288C63.3133 53.985 64.4847 54.5075 65.2055 55.1962C65.9264 55.885 66.2868 56.7875 66.2868 57.9275C66.2868 59.21 65.8138 60.255 64.8902 61.0625C63.9666 61.87 62.5699 62.25 60.7002 62.25H53.6267V58.8062H61.421C61.8941 58.8062 62.2095 58.735 62.3446 58.5925C62.4798 58.45 62.5699 58.2837 62.5699 58.0463C62.5699 57.8087 62.4573 57.6425 62.2545 57.5237C62.0518 57.4287 61.7815 57.3338 61.4661 57.2625Z" fill="white"/>
<path d="M27.4624 54.5312V62.25H18.1656C16.8084 62.25 15.7679 61.9412 15.044 61.3237C14.3202 60.7062 13.9583 59.8988 13.9583 58.9013C13.9583 57.8088 14.2976 56.9538 15.0214 56.2888C15.7226 55.6238 16.5822 54.935 17.5775 54.2225L21.4228 51.4438H13.9583V48H20.224C22.8027 48 24.6575 48.5937 25.7885 49.7338C26.8969 50.8737 27.4624 52.4888 27.4624 54.5312ZM19.387 58.8062H23.3908V54.08L19.2966 57.4288C19.0251 57.6425 18.8442 57.8088 18.7537 57.9038C18.6406 57.9988 18.5953 58.1412 18.5953 58.2837C18.5953 58.4737 18.6406 58.5925 18.7763 58.6875C18.8894 58.7825 19.093 58.8062 19.387 58.8062Z" fill="white"/>
<path d="M74.0649 62.25H76.514C78.4675 62.25 79.866 61.7275 80.7318 60.6825C81.6197 59.6375 82.0415 58.2362 82.0415 56.4313V48H77.8237V56.55C77.8237 57.2862 77.7127 57.8087 77.4907 58.1175C77.2687 58.4262 76.8248 58.5688 76.1588 58.5688H74.42C73.7541 58.5688 73.3101 58.4262 73.0881 58.1175C72.8661 57.8087 72.7551 57.2862 72.7551 56.55V48H68.5374V56.4313C68.5374 58.2362 68.9591 59.6375 69.8471 60.6825C70.7128 61.7275 72.1114 62.25 74.0649 62.25Z" fill="white"/>
</svg>
