<svg width="96" height="96" viewBox="0 0 96 96" fill="none" xmlns="http://www.w3.org/2000/svg">
<g clip-path="url(#clip0_111_6564)">
<mask id="mask0_111_6564" style="mask-type:alpha" maskUnits="userSpaceOnUse" x="0" y="0" width="96" height="96">
<path fill-rule="evenodd" clip-rule="evenodd" d="M96 0H0V96H96V0ZM94 36H2V60H94V36Z" fill="#FF0000"/>
</mask>
<g mask="url(#mask0_111_6564)">
<path d="M32.6667 19H16V63H32.6667V19Z" fill="black"/>
<path d="M64.6667 83C73.135 83 80 76.135 80 67.6667V31.6667H76V67.6667C76 73.9259 70.9259 79 64.6667 79H22.2778C24.8153 81.5149 27.9461 83 31.3333 83H64.6667Z" fill="black"/>
<path d="M20.0685 76.3333H63.3333C68.8562 76.3333 73.3333 71.8562 73.3333 66.3333V31.6667H69.3333V66.3333C69.3333 69.647 66.647 72.3333 63.3333 72.3333H17.9252C18.5215 73.7822 19.2425 75.1244 20.0685 76.3333Z" fill="black"/>
<path d="M17.0053 69.6667H62C64.5773 69.6667 66.6667 67.5773 66.6667 65V31.6667H62.6667V65C62.6667 65.3682 62.3682 65.6667 62 65.6667H16.2051C16.3739 67.0511 16.6442 68.3892 17.0053 69.6667Z" fill="black"/>
<rect x="69.3333" y="29" width="10" height="4" transform="rotate(-90 69.3333 29)" fill="black"/>
<rect x="76" y="29" width="10" height="4" transform="rotate(-90 76 29)" fill="black"/>
<rect x="62.6667" y="29" width="10" height="4" transform="rotate(-90 62.6667 29)" fill="black"/>
</g>
<path d="M24.9008 57V39H44.9656C47.5301 39 49.39 39.66 50.5454 40.98C51.6727 42.3 52.2645 44.1 52.2645 46.35V57H46.9101V46.2C46.9101 45.3 46.741 44.64 46.4592 44.25C46.1774 43.86 45.6138 43.65 44.7965 43.65H41.2457V57H35.8914V43.65H30.2552V57H24.9008Z" fill="black"/>
<path d="M65.0098 50.7L60.3716 49.74C58.6643 49.38 57.3554 48.75 56.4448 47.85C55.5343 46.95 55.1074 45.75 55.1074 44.25C55.1074 43.56 55.2213 42.9 55.4774 42.24C55.7334 41.61 56.1318 41.04 56.6725 40.56C57.2131 40.08 57.896 39.72 58.7497 39.42C59.6033 39.15 60.5993 39 61.7659 39H71.0992V43.35H61.3391C60.77 43.35 60.3716 43.44 60.2009 43.62C60.0017 43.8 59.9163 44.01 59.9163 44.22C59.9163 44.46 60.0017 44.67 60.1724 44.85C60.3432 45.03 60.6277 45.18 61.0545 45.24L65.2659 46.11C67.3431 46.56 68.8228 47.22 69.7333 48.09C70.6439 48.96 71.0992 50.1 71.0992 51.54C71.0992 53.16 70.5016 54.48 69.335 55.5C68.1683 56.52 66.4041 57 64.0423 57H55.1074V52.65H64.9529C65.5504 52.65 65.9488 52.56 66.1195 52.38C66.2903 52.2 66.4041 51.99 66.4041 51.69C66.4041 51.39 66.2618 51.18 66.0057 51.03C65.7496 50.91 65.4082 50.79 65.0098 50.7Z" fill="black"/>
<path d="M22.0579 47.25V57H10.3145C8.60015 57 7.28581 56.61 6.37149 55.83C5.45716 55.05 5 54.03 5 52.77C5 51.39 5.42859 50.31 6.34291 49.47C7.22866 48.63 8.31442 47.76 9.57162 46.86L14.429 43.35H5V39H12.9146C16.1719 39 18.5148 39.75 19.9435 41.19C21.3435 42.63 22.0579 44.67 22.0579 47.25ZM11.8574 52.65H16.9148V46.68L11.7431 50.91C11.4003 51.18 11.1717 51.39 11.0574 51.51C10.9145 51.63 10.8574 51.81 10.8574 51.99C10.8574 52.23 10.9145 52.38 11.086 52.5C11.2288 52.62 11.486 52.65 11.8574 52.65Z" fill="black"/>
<path d="M80.9243 57H84.0179C86.4855 57 88.252 56.34 89.3456 55.02C90.4672 53.7 91 51.93 91 49.65V39H85.6723V49.8C85.6723 50.73 85.5321 51.39 85.2517 51.78C84.9713 52.17 84.4104 52.35 83.5692 52.35H81.3729C80.5317 52.35 79.9709 52.17 79.6905 51.78C79.4101 51.39 79.2699 50.73 79.2699 49.8V39H73.9421V49.65C73.9421 51.93 74.4749 53.7 75.5965 55.02C76.6901 56.34 78.4567 57 80.9243 57Z" fill="black"/>
</g>
<defs>
<clipPath id="clip0_111_6564">
<rect width="96" height="96" fill="white"/>
</clipPath>
</defs>
</svg>
