<svg width="500" height="98" viewBox="0 0 500 98" fill="none" xmlns="http://www.w3.org/2000/svg">
<g clip-path="url(#clip0_111_1479)">
<path d="M400 1H375V67H400V1Z" fill="#D20000"/>
<path d="M465 74C465 83.3888 457.389 91 448 91H384.417C388.223 94.7724 392.919 97 398 97H448C460.702 97 471 86.7025 471 74V37.527L486.529 19.3444L481.967 15.4478L465 35.3134L465 74Z" fill="#D20000"/>
<path d="M381.103 87H446C454.284 87 461 80.2843 461 72V32.8436L472.529 19.3444L467.967 15.4478L455 30.63L455 72C455 76.9706 450.97 81 446 81H377.888C378.782 83.1734 379.864 85.1866 381.103 87Z" fill="#D20000"/>
<path d="M444 77H376.508C375.966 75.0838 375.561 73.0766 375.308 71H444C444.552 71 445 70.5523 445 70L445 25.9466L453.967 15.4478L458.529 19.3444L451 28.1602V70C451 73.866 447.866 77 444 77Z" fill="#D20000"/>
<path d="M494.306 1L484.564 12.4061L489.127 16.3028L498.869 4.89669L494.306 1Z" fill="white"/>
<path d="M480.306 1L470.564 12.4061L475.127 16.3028L484.868 4.89669L480.306 1Z" fill="white"/>
<path d="M466.306 1L456.564 12.4061L461.127 16.3028L470.868 4.89669L466.306 1Z" fill="white"/>
</g>
<path d="M122 91H97L97 97H122V91Z" fill="#D20000"/>
<path d="M130 91H156V97H130V91Z" fill="#D20000"/>
<path d="M189 91V97H215V91H189Z" fill="#D20000"/>
<path d="M248.377 91V97H329.872C336.016 97 341.52 96.232 346.128 94.696C349.159 93.6856 351.858 92.4536 354.225 91H248.377Z" fill="#D20000"/>
<path d="M122 81H97V87H122V81Z" fill="#D20000"/>
<path d="M130 87V81H156V87H130Z" fill="#D20000"/>
<path d="M359.354 87H248V81H363.714C362.578 83.2361 361.148 85.2118 359.354 87Z" fill="#D20000"/>
<path d="M189 81V87H215V81H189Z" fill="#D20000"/>
<path d="M122 71H97V77H122V71Z" fill="#D20000"/>
<path d="M130 77V71H156V77H130Z" fill="#D20000"/>
<path d="M365.404 77C366.066 75.0861 366.56 73.0556 366.812 71H248V77H365.404Z" fill="#D20000"/>
<path d="M215 77V71H189V77H215Z" fill="#D20000"/>
<path d="M189 67H215V23H239C242.715 23 245.219 23.836 246.5 25.5C247.781 27.164 248 30.16 248 34V67H274V31.08C274 21.48 271.694 14.056 267.082 8.80801C262.47 3.688 254.655 1 243.381 1H130V67H156V23H189V67Z" fill="#D20000"/>
<path d="M341.882 67H366.983C366.743 59.954 363.953 54.6993 359.184 50.664C354.192 46.44 346.768 42.856 336.912 39.912L313.5 33C311.068 32.36 309.524 31.524 308.5 30.5C307.476 29.476 307 28.536 307 27C307 25.848 307.348 24.524 308.5 23.5C309.524 22.476 311.184 22 314 22L367 22.12V1H314.256C304.016 1 296.08 3.43201 290.448 8.04C284.816 12.776 282 19.064 282 27C282 33.4 284.048 39.016 288.4 43.624C292.624 48.232 299.152 51.944 308.112 54.504L331.152 61.288C335.504 62.568 338.448 63.848 339.984 64.872C340.82 65.4295 341.467 66.1389 341.882 67Z" fill="#D20000"/>
<path fill-rule="evenodd" clip-rule="evenodd" d="M42 49L1 97H30.7791L56.4015 67H122V1H97C97 1 82.4429 1.58679 70.3351 15.6087L42 49ZM74.3372 46H97V23C97 23 93.8383 23.2812 88 30L74.3372 46Z" fill="#D20000"/>
<defs>
<clipPath id="clip0_111_1479">
<rect width="124" height="96" fill="white" transform="translate(375 1)"/>
</clipPath>
</defs>
</svg>
