<svg width="96" height="96" viewBox="0 0 96 96" fill="none" xmlns="http://www.w3.org/2000/svg">
<g clip-path="url(#clip0_111_7711)">
<mask id="mask0_111_7711" style="mask-type:alpha" maskUnits="userSpaceOnUse" x="0" y="0" width="96" height="96">
<path fill-rule="evenodd" clip-rule="evenodd" d="M96 0H0V96H96V0ZM94 45H2V69H94V45Z" fill="#FF0000"/>
</mask>
<g mask="url(#mask0_111_7711)">
<path d="M33.8438 31.2H19V74.25H33.8438V31.2Z" fill="#D20000"/>
<path d="M62.3437 90C69.8859 90 76 84.5938 76 77.925V35.4H72.4375V77.925C72.4375 82.8541 67.9184 86.85 62.3437 86.85H24.5912C26.8511 88.8305 29.6395 90 32.6563 90H62.3437Z" fill="#D20000"/>
<path d="M22.6235 84.75H61.1562C66.075 84.75 70.0625 81.2243 70.0625 76.875V15.975H66.5V76.875C66.5 79.4846 64.1075 81.6 61.1562 81.6H20.7147C21.2457 82.741 21.8878 83.798 22.6235 84.75Z" fill="#D20000"/>
<path d="M19.8953 79.5H59.9687C62.2642 79.5 64.125 77.8547 64.125 75.825V28.575H60.5625V75.825C60.5625 76.115 60.2967 76.35 59.9687 76.35H19.1826C19.333 77.4402 19.5738 78.494 19.8953 79.5Z" fill="#D20000"/>
<rect x="66.5" y="13.875" width="7.875" height="3.5625" transform="rotate(-90 66.5 13.875)" fill="#D20000"/>
<rect x="72.4375" y="33.3" width="7.875" height="3.5625" transform="rotate(-90 72.4375 33.3)" fill="#D20000"/>
<rect x="60.5625" y="26.475" width="7.875" height="3.5625" transform="rotate(-90 60.5625 26.475)" fill="#D20000"/>
</g>
<path d="M24.9008 66V48H44.9656C47.5301 48 49.39 48.66 50.5454 49.98C51.6727 51.3 52.2645 53.1 52.2645 55.35V66H46.9101V55.2C46.9101 54.3 46.741 53.64 46.4592 53.25C46.1774 52.86 45.6138 52.65 44.7965 52.65H41.2457V66H35.8914V52.65H30.2552V66H24.9008Z" fill="#D20000"/>
<path d="M65.0098 59.7L60.3716 58.74C58.6643 58.38 57.3554 57.75 56.4448 56.85C55.5342 55.95 55.1074 54.75 55.1074 53.25C55.1074 52.56 55.2212 51.9 55.4773 51.24C55.7334 50.61 56.1318 50.04 56.6724 49.56C57.2131 49.08 57.896 48.72 58.7497 48.42C59.6033 48.15 60.5992 48 61.7659 48H71.0992V52.35H61.3391C60.77 52.35 60.3716 52.44 60.2009 52.62C60.0017 52.8 59.9163 53.01 59.9163 53.22C59.9163 53.46 60.0017 53.67 60.1724 53.85C60.3431 54.03 60.6277 54.18 61.0545 54.24L65.2659 55.11C67.3431 55.56 68.8228 56.22 69.7333 57.09C70.6439 57.96 71.0992 59.1 71.0992 60.54C71.0992 62.16 70.5016 63.48 69.3349 64.5C68.1683 65.52 66.4041 66 64.0423 66H55.1074V61.65H64.9529C65.5504 61.65 65.9488 61.56 66.1195 61.38C66.2903 61.2 66.4041 60.99 66.4041 60.69C66.4041 60.39 66.2618 60.18 66.0057 60.03C65.7496 59.91 65.4082 59.79 65.0098 59.7Z" fill="#D20000"/>
<path d="M22.0579 56.25V66H10.3145C8.60015 66 7.28581 65.61 6.37149 64.83C5.45716 64.05 5 63.03 5 61.77C5 60.39 5.42859 59.31 6.34291 58.47C7.22866 57.63 8.31442 56.76 9.57162 55.86L14.429 52.35H5V48H12.9146C16.1719 48 18.5148 48.75 19.9435 50.19C21.3435 51.63 22.0579 53.67 22.0579 56.25ZM11.8574 61.65H16.9148V55.68L11.7431 59.91C11.4003 60.18 11.1717 60.39 11.0574 60.51C10.9145 60.63 10.8574 60.81 10.8574 60.99C10.8574 61.23 10.9145 61.38 11.086 61.5C11.2288 61.62 11.486 61.65 11.8574 61.65Z" fill="#D20000"/>
<path d="M80.9243 66H84.0179C86.4855 66 88.252 65.34 89.3456 64.02C90.4672 62.7 91 60.93 91 58.65V48H85.6723V58.8C85.6723 59.73 85.5321 60.39 85.2517 60.78C84.9713 61.17 84.4104 61.35 83.5692 61.35H81.3729C80.5317 61.35 79.9709 61.17 79.6905 60.78C79.4101 60.39 79.2699 59.73 79.2699 58.8V48H73.9421V58.65C73.9421 60.93 74.4749 62.7 75.5965 64.02C76.6901 65.34 78.4567 66 80.9243 66Z" fill="#D20000"/>
</g>
<defs>
<clipPath id="clip0_111_7711">
<rect width="96" height="96" fill="white"/>
</clipPath>
</defs>
</svg>
