<svg width="516" height="224" viewBox="0 0 516 224" fill="none" xmlns="http://www.w3.org/2000/svg">
<path d="M417 21H392V87H417V21Z" fill="#D20000"/>
<path d="M511.306 0L501.564 11.4061L506.127 15.3028L515.869 3.89669L511.306 0Z" fill="white"/>
<path d="M497.306 0L487.564 11.4061L492.127 15.3028L501.869 3.89669L497.306 0Z" fill="white"/>
<path d="M483.306 0L473.564 11.4061L478.127 15.3028L487.869 3.89669L483.306 0Z" fill="white"/>
<path d="M488 36.527L488 94C488 106.703 477.703 117 465 117H415C409.919 117 405.223 114.772 401.417 111H465C474.389 111 482 103.389 482 94L482 34.3134L498.967 14.4478L503.53 18.3444L488 36.527Z" fill="white"/>
<path d="M478 31.8436V92C478 100.284 471.284 107 463 107H398.103C396.864 105.187 395.782 103.173 394.888 101H463C467.97 101 472 96.9706 472 92L472 29.63L484.967 14.4478L489.529 18.3444L478 31.8436Z" fill="white"/>
<path d="M468 27.1602L468 90C468 93.866 464.866 97 461 97H393.508C392.966 95.0838 392.561 93.0766 392.308 91H461C461.552 91 462 90.5523 462 90L462 24.9466L470.967 14.4478L475.529 18.3444L468 27.1602Z" fill="white"/>
<path d="M139.024 111H114.024L114.024 117H139.024V111Z" fill="white"/>
<path d="M147.024 111H173.024V117H147.024V111Z" fill="white"/>
<path d="M206.024 111V117H232.024V111H206.024Z" fill="white"/>
<path d="M265.402 111V117H346.896C353.04 117 358.544 116.232 363.152 114.696C366.184 113.686 368.883 112.454 371.249 111H265.402Z" fill="white"/>
<path d="M139.024 101H114.024V107H139.024V101Z" fill="white"/>
<path d="M147.024 107V101H173.024V107H147.024Z" fill="white"/>
<path d="M376.378 107H265.024V101H380.739C379.602 103.236 378.173 105.212 376.378 107Z" fill="white"/>
<path d="M206.024 101V107H232.024V101H206.024Z" fill="white"/>
<path d="M139.024 91H114.024V97H139.024V91Z" fill="white"/>
<path d="M147.024 97V91H173.024V97H147.024Z" fill="white"/>
<path d="M382.428 97C383.09 95.0861 383.584 93.0556 383.837 91H265.024V97H382.428Z" fill="white"/>
<path d="M232.024 97V91H206.024V97H232.024Z" fill="white"/>
<path d="M206.024 87H232.024V43H256.024C259.74 43 262.243 43.836 263.524 45.5C264.806 47.164 265.024 50.16 265.024 54V87H291.024V51.08C291.024 41.48 288.718 34.056 284.106 28.808C279.494 23.688 271.679 21 260.405 21H147.024V87H173.024V43H206.024V87Z" fill="#D20000"/>
<path d="M358.907 87H384.008C383.768 79.954 380.977 74.6993 376.208 70.664C371.216 66.44 363.792 62.856 353.936 59.912L330.524 53C328.092 52.36 326.548 51.524 325.524 50.5C324.5 49.476 324.024 48.536 324.024 47C324.024 45.848 324.372 44.524 325.524 43.5C326.548 42.476 328.208 42 331.024 42L384.024 42.12V21H331.28C321.04 21 313.104 23.432 307.472 28.04C301.84 32.776 299.024 39.064 299.024 47C299.024 53.4 301.072 59.016 305.424 63.624C309.648 68.232 316.176 71.944 325.136 74.504L348.176 81.288C352.528 82.568 355.472 83.848 357.008 84.872C357.845 85.4295 358.491 86.1389 358.907 87Z" fill="#D20000"/>
<path fill-rule="evenodd" clip-rule="evenodd" d="M0 138L59.0241 69L87.3592 35.6087C99.467 21.5868 114.024 21 114.024 21H139.024V87H73.4256L29.7834 138H0ZM114.024 66H91.3613L105.024 50C110.862 43.2812 114.024 43 114.024 43V66Z" fill="#D20000"/>
<path d="M235.792 145.819V176.943H218.236C214.289 176.943 211.432 176.009 209.666 174.09C207.848 172.222 206.965 169.421 206.965 165.79V145.819H212.678V166.412C212.678 168.487 213.042 169.888 213.873 170.614C214.652 171.392 215.951 171.755 217.821 171.755H230.079V145.819H235.792Z" fill="white"/>
<path d="M246.172 176.943V145.819H263.728C267.624 145.819 270.481 146.804 272.298 148.672C274.064 150.591 274.999 153.34 274.999 156.971V176.943H269.286V156.349C269.286 154.326 268.87 152.925 268.091 152.147C267.26 151.421 265.962 151.006 264.144 151.006H251.886V176.943H246.172Z" fill="white"/>
<path d="M316.648 158.839V163.922C316.648 168.28 315.453 171.652 313.064 174.038C310.675 176.424 307.143 177.617 302.572 177.617H298.676C293.794 177.617 290.262 176.424 287.976 174.038C285.691 171.652 284.6 168.28 284.6 163.922V158.839C284.6 154.533 285.691 151.161 287.976 148.775C290.262 146.389 293.794 145.144 298.676 145.144H302.572C307.143 145.144 310.675 146.389 313.064 148.775C315.453 151.161 316.648 154.533 316.648 158.839ZM310.675 158.061C310.675 155.311 310.103 153.288 309.064 151.991C308.026 150.747 306.104 150.072 303.299 150.072H297.897C295.248 150.072 293.378 150.747 292.236 151.991C291.093 153.288 290.574 155.311 290.574 158.061V164.7C290.574 167.502 291.093 169.525 292.236 170.77C293.378 172.067 295.248 172.689 297.897 172.689H303.299C306.104 172.689 308.026 172.067 309.064 170.77C310.103 169.525 310.675 167.502 310.675 164.7V158.061Z" fill="white"/>
<path d="M327.923 176.943V150.747H322.884V145.819H327.923V145.352C327.923 142.447 328.65 140.372 330.208 139.023C331.766 137.674 334 137 336.909 137H345.219V141.513H336.96C335.714 141.513 334.779 141.772 334.26 142.291C333.688 142.81 333.428 143.692 333.428 144.989V145.819H345.738V150.747H333.636V176.943H327.923Z" fill="white"/>
<path d="M349.985 176.943V150.747H344.947V145.819H349.985C349.985 142.758 350.765 140.527 352.427 139.127C354.089 137.726 356.426 137 359.491 137H367.282V141.513H359.023C357.777 141.513 356.842 141.772 356.322 142.291C355.751 142.81 355.491 143.692 355.491 144.989V145.819H367.282V150.747H355.699V176.943H349.985Z" fill="white"/>
<path d="M380.778 143.121H375.065V138.037H380.778V143.121ZM375.065 176.943V145.819H380.778V176.943H375.065Z" fill="white"/>
<path d="M404.569 150.747C401.816 150.747 399.843 151.317 398.648 152.355C397.453 153.392 396.882 155.311 396.882 158.061V164.649C396.882 167.45 397.453 169.421 398.648 170.458C399.843 171.496 401.816 172.015 404.569 172.015H418.022V176.943H404.31C400.31 176.943 397.09 175.853 394.597 173.675C392.103 171.496 390.909 168.28 390.909 163.922V158.839C390.909 154.533 392.103 151.265 394.597 149.087C397.09 146.908 400.31 145.819 404.31 145.819H418.022V150.747H404.569Z" fill="white"/>
<path d="M433.324 143.121H427.61V138.037H433.324V143.121ZM427.61 176.943V145.819H433.324V176.943H427.61Z" fill="white"/>
<path d="M471.399 157.075V176.943H452.18C449.168 176.943 446.831 176.372 445.168 175.127C443.506 173.934 442.675 172.067 442.675 169.525C442.675 167.865 443.247 166.36 444.493 165.064C445.74 163.767 447.454 162.314 449.635 160.654L462.776 150.747H443.039V145.819H459.608C463.556 145.819 466.464 146.856 468.438 148.879C470.412 150.954 471.399 153.651 471.399 157.075ZM451.921 171.755H465.685V154.793L451.713 165.375C450.726 166.101 449.947 166.724 449.428 167.242C448.856 167.761 448.597 168.435 448.597 169.317C448.597 170.199 448.908 170.822 449.583 171.185C450.207 171.6 450.986 171.755 451.921 171.755Z" fill="white"/>
<path d="M482.286 138.037H488V176.943H482.286V138.037Z" fill="white"/>
<path d="M104.009 160.084V176.943H82.661C79.5446 176.943 77.1553 176.268 75.4932 174.92C73.8311 173.571 73 171.807 73 169.629C73 167.242 73.7791 165.375 75.4412 163.922C77.0514 162.47 79.0252 160.966 81.3106 159.409L90.1405 153.34H73V145.819H87.3876C93.3089 145.819 97.5681 147.115 100.165 149.605C102.71 152.095 104.009 155.623 104.009 160.084ZM85.4658 169.421H94.6594V159.098L85.2581 166.412C84.6348 166.879 84.2192 167.242 84.0115 167.45C83.7518 167.657 83.6479 167.969 83.6479 168.28C83.6479 168.695 83.7518 168.954 84.0634 169.162C84.3231 169.369 84.7906 169.421 85.4658 169.421Z" fill="white"/>
<path d="M112.089 176.943V145.819H149.071C153.798 145.819 157.226 146.96 159.355 149.242C161.433 151.525 162.524 154.637 162.524 158.528V176.943H152.655V158.268C152.655 156.712 152.343 155.571 151.824 154.896C151.305 154.222 150.266 153.859 148.76 153.859H142.215V176.943H132.346V153.859H121.958V176.943H112.089Z" fill="white"/>
<path d="M187.813 166.049L179.347 164.389C176.231 163.767 173.841 162.677 172.179 161.121C170.517 159.565 169.738 157.49 169.738 154.896C169.738 153.703 169.946 152.562 170.413 151.421C170.881 150.332 171.608 149.346 172.595 148.516C173.582 147.686 174.828 147.064 176.386 146.545C177.945 146.078 179.763 145.819 181.892 145.819H198.929V153.34H181.113C180.074 153.34 179.347 153.496 179.035 153.807C178.672 154.118 178.516 154.481 178.516 154.845C178.516 155.26 178.672 155.623 178.983 155.934C179.295 156.245 179.815 156.505 180.594 156.608L188.281 158.113C192.073 158.891 194.774 160.032 196.436 161.536C198.098 163.041 198.929 165.012 198.929 167.502C198.929 170.303 197.838 172.585 195.708 174.349C193.579 176.113 190.359 176.943 186.047 176.943H169.738V169.421H187.71C188.8 169.421 189.527 169.265 189.839 168.954C190.151 168.643 190.359 168.28 190.359 167.761C190.359 167.242 190.099 166.879 189.631 166.62C189.164 166.412 188.541 166.205 187.813 166.049Z" fill="white"/>
<path d="M82.9535 203.889C81.6651 203.889 80.7309 204.182 80.1511 204.769C79.5713 205.356 79.2814 206.204 79.2814 207.378V210.737C79.2814 212.041 79.5713 212.921 80.1511 213.345C80.7309 213.802 81.6651 213.997 82.9535 213.997H90.2013V218.726H82.7603C79.2814 218.726 76.801 217.976 75.2871 216.443C73.7409 214.943 73 212.824 73 210.15V207.769C73 205.095 73.7409 203.008 75.2871 201.476C76.801 199.943 79.2814 199.16 82.7603 199.16H90.2013V203.889H82.9535Z" fill="#D20000"/>
<path d="M114.056 207.769V210.117C114.056 212.856 113.219 215.008 111.608 216.639C109.998 218.269 107.678 219.052 104.683 219.052H102.428C99.3998 219.052 97.0806 218.269 95.47 216.639C93.8271 215.008 93.0218 212.856 93.0218 210.117V207.769C93.0218 205.063 93.8271 202.91 95.47 201.28C97.0806 199.65 99.3998 198.834 102.428 198.834H104.683C107.678 198.834 109.998 199.65 111.608 201.28C113.219 202.91 114.056 205.063 114.056 207.769ZM107.775 207.247C107.775 206.008 107.517 205.063 107.066 204.443C106.615 203.824 105.778 203.497 104.618 203.497H102.492C101.3 203.497 100.463 203.824 100.012 204.443C99.5287 205.063 99.3032 206.008 99.3032 207.247V210.606C99.3032 211.91 99.5287 212.856 100.012 213.476C100.463 214.095 101.3 214.389 102.492 214.389H104.618C105.778 214.389 106.615 214.095 107.066 213.476C107.517 212.856 107.775 211.91 107.775 210.606V207.247Z" fill="#D20000"/>
<path d="M117.747 218.726V199.16H140.682C143.613 199.16 145.739 199.878 147.06 201.313C148.348 202.747 149.025 204.704 149.025 207.15V218.726H142.904V206.987C142.904 206.008 142.711 205.291 142.389 204.867C142.067 204.443 141.423 204.215 140.488 204.215H136.43V218.726H130.309V204.215H123.867V218.726H117.747Z" fill="#D20000"/>
<path d="M153.434 218.726V199.16H176.369C179.3 199.16 181.426 199.878 182.747 201.313C184.036 202.747 184.712 204.704 184.712 207.15V218.726H178.592V206.987C178.592 206.008 178.399 205.291 178.076 204.867C177.754 204.443 177.11 204.215 176.176 204.215H172.117V218.726H165.997V204.215H159.554V218.726H153.434Z" fill="#D20000"/>
<path d="M203.005 213.671V199.16H209.125V218.726H197.142C194.308 218.726 192.278 218.008 191.022 216.574C189.734 215.139 189.122 213.215 189.122 210.737V199.16H195.242V210.9C195.242 211.91 195.403 212.628 195.725 213.052C196.047 213.476 196.692 213.671 197.658 213.671H203.005Z" fill="#D20000"/>
<path d="M213.516 218.726V199.16H225.499C228.301 199.16 230.331 199.878 231.619 201.313C232.876 202.747 233.52 204.704 233.52 207.15V218.726H227.399V206.987C227.399 206.008 227.206 205.291 226.884 204.867C226.562 204.443 225.918 204.215 224.984 204.215H219.636V218.726H213.516Z" fill="#D20000"/>
<path d="M244.417 197.465H238.297V193.617H244.417V197.465ZM238.297 218.726V199.16H244.417V218.726H238.297Z" fill="#D20000"/>
<path d="M247.963 203.889V199.16H251.088V195.182H256.725V199.16H263.328V203.889H256.725V211.813C256.725 212.66 256.886 213.215 257.24 213.541C257.562 213.867 258.142 213.997 258.915 213.997H263.328V218.726H258.207C255.533 218.726 253.632 218.171 252.473 217.03C251.313 215.889 250.766 214.16 250.766 211.813V203.889H247.963Z" fill="#D20000"/>
<path d="M276.728 210.867C276.793 211.128 276.922 211.291 277.05 211.356C277.179 211.421 277.276 211.454 277.405 211.454C277.534 211.454 277.63 211.421 277.727 211.356C277.823 211.291 277.92 211.128 278.017 210.867L281.786 199.16H288.292L281.367 218.139C280.787 219.737 279.788 221.041 278.403 222.084C277.018 223.128 275.182 223.617 272.863 223.617H267.58V218.432H273.41C274.184 218.432 274.763 218.269 275.15 217.91C275.536 217.552 275.891 216.965 276.181 216.117L276.406 215.465H274.86C273.958 215.465 273.249 215.269 272.67 214.878C272.09 214.487 271.671 213.9 271.349 213.084L265.744 199.16H272.476L276.728 210.867Z" fill="#D20000"/>
<path d="M310.131 211.878L304.88 210.834C302.948 210.443 301.466 209.758 300.435 208.78C299.404 207.802 298.921 206.497 298.921 204.867C298.921 204.117 299.05 203.4 299.34 202.682C299.63 201.997 300.081 201.378 300.693 200.856C301.305 200.334 302.078 199.943 303.044 199.617C304.011 199.324 305.138 199.16 306.459 199.16H316.058V203.889H305.976C305.331 203.889 304.88 203.987 304.687 204.182C304.462 204.378 304.365 204.606 304.365 204.834C304.365 205.095 304.462 205.324 304.655 205.519C304.848 205.715 305.17 205.878 305.654 205.943L310.421 206.889C312.772 207.378 314.447 208.095 315.478 209.041C316.509 209.987 317.024 211.226 317.024 212.791C317.024 214.552 316.348 215.987 315.027 217.095C313.707 218.204 311.709 218.726 309.036 218.726H299.565V213.997H310.067C310.743 213.997 311.194 213.9 311.387 213.704C311.581 213.508 311.709 213.28 311.709 212.954C311.709 212.628 311.548 212.4 311.258 212.237C310.969 212.106 310.582 211.976 310.131 211.878Z" fill="#D20000"/>
<path d="M327.162 197.465H321.042V193.617H327.162V197.465ZM321.042 218.726V199.16H327.162V218.726H321.042Z" fill="#D20000"/>
<path d="M331.932 218.726V199.16H354.867C357.798 199.16 359.924 199.878 361.245 201.313C362.534 202.747 363.21 204.704 363.21 207.15V218.726H357.09V206.987C357.09 206.008 356.896 205.291 356.574 204.867C356.252 204.443 355.608 204.215 354.674 204.215H350.615V218.726H344.495V204.215H338.052V218.726H331.932Z" fill="#D20000"/>
<path d="M376.002 207.084C376.002 206.106 376.163 205.128 376.55 204.15C376.936 203.204 377.484 202.356 378.225 201.606C378.966 200.889 379.9 200.302 381.06 199.845C382.219 199.389 383.572 199.16 385.118 199.16H391.754V203.889H384.732C383.701 203.889 382.992 204.084 382.638 204.476C382.284 204.867 382.123 205.552 382.123 206.497V218.726H376.002V207.084Z" fill="#D20000"/>
<path d="M407.275 208.128V218.726H394.036C392.103 218.726 390.621 218.302 389.591 217.454C388.56 216.606 388.044 215.497 388.044 214.128C388.044 212.628 388.527 211.454 389.558 210.541C390.557 209.628 391.781 208.682 393.198 207.704L398.674 203.889H388.495V199.16H396.967C400.639 199.16 403.281 199.976 404.891 201.541C406.47 203.106 407.275 205.324 407.275 208.128ZM395.775 213.997H401.477V207.508L395.646 212.106C395.26 212.4 395.002 212.628 394.873 212.758C394.712 212.889 394.648 213.084 394.648 213.28C394.648 213.541 394.712 213.704 394.905 213.834C395.067 213.965 395.356 213.997 395.775 213.997Z" fill="#D20000"/>
<path d="M420.919 203.889C419.631 203.889 418.696 204.182 418.117 204.769C417.537 205.356 417.247 206.204 417.247 207.378V210.737C417.247 212.041 417.537 212.921 418.117 213.345C418.696 213.802 419.631 213.997 420.919 213.997H428.167V218.726H420.726C417.247 218.726 414.766 217.976 413.253 216.443C411.706 214.943 410.965 212.824 410.965 210.15V207.769C410.965 205.095 411.706 203.008 413.253 201.476C414.766 199.943 417.247 199.16 420.726 199.16H428.167V203.889H420.919Z" fill="#D20000"/>
<path d="M438.8 197.465H432.679V193.617H438.8V197.465ZM432.679 218.726V199.16H438.8V218.726H432.679Z" fill="#D20000"/>
<path d="M443.57 218.726V199.16H455.553C458.355 199.16 460.384 199.878 461.673 201.313C462.929 202.747 463.573 204.704 463.573 207.15V218.726H457.453V206.987C457.453 206.008 457.26 205.291 456.938 204.867C456.616 204.443 455.971 204.215 455.037 204.215H449.69V218.726H443.57Z" fill="#D20000"/>
<path d="M477.853 223.617H468.608V218.987H477.918C479.56 218.987 480.623 218.791 481.139 218.4C481.622 218.008 481.88 217.421 481.88 216.639V216.215H474.761C472.474 216.215 470.67 215.53 469.317 214.095C467.964 212.693 467.288 210.737 467.288 208.226V207.476C467.288 204.9 467.964 202.878 469.317 201.378C470.67 199.91 472.474 199.16 474.761 199.16H488V216.052C488 218.791 487.195 220.715 485.649 221.889C484.07 223.063 481.461 223.617 477.853 223.617ZM476.661 211.78H481.88V203.921H476.661C475.502 203.921 474.696 204.182 474.245 204.639C473.794 205.095 473.569 205.91 473.569 207.019V208.519C473.569 209.628 473.794 210.476 474.245 210.997C474.696 211.519 475.502 211.78 476.661 211.78Z" fill="#D20000"/>
</svg>
