<?xml version="1.0" encoding="UTF-8" standalone="no"?>
<svg
   width="96"
   height="96"
   viewBox="0 0 96 96"
   fill="none"
   version="1.1"
   id="svg171"
   sodipodi:docname="avatar--inline-u--white--bg--a--padding--round.svg"
   inkscape:export-filename="avatar--inline-u--white--bg--a--padding--round.png"
   inkscape:export-xdpi="512"
   inkscape:export-ydpi="512"
   inkscape:version="1.2 (dc2aedaf03, 2022-05-15)"
   xmlns:inkscape="http://www.inkscape.org/namespaces/inkscape"
   xmlns:sodipodi="http://sodipodi.sourceforge.net/DTD/sodipodi-0.dtd"
   xmlns="http://www.w3.org/2000/svg"
   xmlns:svg="http://www.w3.org/2000/svg">
  <defs
     id="defs175">
    <mask
       maskUnits="userSpaceOnUse"
       id="mask336">
      <path
         fill-rule="evenodd"
         clip-rule="evenodd"
         d="M 86,10 H 10 V 86 H 86 Z M 84.4167,38.5 H 11.5833 v 19 h 72.8334 z"
         fill="#ff0000"
         id="path338"
         style="fill:#ffffff" />
    </mask>
  </defs>
  <sodipodi:namedview
     id="namedview173"
     pagecolor="#ffffff"
     bordercolor="#666666"
     borderopacity="1.0"
     inkscape:showpageshadow="2"
     inkscape:pageopacity="0.0"
     inkscape:pagecheckerboard="0"
     inkscape:deskcolor="#d1d1d1"
     showgrid="false"
     inkscape:zoom="10.697917"
     inkscape:cx="47.953262"
     inkscape:cy="48.046738"
     inkscape:window-width="2560"
     inkscape:window-height="1377"
     inkscape:window-x="-8"
     inkscape:window-y="-8"
     inkscape:window-maximized="1"
     inkscape:current-layer="g354" />
  <rect
     width="96"
     height="96"
     rx="48"
     fill="#1A1A1A"
     id="rect142" />
  <g
     mask="url(#mask336)"
     id="g161">
    <path
       d="M35.8612 25.0417H22.6667V59.875H35.8612V25.0417Z"
       fill="white"
       id="path147" />
    <path
       d="M61.1945 75.7083C67.8987 75.7083 73.3334 70.2736 73.3334 63.5694V35.0695H70.1668V63.5694C70.1668 68.5247 66.1498 72.5417 61.1945 72.5417H27.6367C29.6456 74.5326 32.1241 75.7083 34.8057 75.7083H61.1945Z"
       fill="white"
       id="path149" />
    <path
       d="M25.8877 70.4306H60.139C64.5112 70.4306 68.0556 66.8861 68.0556 62.5139V35.0695H64.889V62.5139C64.889 65.1372 62.7623 67.2639 60.139 67.2639H24.1909C24.6629 68.4109 25.2337 69.4735 25.8877 70.4306Z"
       fill="white"
       id="path151" />
    <path
       d="M23.4626 65.1528H59.0834C61.1238 65.1528 62.7779 63.4987 62.7779 61.4583V35.0695H59.6112V61.4583C59.6112 61.7498 59.3749 61.9861 59.0834 61.9861H22.8291C22.9628 63.0821 23.1768 64.1414 23.4626 65.1528Z"
       fill="white"
       id="path153" />
    <rect
       x="64.8889"
       y="32.9583"
       width="7.91667"
       height="3.16666"
       transform="rotate(-90 64.8889 32.9583)"
       fill="white"
       id="rect155" />
    <rect
       x="70.1667"
       y="32.9583"
       width="7.91667"
       height="3.16667"
       transform="rotate(-90 70.1667 32.9583)"
       fill="white"
       id="rect157" />
    <rect
       x="59.6111"
       y="32.9583"
       width="7.91667"
       height="3.16667"
       transform="rotate(-90 59.6111 32.9583)"
       fill="white"
       id="rect159" />
  </g>
  <g
     id="g344"
     style="display:none">
    <path
       d="m 29.7131,55.125 v -14.25 h 15.8847 c 2.0302,0 3.5026,0.5225 4.4173,1.5675 0.8924,1.045 1.3609,2.47 1.3609,4.2513 v 8.4312 h -4.2389 v -8.55 c 0,-0.7125 -0.1338,-1.235 -0.3569,-1.5437 -0.2231,-0.3088 -0.6693,-0.4751 -1.3163,-0.4751 h -2.811 V 55.125 H 38.414 V 44.5562 H 33.952 V 55.125 Z"
       fill="#ffffff"
       id="path163" />
    <path
       d="m 61.4661,50.1375 -3.6719,-0.76 c -1.3516,-0.285 -2.3879,-0.7837 -3.1087,-1.4962 -0.7209,-0.7125 -1.0588,-1.6626 -1.0588,-2.85 0,-0.5463 0.0901,-1.0688 0.2929,-1.5913 0.2027,-0.4987 0.5181,-0.95 0.9461,-1.33 0.428,-0.38 0.9686,-0.665 1.6445,-0.9025 0.6758,-0.2138 1.4642,-0.3325 2.3878,-0.3325 h 7.3888 v 3.4438 h -7.7267 c -0.4505,0 -0.7659,0.0712 -0.9011,0.2137 -0.1577,0.1425 -0.2252,0.3088 -0.2252,0.475 0,0.19 0.0675,0.3563 0.2027,0.4987 0.1352,0.1426 0.3604,0.2613 0.6983,0.3088 l 3.334,0.6888 c 1.6445,0.3562 2.8159,0.8787 3.5367,1.5674 0.7209,0.6888 1.0813,1.5913 1.0813,2.7313 0,1.2825 -0.473,2.3275 -1.3966,3.135 -0.9236,0.8075 -2.3203,1.1875 -4.19,1.1875 h -7.0735 v -3.4438 h 7.7943 c 0.4731,0 0.7885,-0.0712 0.9236,-0.2137 0.1352,-0.1425 0.2253,-0.3088 0.2253,-0.5462 0,-0.2376 -0.1126,-0.4038 -0.3154,-0.5226 -0.2027,-0.095 -0.473,-0.1899 -0.7884,-0.2612 z"
       fill="#ffffff"
       id="path165" />
    <path
       d="m 27.4624,47.4062 v 7.7188 h -9.2968 c -1.3572,0 -2.3977,-0.3088 -3.1216,-0.9263 -0.7238,-0.6175 -1.0857,-1.4249 -1.0857,-2.4224 0,-1.0925 0.3393,-1.9475 1.0631,-2.6125 0.7012,-0.665 1.5608,-1.3538 2.5561,-2.0663 l 3.8453,-2.7787 H 13.9583 V 40.875 h 6.2657 c 2.5787,0 4.4335,0.5937 5.5645,1.7338 1.1084,1.1399 1.6739,2.755 1.6739,4.7974 z m -8.0754,4.275 h 4.0038 V 46.955 l -4.0942,3.3488 c -0.2715,0.2137 -0.4524,0.38 -0.5429,0.475 -0.1131,0.095 -0.1584,0.2374 -0.1584,0.3799 0,0.19 0.0453,0.3088 0.181,0.4038 0.1131,0.095 0.3167,0.1187 0.6107,0.1187 z"
       fill="#ffffff"
       id="path167" />
    <path
       d="m 74.0649,55.125 h 2.4491 c 1.9535,0 3.352,-0.5225 4.2178,-1.5675 0.8879,-1.045 1.3097,-2.4463 1.3097,-4.2512 V 40.875 h -4.2178 v 8.55 c 0,0.7362 -0.111,1.2587 -0.333,1.5675 -0.222,0.3087 -0.6659,0.4513 -1.3319,0.4513 H 74.42 c -0.6659,0 -1.1099,-0.1426 -1.3319,-0.4513 -0.222,-0.3088 -0.333,-0.8313 -0.333,-1.5675 v -8.55 h -4.2177 v 8.4313 c 0,1.8049 0.4217,3.2062 1.3097,4.2512 0.8657,1.045 2.2643,1.5675 4.2178,1.5675 z"
       fill="#ffffff"
       id="path169" />
  </g>
  <g
     id="g354"
     transform="translate(7.87745)">
    <path
       d="m 29.7131,55.125 v -14.25 h 15.8847 c 2.0302,0 3.5026,0.5225 4.4173,1.5675 0.8924,1.045 1.3609,2.47 1.3609,4.2513 v 8.4312 h -4.2389 v -8.55 c 0,-0.7125 -0.1338,-1.235 -0.3569,-1.5437 -0.2231,-0.3088 -0.6693,-0.4751 -1.3163,-0.4751 h -2.811 V 55.125 H 38.414 V 44.5562 H 33.952 V 55.125 Z"
       fill="#ffffff"
       id="path346" />
    <path
       d="m 33.33985,47.4062 v 7.7188 h -9.2968 c -1.3572,0 -2.3977,-0.3088 -3.1216,-0.9263 -0.7238,-0.6175 -1.0857,-1.4249 -1.0857,-2.4224 0,-1.0925 0.3393,-1.9475 1.0631,-2.6125 0.7012,-0.665 1.5608,-1.3538 2.5561,-2.0663 l 3.8453,-2.7787 h -7.4645 V 40.875 h 6.2657 c 2.5787,0 4.4335,0.5937 5.5645,1.7338 1.1084,1.1399 1.6739,2.755 1.6739,4.7974 z m -8.0754,4.275 h 4.0038 V 46.955 l -4.0942,3.3488 c -0.2715,0.2137 -0.4524,0.38 -0.5429,0.475 -0.1131,0.095 -0.1584,0.2374 -0.1584,0.3799 0,0.19 0.0453,0.3088 0.181,0.4038 0.1131,0.095 0.3167,0.1187 0.6107,0.1187 z"
       fill="#ffffff"
       id="path350"
       transform="translate(-7.87745)" />
    <path
       d="m 71.34355,50.1375 -3.6719,-0.76 c -1.3516,-0.285 -2.3879,-0.7837 -3.1087,-1.4962 -0.7209,-0.7125 -1.0588,-1.6626 -1.0588,-2.85 0,-0.5463 0.0901,-1.0688 0.2929,-1.5913 0.2027,-0.4987 0.5181,-0.95 0.9461,-1.33 0.428,-0.38 0.9686,-0.665 1.6445,-0.9025 0.6758,-0.2138 1.4642,-0.3325 2.3878,-0.3325 h 7.3888 v 3.4438 h -7.7267 c -0.4505,0 -0.7659,0.0712 -0.9011,0.2137 -0.1577,0.1425 -0.2252,0.3088 -0.2252,0.475 0,0.19 0.0675,0.3563 0.2027,0.4987 0.1352,0.1426 0.3604,0.2613 0.6983,0.3088 l 3.334,0.6888 c 1.6445,0.3562 2.8159,0.8787 3.5367,1.5674 0.7209,0.6888 1.0813,1.5913 1.0813,2.7313 0,1.2825 -0.473,2.3275 -1.3966,3.135 -0.9236,0.8075 -2.3203,1.1875 -4.19,1.1875 h -7.0735 v -3.4438 h 7.7943 c 0.4731,0 0.7885,-0.0712 0.9236,-0.2137 0.1352,-0.1425 0.2253,-0.3088 0.2253,-0.5462 0,-0.2376 -0.1126,-0.4038 -0.3154,-0.5226 -0.2027,-0.095 -0.473,-0.1899 -0.7884,-0.2612 z"
       fill="#ffffff"
       id="path348"
       transform="translate(-7.87745)" />
  </g>
</svg>
