<?xml version="1.0" encoding="UTF-8" standalone="no"?>
<svg
   width="96"
   height="96"
   viewBox="0 0 96 96"
   fill="none"
   version="1.1"
   id="svg518"
   sodipodi:docname="avatar--extended-u--red-white-white--a--bg--a--padding--round.svg"
   inkscape:version="1.2 (dc2aedaf03, 2022-05-15)"
   inkscape:export-filename="avatar--extended-u--red-white-white--a--bg--a--padding--round.png"
   inkscape:export-xdpi="512"
   inkscape:export-ydpi="512"
   xmlns:inkscape="http://www.inkscape.org/namespaces/inkscape"
   xmlns:sodipodi="http://sodipodi.sourceforge.net/DTD/sodipodi-0.dtd"
   xmlns="http://www.w3.org/2000/svg"
   xmlns:svg="http://www.w3.org/2000/svg">
  <defs
     id="defs522">
    <mask
       maskUnits="userSpaceOnUse"
       id="mask525">
      <path
         fill-rule="evenodd"
         clip-rule="evenodd"
         d="M 86,10 H 10 V 86 H 86 Z M 84.4167,45.625 H 11.5833 v 19 h 72.8334 z"
         fill="#ff0000"
         id="path527"
         style="fill:#ffffff" />
    </mask>
  </defs>
  <sodipodi:namedview
     id="namedview520"
     pagecolor="#ffffff"
     bordercolor="#666666"
     borderopacity="1.0"
     inkscape:showpageshadow="2"
     inkscape:pageopacity="0.0"
     inkscape:pagecheckerboard="0"
     inkscape:deskcolor="#d1d1d1"
     showgrid="false"
     inkscape:zoom="10.697917"
     inkscape:cx="28.884128"
     inkscape:cy="48.140213"
     inkscape:window-width="2560"
     inkscape:window-height="1377"
     inkscape:window-x="2552"
     inkscape:window-y="-6"
     inkscape:window-maximized="1"
     inkscape:current-layer="svg518" />
  <rect
     width="96"
     height="96"
     rx="48"
     fill="#1A1A1A"
     id="rect489" />
  <g
     mask="url(#mask525)"
     id="g508">
    <path
       d="M36.793 34.7H25.0417V68.7813H36.793V34.7Z"
       fill="#D20000"
       id="path494" />
    <path
       d="M59.3555 81.25C65.3263 81.25 70.1667 76.9701 70.1667 71.6906V38.025H67.3463V71.6906C67.3463 75.5929 63.7687 78.7562 59.3555 78.7562H29.468C31.2571 80.3241 33.4646 81.25 35.8529 81.25H59.3555Z"
       fill="#D20000"
       id="path496" />
    <path
       d="M27.9104 77.0938H58.4154C62.3095 77.0938 65.4662 74.3025 65.4662 70.8594V22.6469H62.6459V70.8594C62.6459 72.9253 60.7518 74.6 58.4154 74.6H26.3992C26.8196 75.5033 27.3279 76.3401 27.9104 77.0938Z"
       fill="#D20000"
       id="path498" />
    <path
       d="M25.7505 72.9375H57.4753C59.2925 72.9375 60.7656 71.6349 60.7656 70.0281V32.6219H57.9453V70.0281C57.9453 70.2577 57.7349 70.4438 57.4753 70.4438H25.1863C25.3053 71.3068 25.4959 72.1411 25.7505 72.9375Z"
       fill="#D20000"
       id="path500" />
    <rect
       x="62.646"
       y="20.9844"
       width="6.23438"
       height="2.82031"
       transform="rotate(-90 62.646 20.9844)"
       fill="white"
       id="rect502" />
    <rect
       x="67.3464"
       y="36.3625"
       width="6.23437"
       height="2.82031"
       transform="rotate(-90 67.3464 36.3625)"
       fill="white"
       id="rect504" />
    <rect
       x="57.9453"
       y="30.9594"
       width="6.23438"
       height="2.82031"
       transform="rotate(-90 57.9453 30.9594)"
       fill="white"
       id="rect506" />
  </g>
  <g
     id="g174"
     style="display:none">
    <path
       d="M 29.7131,62.25 V 48 h 15.8847 c 2.0302,0 3.5026,0.5225 4.4173,1.5675 0.8924,1.045 1.3609,2.47 1.3609,4.2513 V 62.25 H 47.1371 V 53.7 c 0,-0.7125 -0.1338,-1.235 -0.3569,-1.5437 -0.2231,-0.3088 -0.6693,-0.4751 -1.3163,-0.4751 h -2.811 V 62.25 H 38.414 V 51.6812 H 33.952 V 62.25 Z"
       fill="#ffffff"
       id="path510" />
    <path
       d="m 61.4661,57.2625 -3.6719,-0.76 c -1.3516,-0.285 -2.3879,-0.7837 -3.1087,-1.4962 -0.7209,-0.7125 -1.0588,-1.6626 -1.0588,-2.85 0,-0.5463 0.0901,-1.0688 0.2929,-1.5913 0.2027,-0.4987 0.5181,-0.95 0.9461,-1.33 0.428,-0.38 0.9686,-0.665 1.6445,-0.9025 C 57.186,48.1187 57.9744,48 58.898,48 h 7.3888 v 3.4438 h -7.7267 c -0.4505,0 -0.7659,0.0712 -0.9011,0.2137 -0.1577,0.1425 -0.2252,0.3088 -0.2252,0.475 0,0.19 0.0675,0.3563 0.2027,0.4987 0.1352,0.1426 0.3604,0.2613 0.6983,0.3088 l 3.334,0.6888 c 1.6445,0.3562 2.8159,0.8787 3.5367,1.5674 0.7209,0.6888 1.0813,1.5913 1.0813,2.7313 0,1.2825 -0.473,2.3275 -1.3966,3.135 -0.9236,0.8075 -2.3203,1.1875 -4.19,1.1875 h -7.0735 v -3.4438 h 7.7943 c 0.4731,0 0.7885,-0.0712 0.9236,-0.2137 0.1352,-0.1425 0.2253,-0.3088 0.2253,-0.5462 0,-0.2376 -0.1126,-0.4038 -0.3154,-0.5226 -0.2027,-0.095 -0.473,-0.1899 -0.7884,-0.2612 z"
       fill="#ffffff"
       id="path512" />
    <path
       d="M 27.4624,54.5312 V 62.25 h -9.2968 c -1.3572,0 -2.3977,-0.3088 -3.1216,-0.9263 -0.7238,-0.6175 -1.0857,-1.4249 -1.0857,-2.4224 0,-1.0925 0.3393,-1.9475 1.0631,-2.6125 0.7012,-0.665 1.5608,-1.3538 2.5561,-2.0663 l 3.8453,-2.7787 H 13.9583 V 48 h 6.2657 c 2.5787,0 4.4335,0.5937 5.5645,1.7338 1.1084,1.1399 1.6739,2.755 1.6739,4.7974 z m -8.0754,4.275 h 4.0038 V 54.08 l -4.0942,3.3488 c -0.2715,0.2137 -0.4524,0.38 -0.5429,0.475 -0.1131,0.095 -0.1584,0.2374 -0.1584,0.3799 0,0.19 0.0453,0.3088 0.181,0.4038 0.1131,0.095 0.3167,0.1187 0.6107,0.1187 z"
       fill="#ffffff"
       id="path514" />
    <path
       d="m 74.0649,62.25 h 2.4491 c 1.9535,0 3.352,-0.5225 4.2178,-1.5675 0.8879,-1.045 1.3097,-2.4463 1.3097,-4.2512 V 48 h -4.2178 v 8.55 c 0,0.7362 -0.111,1.2587 -0.333,1.5675 -0.222,0.3087 -0.6659,0.4513 -1.3319,0.4513 H 74.42 c -0.6659,0 -1.1099,-0.1426 -1.3319,-0.4513 -0.222,-0.3088 -0.333,-0.8313 -0.333,-1.5675 V 48 h -4.2177 v 8.4313 c 0,1.8049 0.4217,3.2062 1.3097,4.2512 0.8657,1.045 2.2643,1.5675 4.2178,1.5675 z"
       fill="#ffffff"
       id="path516" />
  </g>
  <g
     id="g246">
    <path
       d="M 37.59055,62.25 V 48 h 15.8847 c 2.0302,0 3.5026,0.5225 4.4173,1.5675 0.8924,1.045 1.3609,2.47 1.3609,4.2513 V 62.25 h -4.2389 V 53.7 c 0,-0.7125 -0.1338,-1.235 -0.3569,-1.5437 -0.2231,-0.3088 -0.6693,-0.4751 -1.3163,-0.4751 h -2.811 V 62.25 h -4.2389 V 51.6812 h -4.462 V 62.25 Z"
       fill="#ffffff"
       id="path176" />
    <path
       d="m 71.34355,57.2625 -3.6719,-0.76 c -1.3516,-0.285 -2.3879,-0.7837 -3.1087,-1.4962 -0.7209,-0.7125 -1.0588,-1.6626 -1.0588,-2.85 0,-0.5463 0.0901,-1.0688 0.2929,-1.5913 0.2027,-0.4987 0.5181,-0.95 0.9461,-1.33 0.428,-0.38 0.9686,-0.665 1.6445,-0.9025 C 67.06345,48.1187 67.85185,48 68.77545,48 h 7.3888 v 3.4438 h -7.7267 c -0.4505,0 -0.7659,0.0712 -0.9011,0.2137 -0.1577,0.1425 -0.2252,0.3088 -0.2252,0.475 0,0.19 0.0675,0.3563 0.2027,0.4987 0.1352,0.1426 0.3604,0.2613 0.6983,0.3088 l 3.334,0.6888 c 1.6445,0.3562 2.8159,0.8787 3.5367,1.5674 0.7209,0.6888 1.0813,1.5913 1.0813,2.7313 0,1.2825 -0.473,2.3275 -1.3966,3.135 -0.9236,0.8075 -2.3203,1.1875 -4.19,1.1875 h -7.0735 v -3.4438 h 7.7943 c 0.4731,0 0.7885,-0.0712 0.9236,-0.2137 0.1352,-0.1425 0.2253,-0.3088 0.2253,-0.5462 0,-0.2376 -0.1126,-0.4038 -0.3154,-0.5226 -0.2027,-0.095 -0.473,-0.1899 -0.7884,-0.2612 z"
       fill="#ffffff"
       id="path178" />
    <path
       d="M 33.33985,54.5312 V 62.25 h -9.2968 c -1.3572,0 -2.3977,-0.3088 -3.1216,-0.9263 -0.7238,-0.6175 -1.0857,-1.4249 -1.0857,-2.4224 0,-1.0925 0.3393,-1.9475 1.0631,-2.6125 0.7012,-0.665 1.5608,-1.3538 2.5561,-2.0663 l 3.8453,-2.7787 h -7.4645 V 48 h 6.2657 c 2.5787,0 4.4335,0.5937 5.5645,1.7338 1.1084,1.1399 1.6739,2.755 1.6739,4.7974 z m -8.0754,4.275 h 4.0038 V 54.08 l -4.0942,3.3488 c -0.2715,0.2137 -0.4524,0.38 -0.5429,0.475 -0.1131,0.095 -0.1584,0.2374 -0.1584,0.3799 0,0.19 0.0453,0.3088 0.181,0.4038 0.1131,0.095 0.3167,0.1187 0.6107,0.1187 z"
       fill="#ffffff"
       id="path180" />
  </g>
</svg>
