<svg xmlns="http://www.w3.org/2000/svg" width="939.813" height="549.25" viewBox="0 0 939.813 549.25">
  <defs>
    <style>
      .cls-1 {
        fill-rule: evenodd;
      }
    </style>
  </defs>
  <path id="Snail" class="cls-1" d="M157.73,168.534c9.493,3.312,22.964-20.7,27.538-46.372s2.769-20.368,2.755-36.2a28.669,28.669,0,1,0-45.364,23.324c1.927,1.383,15.359,6.4,17.661,17.807C163.64,143.554,151.588,166.39,157.73,168.534Zm-58.514-2.1c9.925-1.6,10.346-29.137,2.156-53.889S94.115,93.314,86.572,79.4a28.669,28.669,0,1,0-28.8,42.1c2.353,0.3,16.555-1.68,24.007,7.258C92.529,141.653,92.793,167.472,99.216,166.435Zm302.222,24.356-22.581-.871c-4.722,14.79,21.578,1.081,21.6,1.1Zm41.483,415.693c111.435,0.414,339.153-.443,339.153-0.443s-36.64-14.811-54.542-21.417c27.579-28.431,79.813-4.337,101.763-26.967,0.026-.5.051-1,0.076-1.5l-132.9-13.891c-2-22.426,64.811-6.251,69.188-29.624l56.515,9.089-2.329-2.445c4.209-13.187,46.094,10.394,41.24-12.4q-4.5-2.79-9.007-5.582l43.315-5.659c-10.107-9.8-75.776-18.3-82.461-6.8l3.162,3.437q-0.024.857-.05,1.714l-6.542.332q-12.17.531-24.342,1.062l3.574-9.147c-1.158-1.123-74.836-.229-71.112-22.967L744.9,442.612c6.668-6.874,48.115,5.209,26.44-15.811l2.06-2.361,39.8,8.648c14.011-14.445-47.324-13.764-54.318-13.635l-1.327-5,5.922-20.687,101.911-2.99-105.049-6.266q0.879-3.829,1.761-7.658c39.454-40.674,190.882,45.943,200.476-5.24C936.2,312.226,780.246,385.363,742.643,348.9l-4.591-9.089-8.419-3.527-1.187-1.152,0.928-.862c6.486,6.29,49.076,2.564,50.337-7.1,31.7-32.681-38.56,1.374-42.387-16.624l75.33-24.225c-28.311-27.455-112.132,47.608-144.644,16.078q-0.081-.82-0.161-1.64c17.815-18.365,43.5-16.959,56.3-30.16l-39.356-10.439,15.1-14.85c-16.931-16.42,98.667-24.813,98.607-29.935-28.123-27.273-101.995,24.053-127.032-.228l-26.8-8.465c5.523-11.423,57.768,18.864,52.461-6.064l-20.115-2.536c-0.238-.294-0.476-0.586-0.714-0.879-13.972-13.55,83.341-35.711,83.763-38.951,0,0-165.438,47.738-194.787,47.108-10.387-.223-12.818-10.807-3.88-16.375l32.215-7.706,0.714-1.163-69.411,7.152c-0.112-.171-0.223-0.341-0.335-0.51q0.31-1.507.621-3.015c-12.348-11.975-108.518,9.42-118.3,18.133,0,0-8.749,3.089-35.96,16.537A204.32,204.32,0,0,0,257.56,387.02c-0.162,2.3.8,21.283-12.134,21.294s-17.506-3.044-21.507-28.9A669.358,669.358,0,0,1,215.377,275.6a77.408,77.408,0,1,0-110.155,70.2c1,0.467,7.985,1.919,7.985,1.919s0.241,28.066,5.777,103.148S201.95,606.087,266.553,606.03c64.648-.056,164.885-0.155,195-0.182C574.393,605.75,442.921,606.484,442.921,606.484Zm437.508-329.6s-35.633-.6-36.527,1.255-0.858,1.849,1.477,3.75S880.429,276.88,880.429,276.88Zm-70.712,51.934c2.921,6.573,16.83,5.5,21.245.943C829.853,329.27,811.01,318.92,809.717,328.814Zm56.72-13.951c-1.334-5.07-14.552-4.628-17.522,1.517,0.01,0.226.021,0.453,0.031,0.68,1.042,6.706,16.223,7.034,18.24.718M971.115,310.9a13.1,13.1,0,0,1,1.381,1.711c-1.655,6.988-13.5,8.909-18.929,6.31-1.549-2-8.441-4.5-4.648-5.991s10.87-3.937,14.847-3.839S970.388,310.2,971.115,310.9ZM815.889,116.6l-0.036.893q0.231,0.641.461,1.281c6.594,6.394,35.69,5.728,42.8-1.606C859.118,117.165,825.173,98.281,815.889,116.6ZM884.244,449.54c-3.02-8.032-57.773-9-62.564-4.057l-0.233.145c0.05,0.2.1,0.405,0.148,0.608,9.8,9.508,51.828,17.055,62.81,5.734l0.84-2.245,0.167,0.161ZM555.27,539.878a166.919,166.919,0,0,0,73.269-138.417c-0.08-92.289-74.99-167.039-167.315-166.959s-167.1,74.961-167.024,167.25c0.041,47.573,20.538,89.895,51.91,120.89,12.533,12.382,30.427,20.9,35.826,14.49,9.68-11.5-25.177-20.722-25.245-98.841S417.979,321.479,451.96,318.16s92.645,15.814,92.69,67.611c0.042,47.486-43.414,69.744-68.725,69.567a18.45,18.45,0,0,1-16.73-10.845c-6.577-15.6,8.941-23.741,13.956-24.3s35.668-1.468,33.966-32.631C505,348.776,450.643,354.66,426.587,371s-39.361,46.789-33.922,96.073c4.543,41.162,42.028,76.368,81.331,86.182C507.586,561.642,542.954,548.251,555.27,539.878Z" transform="translate(-32.688 -57.344)"/>
</svg>
