<svg width="1080" height="728" viewBox="0 0 1080 728" fill="none" xmlns="http://www.w3.org/2000/svg">
<path d="M438.95 437.529L474 483H395.065L352.606 421.09H261.987V483H203V363.377H368.849C387.086 363.377 401.334 353.233 401.334 337.143C401.334 318.955 389.081 309.861 368.849 309.861H203L241.47 249H364.004C407.319 249 462.032 265.789 462.032 332.596C462.032 368.973 443.509 399.054 412.163 406.749C418.717 412.695 425.841 421.09 438.95 437.529Z" fill="#C70408"/>
<path d="M732.82 437.529L768 483H688.774L646.158 421.09H555.205V483H496V363.377H662.461C680.765 363.377 695.066 353.233 695.066 337.143C695.066 318.955 682.768 309.861 662.461 309.861H496L534.612 249H657.598C701.073 249 755.987 265.789 755.987 332.596C755.987 368.973 737.396 399.054 705.935 406.749C712.513 412.695 719.663 421.09 732.82 437.529Z" fill="#090909"/>
<path d="M912.858 422.839H1057L1016.12 483H912.858C841.555 483 789 431.583 789 363.726C789 295.17 841.555 249 912.858 249H1057L1016.12 309.861H912.858C878.436 309.861 852.619 333.296 852.619 366.874C852.619 400.103 878.128 422.839 912.858 422.839Z" fill="#090909"/>
<path d="M591.451 100.831C546.436 74.8597 494.203 60 438.5 60C269.225 60 132 197.225 132 366.5C132 535.775 269.225 673 438.5 673C492.751 673 543.709 658.905 587.914 634.178C527.087 685.245 448.635 716 363 716C169.7 716 13 559.3 13 366C13 172.7 169.7 16 363 16C450.305 16 530.143 47.9656 591.451 100.831Z" fill="#090909"/>
<path d="M578.182 208H684.761C632.812 128.519 543.039 76 441 76C374.534 76 313.273 98.2832 264.28 135.786C298.176 119.268 336.256 110 376.5 110C458.334 110 531.217 148.322 578.182 208Z" fill="#C60508"/>
<path d="M681.17 531.364C682.386 529.59 683.583 527.802 684.761 526H679.121L681.17 531.364Z" fill="#C60508"/>
<path d="M663.899 554.086H622.767L609.796 571H595.598L630.402 526H600.046C599.15 527.508 597.919 528.831 596.4 529.98L596.392 529.986C595.947 530.319 595.469 530.631 594.958 530.924C595.762 531.447 596.492 532.09 597.15 532.841C598.178 534.017 598.935 535.438 599.453 537.052C600.074 538.744 600.351 540.7 600.351 542.869C600.351 543.74 600.311 544.671 600.232 545.661L600.231 545.673C600.148 546.646 599.984 547.672 599.745 548.748L595.372 571H582.496L587.03 548.042C587.169 547.355 587.271 546.708 587.339 546.101C587.409 545.415 587.441 544.811 587.441 544.287C587.441 543.091 587.209 542.212 586.848 541.563C586.495 540.929 585.958 540.403 585.15 539.992L585.117 539.975L585.084 539.957C583.393 539.014 579.986 538.387 574.44 538.387H566.89C519.949 590.347 452.038 623 376.5 623C334.84 623 295.5 613.068 260.719 595.444C310.289 634.617 372.914 658 441 658C530.475 658 610.518 617.618 663.899 554.086Z" fill="#C60508"/>
<path d="M577.167 526.281C577.241 526.188 577.316 526.094 577.391 526H579.207C578.557 526.113 577.877 526.207 577.167 526.281Z" fill="#C60508"/>
<path d="M644.762 526L632.171 542.287H671.675L665.539 526H644.762Z" fill="#C60508"/>
<path d="M522.218 528.486H572.974C578.914 528.486 583.538 527.44 586.847 525.347C590.231 523.253 591.923 519.877 591.923 515.218C591.923 512.585 590.832 510.492 588.652 508.939C586.546 507.318 582.937 506.508 577.824 506.508H526.504L522.218 528.486ZM600.382 514.611C600.382 516.569 600.231 518.392 599.931 520.08C599.705 521.768 599.216 523.321 598.464 524.739C597.712 526.089 596.622 527.305 595.193 528.385C593.84 529.398 592.035 530.242 589.779 530.917C590.832 531.12 591.847 531.491 592.825 532.031C593.878 532.504 594.817 533.213 595.645 534.158C596.472 535.104 597.111 536.285 597.562 537.703C598.088 539.121 598.352 540.843 598.352 542.869C598.352 543.679 598.314 544.557 598.239 545.502C598.164 546.38 598.013 547.325 597.788 548.338L593.727 569H584.93L588.99 548.439C589.14 547.697 589.253 546.988 589.328 546.312C589.404 545.57 589.441 544.894 589.441 544.287C589.441 541.383 588.313 539.358 586.057 538.21C583.877 536.994 580.004 536.387 574.44 536.387H520.639L514.21 569H505.976L519.737 498.709H577.147C585.193 498.709 591.058 500.127 594.742 502.963C598.502 505.799 600.382 509.681 600.382 514.611Z" fill="#090909"/>
<path d="M654.038 498.709H666.558L693.402 569H683.928L677.499 552.086H621.78L608.809 569H599.673L654.038 498.709ZM659.339 503.874L628.096 544.287H674.566L659.339 503.874Z" fill="#090909"/>
<path d="M697.577 549.148C697.577 548.473 697.615 547.595 697.69 546.515C697.765 545.435 697.915 544.05 698.141 542.362C698.367 540.674 698.667 538.649 699.043 536.285C699.494 533.854 700.058 530.985 700.735 527.676C701.863 521.937 703.254 517.176 704.908 513.395C706.563 509.546 708.856 506.474 711.789 504.178C714.721 501.883 718.443 500.296 722.955 499.418C727.466 498.473 733.143 498 739.986 498H769.988C778.335 498 784.538 499.452 788.599 502.355C792.734 505.191 794.802 508.837 794.802 513.294C794.802 514.037 794.765 514.813 794.689 515.623C794.614 516.366 794.501 517.143 794.351 517.953H786.23C786.456 516.873 786.568 515.86 786.568 514.914C786.568 511.876 785.215 509.513 782.508 507.825C779.801 506.136 775.139 505.292 768.522 505.292H736.828C732.166 505.292 728.256 505.596 725.098 506.204C722.015 506.812 719.383 507.96 717.202 509.648C715.097 511.268 713.368 513.598 712.014 516.636C710.736 519.607 709.608 523.524 708.63 528.385C707.954 531.761 707.39 534.631 706.939 536.994C706.563 539.29 706.262 541.214 706.036 542.767C705.811 544.32 705.66 545.603 705.585 546.616C705.51 547.629 705.472 548.541 705.472 549.351C705.472 553.605 706.901 556.745 709.758 558.77C712.616 560.796 716.827 561.809 722.391 561.809H757.469C761.228 561.809 764.424 561.572 767.056 561.1C769.763 560.627 772.019 559.884 773.823 558.872C775.628 557.791 777.019 556.475 777.996 554.922C779.049 553.301 779.801 551.377 780.252 549.148H788.373C787.696 552.457 786.681 555.36 785.328 557.859C784.049 560.29 782.17 562.349 779.688 564.037C777.282 565.658 774.162 566.907 770.327 567.785C766.567 568.595 761.905 569 756.341 569H723.744C714.646 569 707.991 567.379 703.78 564.138C699.645 560.897 697.577 555.901 697.577 549.148Z" fill="#090909"/>
<path d="M801.38 569L815.141 498.709H823.374L809.501 569H801.38Z" fill="#090909"/>
<path d="M841.021 498.709H858.955L906.891 561.708L919.298 498.709H927.532L913.658 569H901.928L852.413 504.28H848.014L835.382 569H827.261L841.021 498.709Z" fill="#090909"/>
<path d="M987.539 569H954.942C945.844 569 939.189 567.379 934.978 564.138C930.843 560.897 928.775 555.901 928.775 549.148C928.775 548.473 928.813 547.595 928.888 546.515C928.963 545.435 929.113 544.05 929.339 542.362C929.564 540.674 929.865 538.649 930.241 536.285C930.692 533.854 931.256 530.985 931.933 527.676C933.061 521.937 934.452 517.176 936.106 513.395C937.761 509.546 940.054 506.474 942.986 504.178C945.919 501.883 949.641 500.296 954.153 499.418C958.664 498.473 964.341 498 971.184 498H1001.19C1009.53 498 1015.74 499.452 1019.8 502.355C1023.93 505.191 1026 508.837 1026 513.294C1026 514.037 1025.96 514.813 1025.89 515.623C1025.81 516.366 1025.7 517.143 1025.55 517.953H1017.43C1017.65 516.873 1017.77 515.86 1017.77 514.914C1017.77 511.876 1016.41 509.513 1013.71 507.825C1011 506.136 1006.34 505.292 999.72 505.292H968.026C963.364 505.292 959.454 505.596 956.296 506.204C953.213 506.812 950.581 507.96 948.4 509.648C946.295 511.268 944.566 513.598 943.212 516.636C941.934 519.607 940.806 523.524 939.828 528.385C939.152 531.761 938.588 534.631 938.137 536.994C937.761 539.29 937.46 541.214 937.234 542.767C937.009 544.32 936.858 545.603 936.783 546.616C936.708 547.629 936.67 548.541 936.67 549.351C936.67 553.605 938.099 556.745 940.956 558.77C943.814 560.796 948.024 561.809 953.589 561.809H988.667C992.727 561.809 996.148 561.471 998.931 560.796C1001.71 560.053 1004.01 558.939 1005.81 557.454C1007.62 555.901 1009.04 553.942 1010.1 551.579C1011.22 549.148 1012.13 546.279 1012.8 542.97H974.455L975.808 535.678H1022.95C1022.05 541.552 1020.96 546.616 1019.68 550.87C1018.41 555.057 1016.49 558.5 1013.93 561.201C1011.38 563.902 1007.99 565.894 1003.78 567.177C999.645 568.392 994.231 569 987.539 569Z" fill="#090909"/>
<path d="M280.316 498.709C287.847 498.709 293.532 499.992 297.371 502.558C301.211 505.056 303.13 508.871 303.13 514.003C303.13 514.746 303.093 515.488 303.02 516.231C302.946 516.974 302.835 517.75 302.687 518.561H294.603C294.676 518.088 294.713 517.649 294.713 517.244C294.787 516.771 294.824 516.332 294.824 515.927C294.824 514.374 294.529 512.99 293.938 511.775C293.347 510.492 292.351 509.445 290.948 508.635C289.619 507.757 287.81 507.116 285.521 506.71C283.232 506.238 280.427 506.001 277.104 506.001H238.231C232.398 506.001 227.969 507.183 224.941 509.546C221.914 511.842 220.401 515.387 220.401 520.181C220.401 521.869 220.696 523.253 221.287 524.334C221.951 525.414 223.022 526.292 224.498 526.967C225.975 527.575 227.932 528.048 230.368 528.385C232.878 528.655 236.016 528.824 239.782 528.892L265.365 529.398C271.419 529.533 276.514 529.837 280.648 530.31C284.783 530.782 288.105 531.66 290.616 532.943C293.2 534.158 295.046 535.846 296.153 538.007C297.261 540.168 297.814 542.97 297.814 546.414C297.814 550.06 297.298 553.301 296.264 556.137C295.304 558.973 293.68 561.336 291.391 563.227C289.102 565.117 286.038 566.569 282.199 567.582C278.433 568.527 273.782 569 268.244 569H228.707C225.827 569 223.059 568.696 220.401 568.088C217.817 567.481 215.528 566.535 213.534 565.252C211.541 563.97 209.953 562.383 208.772 560.492C207.591 558.534 207 556.272 207 553.706C207 552.963 207.037 552.221 207.111 551.478C207.185 550.668 207.295 549.857 207.443 549.047H215.417C215.269 549.587 215.195 550.094 215.195 550.566C215.195 550.971 215.195 551.41 215.195 551.883C215.195 554.989 216.451 557.42 218.961 559.175C221.545 560.863 226.16 561.708 232.805 561.708H269.241C272.121 561.708 274.815 561.471 277.326 560.999C279.836 560.526 282.014 559.749 283.86 558.669C285.706 557.521 287.146 556.002 288.179 554.111C289.213 552.221 289.73 549.824 289.73 546.92C289.73 545.029 289.361 543.443 288.622 542.16C287.884 540.877 286.629 539.864 284.857 539.121C283.085 538.311 280.685 537.737 277.658 537.399C274.631 536.994 270.792 536.758 266.14 536.69L239.339 536.083C234.097 536.015 229.704 535.711 226.16 535.171C222.689 534.563 219.884 533.652 217.743 532.437C215.675 531.221 214.199 529.668 213.313 527.777C212.501 525.887 212.094 523.557 212.094 520.789C212.094 517.615 212.611 514.678 213.645 511.977C214.679 509.276 216.266 506.947 218.407 504.989C220.548 503.03 223.243 501.511 226.492 500.431C229.741 499.283 233.58 498.709 238.01 498.709H280.316Z" fill="#090909"/>
<path d="M309.561 569L323.072 498.709H331.157L317.535 569H309.561Z" fill="#090909"/>
<path d="M348.374 498.709H366.426L392.784 558.669L442.954 498.709H460.341L446.83 569H438.856L451.26 504.28H448.048L393.227 569H387.69L359.56 504.28H355.24L342.837 569H334.863L348.374 498.709Z" fill="#090909"/>
</svg>
