<svg width="4096" height="4096" viewBox="0 0 4096 4096" fill="none" xmlns="http://www.w3.org/2000/svg">
<path d="M609 919.013L696.56 892.688C1220.66 735.11 1638.08 654.043 2059.99 654H2060.01C2481.92 654.043 2899.34 735.11 3423.44 892.688L3511 919.013L3507.01 1010.31C3499.62 1179.15 3488.37 1335.57 3472.59 1480.89C3430.83 1475.55 3391.67 1472.61 3355.35 1471.55C3370.96 1328.67 3382.2 1173.74 3389.58 1005.17C2871.15 849.302 2465.97 771.509 2060 771.467C1654.03 771.509 1248.85 849.302 730.423 1005.17C737.161 1159.18 747.124 1301.81 760.7 1434.26C721.431 1432.16 681.835 1431.09 642.224 1431.11C629.131 1300 619.545 1160.04 612.994 1010.31L609 919.013Z" fill="black"/>
<path d="M1033.09 2690.1C1258.29 3009.15 1580.41 3219.49 2010.69 3418.23L2060 3441L2109.31 3418.23C2539.59 3219.49 2861.71 3009.15 3086.91 2690.1H2940.13C2734.95 2948.29 2449.21 3131.83 2060 3311.59C1670.79 3131.83 1385.05 2948.29 1179.87 2690.1H1033.09Z" fill="black"/>
<path fill-rule="evenodd" clip-rule="evenodd" d="M170.777 1566.05C464.635 1472.01 872.119 1487.68 1158.14 1566.05C1135.94 1550.37 1062.54 1513.54 946.563 1491.6C1317.48 1391.04 2138.45 1218.12 2455.04 1330.96L2470.71 1362.3C2549.07 1394.96 2729.31 1482.2 2823.34 1569.96H3066.26C3000.96 1536.14 2816.29 1451.97 2600.01 1385.81C2701.88 1410.63 2948.72 1482.2 3121.12 1569.96C3222.99 1530.78 3583.45 1487.68 4069.3 1765.87C4015.75 1758.03 3884.37 1736.88 3787.2 1714.93C3801.56 1734.53 3851.45 1777.62 3936.09 1793.3C3883.84 1798.52 3756.64 1783.11 3665.74 1679.67C3690.55 1708.4 3737.04 1787.81 3724.51 1875.58C3606.96 1460.26 3078.02 1609.15 3031 1808.97C3033.61 1781.66 3052.94 1709.73 3109.36 1640.49C3046.67 1691.43 2899.35 1802.7 2811.59 1840.31H2482.46L2788.08 1820.72C2816.81 1806.36 2883.68 1765.09 2921.29 1714.93L1765.45 1730.61C1778.51 1716.24 1816.38 1682.02 1863.4 1660.08H2176.85L1851.65 1636.57C1779.82 1679.67 1615.78 1774.49 1534.28 1808.97L2247.38 1840.31C2039.72 1841.62 1560.92 1839.53 1307.03 1820.72L1459.84 1808.97C1527.75 1777.62 1676.12 1707.1 1726.27 1675.75L1307.03 1660.08C1278.3 1686.2 1208.29 1747.85 1158.14 1785.46C1209.53 1728.2 1252.11 1689.1 1283.01 1660.73C1334.56 1613.39 1353.57 1595.93 1326.62 1573.88C1419.35 1576.49 1636.15 1583.29 1761.53 1589.56C1651.82 1572.58 1383.04 1538.62 1185.57 1538.62C1318.78 1566.05 1303.11 1619.59 1252.18 1632.65C1177.73 1630.04 1002.2 1622.47 895.628 1613.06C947.869 1647.02 1051.57 1743.93 1048.43 1859.91C887.792 1475.93 382.355 1609.15 300.074 1855.99C306.605 1819.42 333.77 1729.04 390.191 1660.08H159.022C140.738 1679.67 97.8997 1722.77 72.8237 1738.44L170.777 1566.05ZM2768.49 1569.96C2478.55 1334.88 2212.11 1280.02 1612.64 1409.32C1676.19 1426.27 1729 1440.85 1774.8 1453.5C2067.86 1534.43 2073.84 1536.08 2768.49 1569.96Z" fill="black"/>
<path d="M135.514 1581.72C60.2858 1578.58 48.009 1593.47 45.397 1601.31C61.0694 1607.58 61.0694 1624.82 64.9875 1632.65C43.0461 1657.73 55.8453 1697.96 64.9875 1714.94L135.514 1581.72Z" fill="#FF0000"/>
<path d="M3774.08 2378C3739.43 2378 3714.87 2376.19 3700.39 2372.57C3685.91 2368.94 3678.67 2365.32 3678.67 2361.7L3701.94 2303.48C3716.94 2305.03 3744.35 2306.85 3784.17 2308.92C3824.5 2310.47 3874.15 2311.24 3933.1 2311.24H3971.89C3984.82 2311.24 3992.83 2307.88 3995.93 2301.15C3999.55 2293.91 4001.36 2284.33 4001.36 2272.43C4001.36 2260.53 3999.3 2250.96 3995.16 2243.71C3991.54 2236.47 3983.78 2232.84 3971.89 2232.84H3781.06C3744.86 2232.84 3718.75 2226.12 3702.72 2212.66C3686.69 2198.69 3678.67 2177.99 3678.67 2150.56V2119.51C3678.67 2112.27 3679.45 2103.73 3681 2093.9C3682.55 2084.07 3686.43 2074.23 3692.63 2064.4C3698.84 2054.57 3708.92 2046.55 3722.88 2040.34C3736.85 2033.61 3756.24 2030.25 3781.06 2030.25H3995.16C4026.19 2030.25 4048.16 2032.06 4061.09 2035.68C4074.02 2039.3 4080.49 2042.93 4080.49 2046.55L4072.73 2104.77C4057.73 2103.21 4030.07 2101.66 3989.73 2100.11C3949.39 2098.04 3900 2097 3841.57 2097H3802.78C3789.85 2097 3781.58 2100.63 3777.96 2107.87C3774.86 2114.6 3773.31 2122.62 3773.31 2131.93C3773.31 2141.77 3774.86 2150.05 3777.96 2156.77C3781.58 2162.98 3789.85 2166.09 3802.78 2166.09H3993.61C4028.77 2166.09 4054.63 2173.33 4071.18 2187.82C4087.73 2202.31 4096 2220.68 4096 2242.94V2288.73C4096 2298.05 4095.22 2307.88 4093.67 2318.23C4092.64 2328.58 4089.02 2338.41 4082.81 2347.73C4076.61 2356.52 4066.52 2363.77 4052.56 2369.46C4038.6 2375.15 4018.95 2378 3993.61 2378H3774.08Z" fill="#FF0000"/>
<path d="M3116.07 2378V1875H3210.71V2045.77C3232.43 2041.63 3258.54 2038.01 3289.05 2034.9C3319.56 2031.8 3354.47 2030.25 3393.77 2030.25H3432.56C3458.42 2030.25 3478.32 2033.87 3492.29 2041.11C3506.25 2048.36 3516.08 2057.42 3521.76 2068.28C3527.97 2079.15 3531.59 2090.28 3532.62 2101.66C3534.18 2112.53 3534.95 2121.84 3534.95 2129.6V2378H3440.32V2128.05C3440.32 2107.35 3427.9 2097 3403.08 2097H3233.98C3224.15 2097 3217.69 2098.04 3214.58 2100.11C3212 2101.66 3210.71 2106.32 3210.71 2114.08V2378H3116.07Z" fill="#FF0000"/>
<path d="M2838.25 2378C2798.95 2378 2772.06 2369.72 2757.58 2353.16C2743.1 2336.6 2735.86 2311.76 2735.86 2278.64V2097H2672.25V2030.25H2704.83C2714.66 2030.25 2721.64 2028.69 2725.77 2025.59C2730.43 2022.48 2733.79 2016.27 2735.86 2006.96L2751.37 1923.9H2830.49V2030.25H2991.84V2097H2830.49V2279.42C2830.49 2292.36 2833.6 2300.89 2839.8 2305.03C2846.01 2309.17 2855.32 2311.24 2867.73 2311.24H2977.1L2984.86 2370.24C2974 2371.79 2957.45 2373.6 2935.22 2375.67C2912.98 2377.22 2888.67 2378 2862.3 2378H2838.25Z" fill="#FF0000"/>
<path d="M2132.92 2378V2030.25H2196.53L2227.56 2045.77C2249.28 2041.63 2275.39 2038.01 2305.9 2034.9C2336.42 2031.8 2371.32 2030.25 2410.62 2030.25H2449.41C2475.27 2030.25 2495.18 2033.87 2509.14 2041.11C2523.1 2048.36 2532.93 2057.42 2538.62 2068.28C2544.82 2079.15 2548.44 2090.28 2549.48 2101.66C2551.03 2112.53 2551.8 2121.84 2551.8 2129.6V2378H2457.17V2128.05C2457.17 2107.35 2444.76 2097 2419.93 2097H2250.83C2241 2097 2234.54 2098.04 2231.44 2100.11C2228.85 2101.66 2227.56 2106.32 2227.56 2114.08V2378H2132.92Z" fill="#FF0000"/>
<path d="M1684.47 2378C1658.62 2378 1638.71 2374.64 1624.74 2367.91C1610.78 2361.18 1600.7 2352.64 1594.49 2342.29C1588.8 2331.94 1585.18 2321.08 1583.63 2309.69C1582.6 2298.31 1582.08 2287.96 1582.08 2278.64V2129.6C1582.08 2121.84 1582.6 2112.53 1583.63 2101.66C1585.18 2090.28 1588.8 2079.15 1594.49 2068.28C1600.7 2057.42 1610.78 2048.36 1624.74 2041.11C1639.22 2033.87 1659.13 2030.25 1684.47 2030.25H1851.25C1885.38 2030.25 1912.01 2033.61 1931.15 2040.34C1950.8 2046.55 1964.5 2056.9 1972.26 2071.39C1980.53 2085.88 1984.67 2105.28 1984.67 2129.6V2244.49H1848.92C1802.38 2244.49 1764.37 2243.45 1734.89 2241.38C1705.93 2239.31 1686.54 2238.02 1676.72 2237.5V2280.19C1676.2 2300.89 1688.61 2311.24 1713.95 2311.24H1753.51C1781.44 2311.24 1808.59 2310.99 1834.96 2310.47C1861.85 2309.43 1886.41 2308.4 1908.65 2307.36C1930.89 2305.81 1948.73 2304.52 1962.18 2303.48L1993.2 2353.94C1993.2 2369.98 1942.27 2378 1840.39 2378H1684.47ZM1676.72 2177.73H1890.03V2128.05C1890.03 2117.7 1888.74 2110.46 1886.16 2106.32C1884.09 2102.18 1877.36 2099.59 1865.99 2098.56C1854.61 2097.52 1835.22 2097 1807.81 2097H1713.95C1689.13 2097 1676.72 2107.35 1676.72 2128.05V2177.73Z" fill="#FF0000"/>
<path d="M1191.67 2378L1190.89 1995.32H989.208V1920.8H1496.52V1995.32H1294.06V2378H1191.67Z" fill="#FF0000"/>
<path d="M529.323 2378C493.123 2378 464.681 2372.83 443.995 2362.48C423.31 2352.13 408.571 2336.6 399.78 2315.9C391.506 2295.2 387.369 2269.59 387.369 2239.05V2059.74C387.369 2029.73 391.506 2004.63 399.78 1984.45C408.054 1963.75 422.534 1948.22 443.22 1937.87C463.905 1927.01 492.606 1921.57 529.323 1921.57H708.511C744.711 1921.57 772.895 1927.01 793.064 1937.87C813.749 1948.22 828.229 1963.75 836.503 1984.45C845.294 2004.63 849.69 2029.73 849.69 2059.74V2239.05C849.69 2284.59 839.606 2319.26 819.438 2343.07C799.269 2366.36 762.294 2378 708.511 2378H529.323ZM551.819 2303.48H686.792C705.926 2303.48 720.664 2298.57 731.007 2288.73C741.867 2278.9 747.297 2265.45 747.297 2248.37V2050.43C747.297 2035.42 741.867 2022.74 731.007 2012.39C720.147 2001.53 705.409 1996.09 686.792 1996.09H551.819C533.202 1996.09 518.205 2001.01 506.828 2010.84C495.451 2020.67 489.762 2033.87 489.762 2050.43V2248.37C489.762 2265.96 495.192 2279.68 506.052 2289.51C517.429 2298.82 532.685 2303.48 551.819 2303.48Z" fill="#FF0000"/>
<path d="M98.5148 2378V1996.09L5.42995 2003.08L0 1937.1L200.908 1913.81V2378H98.5148Z" fill="#FF0000"/>
<path d="M3968.22 2612.31V2546.73L3890.68 2454.27H3933.32L3972.75 2504.53L3985.01 2521.2H3987.67L3999.93 2504.53L4039.37 2454.27H4082L4071.61 2470.4L4003.4 2547.8V2612.31H3968.22Z" fill="black"/>
<path d="M3751.24 2612.31L3750.97 2479.8H3681.69V2454H3855.95V2479.8H3786.41V2612.31H3751.24Z" fill="black"/>
<path d="M3593.23 2612.31V2454.27H3628.4V2612.31H3593.23Z" fill="black"/>
<path d="M3349.11 2612.31V2475.77L3346.44 2454.27H3384.81L3475.41 2549.95L3485.8 2564.47H3488.73V2454.27H3523.91V2612.31H3490.06L3397.34 2515.01L3386.95 2502.38H3384.28V2612.31H3349.11Z" fill="black"/>
<path d="M3155.23 2615C3139.06 2615 3127.78 2610.61 3121.39 2601.83C3114.99 2593.05 3111.8 2581.4 3111.8 2566.89V2454.27H3146.97V2567.96C3146.97 2576.39 3149.01 2582.03 3153.1 2584.9C3157.18 2587.76 3162.24 2589.2 3168.28 2589.2H3224.77C3230.46 2589.2 3235.43 2587.76 3239.69 2584.9C3243.96 2581.85 3246.09 2576.21 3246.09 2567.96V2454.27H3281.26V2566.89C3281.26 2576.56 3279.93 2584.99 3277.27 2592.15C3274.6 2599.32 3270.16 2604.97 3263.94 2609.09C3257.73 2613.03 3249.11 2615 3238.1 2615H3155.23Z" fill="black"/>
<path d="M2850.07 2612.31V2475.77L2847.41 2454.27H2887.91L2948.13 2561.78L3010.48 2454.27H3046.45V2612.31H3011.28V2512.06H3008.35L2997.96 2535.44L2964.38 2596.19H2932.14L2898.57 2535.44L2887.91 2512.06H2885.25V2612.31H2850.07Z" fill="black"/>
<path d="M2581.69 2612.31V2475.77L2579.03 2454.27H2619.53L2679.75 2561.78L2742.1 2454.27H2778.07V2612.31H2742.9V2512.06H2739.97L2729.57 2535.44L2696 2596.19H2663.76L2630.19 2535.44L2619.53 2512.06H2616.86V2612.31H2581.69Z" fill="black"/>
<path d="M2386.14 2612.31C2373.71 2612.31 2363.94 2610.52 2356.83 2606.94C2349.73 2603.35 2344.67 2597.98 2341.65 2590.81C2338.8 2583.64 2337.38 2574.77 2337.38 2564.2V2502.11C2337.38 2491.72 2338.8 2483.03 2341.65 2476.04C2344.49 2468.87 2349.46 2463.5 2356.57 2459.91C2363.67 2456.15 2373.53 2454.27 2386.14 2454.27H2463.95C2476.39 2454.27 2486.07 2456.15 2492.99 2459.91C2500.1 2463.5 2505.07 2468.87 2507.92 2476.04C2510.94 2483.03 2512.45 2491.72 2512.45 2502.11V2564.2C2512.45 2579.97 2508.98 2591.97 2502.05 2600.22C2495.13 2608.28 2482.42 2612.31 2463.95 2612.31H2386.14ZM2393.87 2586.51H2456.49C2463.06 2586.51 2468.12 2584.81 2471.68 2581.4C2475.41 2578 2477.27 2573.34 2477.27 2567.43V2498.89C2477.27 2493.69 2475.41 2489.3 2471.68 2485.72C2467.95 2481.95 2462.88 2480.07 2456.49 2480.07H2393.87C2387.48 2480.07 2382.33 2481.77 2378.42 2485.18C2374.51 2488.58 2372.56 2493.15 2372.56 2498.89V2567.43C2372.56 2573.52 2374.42 2578.27 2378.15 2581.67C2382.06 2584.9 2387.3 2586.51 2393.87 2586.51Z" fill="black"/>
<path d="M2158.35 2612.31C2145.74 2612.31 2135.88 2610.52 2128.78 2606.94C2121.67 2603.35 2116.7 2597.98 2113.86 2590.81C2111.01 2583.64 2109.59 2574.77 2109.59 2564.2V2504.26C2109.59 2487.06 2113.41 2474.43 2121.05 2466.36C2128.69 2458.12 2141.12 2454 2158.35 2454H2238.56C2250.82 2454 2260.14 2454.72 2266.54 2456.15C2273.11 2457.4 2276.4 2458.75 2276.4 2460.18L2271.07 2482.49C2268.05 2481.95 2259.08 2481.42 2244.15 2480.88C2229.41 2480.16 2207.92 2479.8 2179.67 2479.8H2166.08C2151.87 2479.8 2144.77 2486.16 2144.77 2498.89V2567.43C2144.77 2573.52 2146.28 2578.27 2149.3 2581.67C2152.49 2584.9 2158.09 2586.51 2166.08 2586.51H2177.01C2206.49 2586.51 2229.32 2586.24 2245.49 2585.7C2261.83 2584.99 2271.95 2584.27 2275.86 2583.55L2286.79 2601.29C2286.79 2602.19 2285.28 2603.53 2282.26 2605.32C2279.42 2607.12 2274.09 2608.73 2266.27 2610.16C2258.45 2611.6 2247.17 2612.31 2232.43 2612.31H2158.35Z" fill="black"/>
<path d="M1834.7 2612.31C1822.09 2612.31 1812.23 2610.52 1805.13 2606.94C1798.02 2603.35 1793.05 2597.98 1790.2 2590.81C1787.36 2583.64 1785.94 2574.77 1785.94 2564.2V2504.26C1785.94 2487.06 1789.76 2474.43 1797.4 2466.36C1805.04 2458.12 1817.47 2454 1834.7 2454H1914.91C1927.16 2454 1936.49 2454.72 1942.88 2456.15C1949.46 2457.4 1952.74 2458.75 1952.74 2460.18L1947.41 2482.49C1944.39 2481.95 1935.42 2481.42 1920.5 2480.88C1905.76 2480.16 1884.26 2479.8 1856.02 2479.8H1842.43C1828.22 2479.8 1821.11 2486.16 1821.11 2498.89V2567.43C1821.11 2573.52 1822.62 2578.27 1825.64 2581.67C1828.84 2584.9 1834.44 2586.51 1842.43 2586.51H1853.36C1870.41 2586.51 1884.8 2586.42 1896.52 2586.24C1908.25 2585.88 1917.93 2585.61 1925.57 2585.43V2548.88L1909.58 2549.15L1874.67 2551.84V2525.5H1960.47V2601.02L1963.14 2606.67C1963.14 2608.1 1959.41 2609.45 1951.94 2610.7C1944.48 2611.77 1931.87 2612.31 1914.11 2612.31H1834.7Z" fill="black"/>
<path d="M1544.49 2612.31V2475.77L1541.82 2454.27H1580.19L1670.79 2549.95L1681.18 2564.47H1684.11V2454.27H1719.28V2612.31H1685.44L1592.71 2515.01L1582.32 2502.38H1579.66V2612.31H1544.49Z" fill="black"/>
<path d="M1437.37 2612.31V2454.27H1472.54V2612.31H1437.37Z" fill="black"/>
<path d="M1255.68 2612.31C1243.07 2612.31 1233.21 2610.52 1226.1 2606.94C1219 2603.35 1214.02 2597.98 1211.18 2590.81C1208.34 2583.64 1206.92 2574.77 1206.92 2564.2V2504.26C1206.92 2487.06 1210.74 2474.43 1218.37 2466.36C1226.01 2458.12 1238.45 2454 1255.68 2454H1335.88C1348.14 2454 1357.47 2454.72 1363.86 2456.15C1370.43 2457.4 1373.72 2458.75 1373.72 2460.18L1368.39 2482.49C1365.37 2481.95 1356.4 2481.42 1341.48 2480.88C1326.73 2480.16 1305.24 2479.8 1277 2479.8H1263.41C1249.2 2479.8 1242.09 2486.16 1242.09 2498.89V2567.43C1242.09 2573.52 1243.6 2578.27 1246.62 2581.67C1249.82 2584.9 1255.41 2586.51 1263.41 2586.51H1274.33C1303.82 2586.51 1326.65 2586.24 1342.81 2585.7C1359.15 2584.99 1369.28 2584.27 1373.19 2583.55L1384.11 2601.29C1384.11 2602.19 1382.6 2603.53 1379.58 2605.32C1376.74 2607.12 1371.41 2608.73 1363.59 2610.16C1355.78 2611.6 1344.5 2612.31 1329.75 2612.31H1255.68Z" fill="black"/>
<path d="M958.394 2612.31L1036.47 2454.27H1088.96L1166.76 2612.31H1125.73L1110.01 2578.18H1014.62L997.297 2612.31H958.394ZM1024.21 2551.84H1100.15L1063.64 2478.46H1060.98L1024.21 2551.84Z" fill="black"/>
<path d="M902.671 2615C895.565 2615 888.549 2613.92 881.621 2611.77C874.871 2609.45 867.143 2603.89 858.439 2595.11L839.254 2575.76C831.438 2567.69 822.823 2561.78 813.408 2558.02C804.171 2554.26 792.535 2552.37 778.502 2552.37H770.242V2612.31H735.069V2475.77L732.405 2454H850.445C861.814 2454 870.696 2455.52 877.091 2458.57C883.664 2461.62 888.46 2465.65 891.48 2470.66C894.677 2475.5 896.72 2480.7 897.608 2486.25C898.496 2491.81 898.941 2497.09 898.941 2502.11V2507.22C898.941 2511.16 898.408 2515.55 897.342 2520.39C896.276 2525.23 894.233 2529.98 891.213 2534.63C888.193 2539.29 883.841 2543.24 878.157 2546.46C872.65 2549.69 865.367 2551.57 856.307 2552.11C858.617 2553.36 861.548 2555.33 865.1 2558.02C868.653 2560.53 872.295 2563.3 876.025 2566.35C879.933 2569.4 883.486 2572.17 886.684 2574.68C889.881 2577.19 892.368 2578.98 894.144 2580.06C900.539 2583.82 906.224 2586.42 911.198 2587.85C916.171 2589.29 920.257 2590.09 923.455 2590.27C926.652 2590.45 928.517 2590.54 929.05 2590.54L923.721 2612.31C922.122 2612.85 919.458 2613.39 915.727 2613.92C911.997 2614.64 907.645 2615 902.671 2615ZM810.21 2527.91C816.961 2527.91 823 2527.83 828.329 2527.65C833.659 2527.29 838.455 2526.93 842.718 2526.57C850.534 2525.68 855.952 2523.52 858.972 2520.12C862.169 2516.54 863.768 2511.97 863.768 2506.41V2500.23C863.768 2494.5 862.258 2489.66 859.238 2485.72C856.219 2481.77 850.801 2479.8 842.985 2479.8H770.242V2526.57C778.058 2527.11 785.252 2527.47 791.825 2527.65C798.397 2527.83 804.526 2527.91 810.21 2527.91Z" fill="black"/>
<path d="M381.493 2612.31V2475.77L378.828 2454.27H419.33L479.549 2561.78L541.9 2454.27H577.872V2612.31H542.7V2512.06H539.769L529.377 2535.44L495.803 2596.19H463.562L429.988 2535.44L419.33 2512.06H416.665V2612.31H381.493Z" fill="black"/>
<path d="M274.379 2612.31V2454.27H309.552V2612.31H274.379Z" fill="black"/>
<path d="M76.1724 2612.31C64.093 2612.31 55.2111 2611.77 49.5266 2610.7C43.8422 2609.62 41 2608.37 41 2606.94L51.6583 2583.55C55.744 2584.27 65.8694 2584.99 82.0344 2585.7C98.3771 2586.24 120.76 2586.51 149.182 2586.51H154.244C161.883 2586.51 167.301 2585.17 170.498 2582.48C173.696 2579.61 175.294 2574.86 175.294 2568.23V2562.86C175.294 2556.58 173.962 2552.11 171.298 2549.42C168.811 2546.73 163.126 2545.39 154.244 2545.39H92.4263C74.4848 2545.39 61.4284 2542.07 53.257 2535.44C45.0857 2528.63 41 2517.61 41 2502.38V2498.08C41 2490.2 42.4211 2482.94 45.2633 2476.31C48.2832 2469.68 53.3459 2464.39 60.4514 2460.45C67.5569 2456.33 77.327 2454.27 89.7617 2454.27H162.238C174.317 2454.27 184.088 2454.9 191.548 2456.15C199.009 2457.4 202.74 2458.75 202.74 2460.18L197.41 2482.76C192.792 2482.22 182.311 2481.68 165.968 2481.15C149.626 2480.43 127.687 2480.07 100.154 2480.07L97.2225 2479.8C89.0511 2479.8 83.5444 2481.51 80.7021 2484.91C77.8599 2488.14 76.35 2492.26 76.1724 2497.27V2501.84C76.1724 2507.76 77.7711 2512.24 80.9686 2515.28C84.3437 2518.15 89.8505 2519.58 97.4889 2519.58H156.642C168.011 2519.58 177.693 2520.75 185.686 2523.08C193.68 2525.41 199.809 2529.71 204.072 2535.98C208.335 2542.07 210.467 2551.12 210.467 2563.13V2567.43C210.467 2580.86 207.003 2591.71 200.075 2599.95C193.325 2608.19 181.512 2612.31 164.636 2612.31H76.1724Z" fill="black"/>
<path d="M2059 880L2083.6 955.817H2163.23L2098.81 1002.67L2123.42 1078.49L2059 1031.63L1994.58 1078.49L2019.19 1002.67L1954.77 955.817H2034.4L2059 880Z" fill="#FF0000"/>
<path d="M2450.4 927.024L2471.49 992.01H2539.73L2484.52 1032.17L2505.61 1097.16L2450.4 1057L2395.18 1097.16L2416.27 1032.17L2361.06 992.01H2429.31L2450.4 927.024Z" fill="#FF0000"/>
<path d="M2787 1005.4L2802.81 1054.14H2854L2812.59 1084.26L2828.41 1133L2787 1102.88L2745.59 1133L2761.4 1084.26L2719.99 1054.14H2771.18L2787 1005.4Z" fill="#FF0000"/>
<path d="M1331 1005.4L1346.82 1054.14H1398.01L1356.6 1084.26L1372.41 1133L1331 1102.88L1289.59 1133L1305.41 1084.26L1264 1054.14H1315.19L1331 1005.4Z" fill="#FF0000"/>
<path d="M1667.6 927.024L1688.69 992.01H1756.94L1701.73 1032.17L1722.82 1097.16L1667.6 1057L1612.39 1097.16L1633.48 1032.17L1578.27 992.01H1646.51L1667.6 927.024Z" fill="#FF0000"/>
</svg>
