<svg width="4096" height="4096" viewBox="0 0 4096 4096" fill="none" xmlns="http://www.w3.org/2000/svg">
<path d="M609 919.013L696.56 892.688C1220.66 735.11 1638.08 654.043 2059.99 654H2060.01C2481.92 654.043 2899.34 735.11 3423.44 892.688L3511 919.013L3507.01 1010.31C3499.62 1179.15 3488.37 1335.57 3472.59 1480.89C3430.83 1475.55 3391.67 1472.61 3355.35 1471.55C3370.96 1328.67 3382.2 1173.74 3389.58 1005.17C2871.15 849.302 2465.97 771.509 2060 771.467C1654.03 771.509 1248.85 849.302 730.423 1005.17C737.161 1159.18 747.124 1301.81 760.7 1434.26C721.431 1432.16 681.835 1431.09 642.224 1431.11C629.131 1300 619.545 1160.04 612.994 1010.31L609 919.013Z" fill="white"/>
<path d="M1033.09 2690.1C1258.29 3009.15 1580.41 3219.49 2010.69 3418.23L2060 3441L2109.31 3418.23C2539.59 3219.49 2861.71 3009.15 3086.91 2690.1H2940.13C2734.95 2948.29 2449.21 3131.83 2060 3311.59C1670.79 3131.83 1385.05 2948.29 1179.87 2690.1H1033.09Z" fill="white"/>
<path fill-rule="evenodd" clip-rule="evenodd" d="M170.777 1566.08C464.635 1472.04 872.119 1487.72 1158.14 1566.08C1135.94 1550.41 1062.54 1513.58 946.563 1491.63C1317.48 1391.07 2138.45 1218.15 2455.04 1330.99L2470.71 1362.34C2549.07 1394.99 2729.31 1482.23 2823.34 1570H3066.26C3000.96 1536.18 2816.29 1452 2600.01 1385.85C2701.88 1410.66 2948.72 1482.23 3121.12 1570C3222.99 1530.82 3583.45 1487.72 4069.3 1765.9C4015.75 1758.07 3884.37 1736.91 3787.2 1714.97C3801.56 1734.56 3851.45 1777.66 3936.08 1793.33C3883.84 1798.55 3756.64 1783.14 3665.73 1679.7C3690.55 1708.44 3737.04 1787.84 3724.51 1875.61C3606.96 1460.29 3078.02 1609.18 3031 1809C3033.61 1781.69 3052.94 1709.76 3109.36 1640.52C3046.67 1691.46 2899.35 1802.73 2811.59 1840.35H2482.46L2788.08 1820.76C2816.81 1806.39 2883.68 1765.12 2921.29 1714.97L1765.45 1730.64C1778.51 1716.27 1816.38 1682.05 1863.4 1660.11H2176.85L1851.65 1636.6C1779.82 1679.7 1615.78 1774.52 1534.28 1809L2247.38 1840.35C2039.72 1841.65 1560.92 1839.56 1307.03 1820.76L1459.84 1809C1527.75 1777.66 1676.12 1707.13 1726.27 1675.79L1307.03 1660.11C1278.3 1686.23 1208.29 1747.88 1158.14 1785.49C1209.53 1728.23 1252.11 1689.13 1283.01 1660.76C1334.56 1613.42 1353.57 1595.96 1326.62 1573.91C1419.35 1576.53 1636.15 1583.32 1761.53 1589.59C1651.82 1572.61 1383.04 1538.65 1185.57 1538.65C1318.78 1566.08 1303.11 1619.63 1252.18 1632.69C1177.73 1630.07 1002.2 1622.5 895.628 1613.1C947.869 1647.05 1051.57 1743.96 1048.43 1859.94C887.792 1475.96 382.355 1609.18 300.074 1856.02C306.605 1819.45 333.77 1729.07 390.191 1660.11H159.022C140.738 1679.7 97.8997 1722.8 72.8237 1738.48L170.777 1566.08ZM2768.49 1570C2478.55 1334.91 2212.11 1280.06 1612.64 1409.35C1676.19 1426.3 1729 1440.88 1774.8 1453.53C2067.86 1534.46 2073.84 1536.11 2768.49 1570Z" fill="white"/>
<path d="M135.514 1581.75C60.2858 1578.62 48.009 1593.51 45.397 1601.34C61.0694 1607.61 61.0694 1624.85 64.9875 1632.69C43.0461 1657.76 55.8453 1697.99 64.9875 1714.97L135.514 1581.75Z" fill="#FF0000"/>
<path d="M3774.08 2379C3739.43 2379 3714.87 2377.19 3700.39 2373.57C3685.91 2369.94 3678.67 2366.32 3678.67 2362.7L3701.94 2304.48C3716.94 2306.03 3744.35 2307.85 3784.17 2309.92C3824.5 2311.47 3874.15 2312.24 3933.1 2312.24H3971.89C3984.82 2312.24 3992.83 2308.88 3995.93 2302.15C3999.55 2294.91 4001.36 2285.33 4001.36 2273.43C4001.36 2261.53 3999.3 2251.96 3995.16 2244.71C3991.54 2237.47 3983.78 2233.84 3971.89 2233.84H3781.06C3744.86 2233.84 3718.75 2227.12 3702.72 2213.66C3686.69 2199.69 3678.67 2178.99 3678.67 2151.56V2120.51C3678.67 2113.27 3679.45 2104.73 3681 2094.9C3682.55 2085.07 3686.43 2075.23 3692.63 2065.4C3698.84 2055.57 3708.92 2047.55 3722.88 2041.34C3736.85 2034.61 3756.24 2031.25 3781.06 2031.25H3995.16C4026.19 2031.25 4048.16 2033.06 4061.09 2036.68C4074.02 2040.3 4080.49 2043.93 4080.49 2047.55L4072.73 2105.77C4057.73 2104.21 4030.07 2102.66 3989.73 2101.11C3949.39 2099.04 3900 2098 3841.57 2098H3802.78C3789.85 2098 3781.58 2101.63 3777.96 2108.87C3774.86 2115.6 3773.31 2123.62 3773.31 2132.93C3773.31 2142.77 3774.86 2151.05 3777.96 2157.77C3781.58 2163.98 3789.85 2167.09 3802.78 2167.09H3993.61C4028.77 2167.09 4054.63 2174.33 4071.18 2188.82C4087.73 2203.31 4096 2221.68 4096 2243.94V2289.73C4096 2299.05 4095.22 2308.88 4093.67 2319.23C4092.64 2329.58 4089.02 2339.41 4082.81 2348.73C4076.61 2357.52 4066.52 2364.77 4052.56 2370.46C4038.6 2376.15 4018.95 2379 3993.61 2379H3774.08Z" fill="#FF0000"/>
<path d="M3116.07 2379V1876H3210.71V2046.77C3232.43 2042.63 3258.54 2039.01 3289.05 2035.9C3319.56 2032.8 3354.47 2031.25 3393.77 2031.25H3432.56C3458.42 2031.25 3478.32 2034.87 3492.29 2042.11C3506.25 2049.36 3516.08 2058.42 3521.76 2069.28C3527.97 2080.15 3531.59 2091.28 3532.62 2102.66C3534.18 2113.53 3534.95 2122.84 3534.95 2130.6V2379H3440.32V2129.05C3440.32 2108.35 3427.9 2098 3403.08 2098H3233.98C3224.15 2098 3217.69 2099.04 3214.58 2101.11C3212 2102.66 3210.71 2107.32 3210.71 2115.08V2379H3116.07Z" fill="#FF0000"/>
<path d="M2838.25 2379C2798.95 2379 2772.06 2370.72 2757.58 2354.16C2743.1 2337.6 2735.86 2312.76 2735.86 2279.64V2098H2672.25V2031.25H2704.83C2714.66 2031.25 2721.64 2029.69 2725.77 2026.59C2730.43 2023.48 2733.79 2017.27 2735.86 2007.96L2751.37 1924.9H2830.49V2031.25H2991.84V2098H2830.49V2280.42C2830.49 2293.36 2833.6 2301.89 2839.8 2306.03C2846.01 2310.17 2855.32 2312.24 2867.73 2312.24H2977.1L2984.86 2371.24C2974 2372.79 2957.45 2374.6 2935.22 2376.67C2912.98 2378.22 2888.67 2379 2862.3 2379H2838.25Z" fill="#FF0000"/>
<path d="M2132.92 2379V2031.25H2196.53L2227.56 2046.77C2249.28 2042.63 2275.39 2039.01 2305.9 2035.9C2336.42 2032.8 2371.32 2031.25 2410.62 2031.25H2449.41C2475.27 2031.25 2495.18 2034.87 2509.14 2042.11C2523.1 2049.36 2532.93 2058.42 2538.62 2069.28C2544.82 2080.15 2548.44 2091.28 2549.48 2102.66C2551.03 2113.53 2551.8 2122.84 2551.8 2130.6V2379H2457.17V2129.05C2457.17 2108.35 2444.76 2098 2419.93 2098H2250.83C2241 2098 2234.54 2099.04 2231.44 2101.11C2228.85 2102.66 2227.56 2107.32 2227.56 2115.08V2379H2132.92Z" fill="#FF0000"/>
<path d="M1684.47 2379C1658.62 2379 1638.71 2375.64 1624.74 2368.91C1610.78 2362.18 1600.7 2353.64 1594.49 2343.29C1588.8 2332.94 1585.18 2322.08 1583.63 2310.69C1582.6 2299.31 1582.08 2288.96 1582.08 2279.64V2130.6C1582.08 2122.84 1582.6 2113.53 1583.63 2102.66C1585.18 2091.28 1588.8 2080.15 1594.49 2069.28C1600.7 2058.42 1610.78 2049.36 1624.74 2042.11C1639.22 2034.87 1659.13 2031.25 1684.47 2031.25H1851.25C1885.38 2031.25 1912.01 2034.61 1931.15 2041.34C1950.8 2047.55 1964.5 2057.9 1972.26 2072.39C1980.53 2086.88 1984.67 2106.28 1984.67 2130.6V2245.49H1848.92C1802.38 2245.49 1764.37 2244.45 1734.89 2242.38C1705.93 2240.31 1686.54 2239.02 1676.72 2238.5V2281.19C1676.2 2301.89 1688.61 2312.24 1713.95 2312.24H1753.51C1781.44 2312.24 1808.59 2311.99 1834.96 2311.47C1861.85 2310.43 1886.41 2309.4 1908.65 2308.36C1930.89 2306.81 1948.73 2305.52 1962.18 2304.48L1993.2 2354.94C1993.2 2370.98 1942.27 2379 1840.39 2379H1684.47ZM1676.72 2178.73H1890.03V2129.05C1890.03 2118.7 1888.74 2111.46 1886.16 2107.32C1884.09 2103.18 1877.36 2100.59 1865.99 2099.56C1854.61 2098.52 1835.22 2098 1807.81 2098H1713.95C1689.13 2098 1676.72 2108.35 1676.72 2129.05V2178.73Z" fill="#FF0000"/>
<path d="M1191.67 2379L1190.89 1996.32H989.208V1921.8H1496.52V1996.32H1294.06V2379H1191.67Z" fill="#FF0000"/>
<path d="M529.323 2379C493.123 2379 464.681 2373.83 443.995 2363.48C423.31 2353.13 408.571 2337.6 399.78 2316.9C391.506 2296.2 387.369 2270.59 387.369 2240.05V2060.74C387.369 2030.73 391.506 2005.63 399.78 1985.45C408.054 1964.75 422.534 1949.22 443.22 1938.87C463.905 1928.01 492.606 1922.57 529.323 1922.57H708.511C744.711 1922.57 772.895 1928.01 793.064 1938.87C813.749 1949.22 828.229 1964.75 836.503 1985.45C845.294 2005.63 849.69 2030.73 849.69 2060.74V2240.05C849.69 2285.59 839.606 2320.26 819.438 2344.07C799.269 2367.36 762.294 2379 708.511 2379H529.323ZM551.819 2304.48H686.792C705.926 2304.48 720.664 2299.57 731.007 2289.73C741.867 2279.9 747.297 2266.45 747.297 2249.37V2051.43C747.297 2036.42 741.867 2023.74 731.007 2013.39C720.147 2002.53 705.409 1997.09 686.792 1997.09H551.819C533.202 1997.09 518.205 2002.01 506.828 2011.84C495.451 2021.67 489.762 2034.87 489.762 2051.43V2249.37C489.762 2266.96 495.192 2280.68 506.052 2290.51C517.429 2299.82 532.685 2304.48 551.819 2304.48Z" fill="#FF0000"/>
<path d="M98.5148 2379V1997.09L5.42995 2004.08L0 1938.1L200.908 1914.81V2379H98.5148Z" fill="#FF0000"/>
<path d="M3968.22 2612.33V2547.15L3890.68 2455.27H3933.32L3972.75 2505.22L3985.01 2521.78H3987.67L3999.93 2505.22L4039.37 2455.27H4082L4071.61 2471.29L4003.4 2548.22V2612.33H3968.22Z" fill="white"/>
<path d="M3751.24 2612.33L3750.97 2480.64H3681.69V2455H3855.95V2480.64H3786.41V2612.33H3751.24Z" fill="white"/>
<path d="M3593.23 2612.33V2455.27H3628.4V2612.33H3593.23Z" fill="white"/>
<path d="M3349.11 2612.33V2476.64L3346.44 2455.27H3384.81L3475.41 2550.36L3485.8 2564.78H3488.73V2455.27H3523.91V2612.33H3490.06L3397.34 2515.63L3386.95 2503.08H3384.28V2612.33H3349.11Z" fill="white"/>
<path d="M3155.23 2615C3139.06 2615 3127.78 2610.64 3121.39 2601.91C3114.99 2593.19 3111.8 2581.61 3111.8 2567.19V2455.27H3146.97V2568.26C3146.97 2576.62 3149.01 2582.23 3153.1 2585.08C3157.18 2587.93 3162.24 2589.36 3168.28 2589.36H3224.77C3230.46 2589.36 3235.43 2587.93 3239.69 2585.08C3243.96 2582.06 3246.09 2576.45 3246.09 2568.26V2455.27H3281.26V2567.19C3281.26 2576.8 3279.93 2585.17 3277.27 2592.3C3274.6 2599.42 3270.16 2605.03 3263.94 2609.12C3257.73 2613.04 3249.11 2615 3238.1 2615H3155.23Z" fill="white"/>
<path d="M2850.07 2612.33V2476.64L2847.41 2455.27H2887.91L2948.13 2562.11L3010.48 2455.27H3046.45V2612.33H3011.28V2512.7H3008.35L2997.96 2535.93L2964.38 2596.3H2932.14L2898.57 2535.93L2887.91 2512.7H2885.25V2612.33H2850.07Z" fill="white"/>
<path d="M2581.69 2612.33V2476.64L2579.03 2455.27H2619.53L2679.75 2562.11L2742.1 2455.27H2778.07V2612.33H2742.9V2512.7H2739.97L2729.57 2535.93L2696 2596.3H2663.76L2630.19 2535.93L2619.53 2512.7H2616.86V2612.33H2581.69Z" fill="white"/>
<path d="M2386.14 2612.33C2373.71 2612.33 2363.94 2610.55 2356.83 2606.99C2349.73 2603.43 2344.67 2598.08 2341.65 2590.96C2338.8 2583.84 2337.38 2575.02 2337.38 2564.52V2502.81C2337.38 2492.48 2338.8 2483.85 2341.65 2476.9C2344.49 2469.78 2349.46 2464.44 2356.57 2460.88C2363.67 2457.14 2373.53 2455.27 2386.14 2455.27H2463.95C2476.39 2455.27 2486.07 2457.14 2492.99 2460.88C2500.1 2464.44 2505.07 2469.78 2507.92 2476.9C2510.94 2483.85 2512.45 2492.48 2512.45 2502.81V2564.52C2512.45 2580.19 2508.98 2592.12 2502.05 2600.31C2495.13 2608.32 2482.42 2612.33 2463.95 2612.33H2386.14ZM2393.87 2586.69H2456.49C2463.06 2586.69 2468.12 2584.99 2471.68 2581.61C2475.41 2578.23 2477.27 2573.6 2477.27 2567.72V2499.61C2477.27 2494.44 2475.41 2490.08 2471.68 2486.52C2467.95 2482.78 2462.88 2480.91 2456.49 2480.91H2393.87C2387.48 2480.91 2382.33 2482.6 2378.42 2485.98C2374.51 2489.37 2372.56 2493.91 2372.56 2499.61V2567.72C2372.56 2573.78 2374.42 2578.49 2378.15 2581.88C2382.06 2585.08 2387.3 2586.69 2393.87 2586.69Z" fill="white"/>
<path d="M2158.35 2612.33C2145.74 2612.33 2135.88 2610.55 2128.78 2606.99C2121.67 2603.43 2116.7 2598.08 2113.86 2590.96C2111.01 2583.84 2109.59 2575.02 2109.59 2564.52V2504.95C2109.59 2487.85 2113.41 2475.3 2121.05 2467.29C2128.69 2459.1 2141.12 2455 2158.35 2455H2238.56C2250.82 2455 2260.14 2455.71 2266.54 2457.14C2273.11 2458.38 2276.4 2459.72 2276.4 2461.14L2271.07 2483.31C2268.05 2482.78 2259.08 2482.25 2244.15 2481.71C2229.41 2481 2207.92 2480.64 2179.67 2480.64H2166.08C2151.87 2480.64 2144.77 2486.96 2144.77 2499.61V2567.72C2144.77 2573.78 2146.28 2578.49 2149.3 2581.88C2152.49 2585.08 2158.09 2586.69 2166.08 2586.69H2177.01C2206.49 2586.69 2229.32 2586.42 2245.49 2585.88C2261.83 2585.17 2271.95 2584.46 2275.86 2583.75L2286.79 2601.38C2286.79 2602.27 2285.28 2603.6 2282.26 2605.38C2279.42 2607.16 2274.09 2608.77 2266.27 2610.19C2258.45 2611.62 2247.17 2612.33 2232.43 2612.33H2158.35Z" fill="white"/>
<path d="M1834.7 2612.33C1822.09 2612.33 1812.23 2610.55 1805.13 2606.99C1798.02 2603.43 1793.05 2598.08 1790.2 2590.96C1787.36 2583.84 1785.94 2575.02 1785.94 2564.52V2504.95C1785.94 2487.85 1789.76 2475.3 1797.4 2467.29C1805.04 2459.1 1817.47 2455 1834.7 2455H1914.91C1927.16 2455 1936.49 2455.71 1942.88 2457.14C1949.46 2458.38 1952.74 2459.72 1952.74 2461.14L1947.41 2483.31C1944.39 2482.78 1935.42 2482.25 1920.5 2481.71C1905.76 2481 1884.26 2480.64 1856.02 2480.64H1842.43C1828.22 2480.64 1821.11 2486.96 1821.11 2499.61V2567.72C1821.11 2573.78 1822.62 2578.49 1825.64 2581.88C1828.84 2585.08 1834.44 2586.69 1842.43 2586.69H1853.36C1870.41 2586.69 1884.8 2586.6 1896.52 2586.42C1908.25 2586.06 1917.93 2585.8 1925.57 2585.62V2549.29L1909.58 2549.56L1874.67 2552.23V2526.05H1960.47V2601.11L1963.14 2606.72C1963.14 2608.14 1959.41 2609.48 1951.94 2610.73C1944.48 2611.79 1931.87 2612.33 1914.11 2612.33H1834.7Z" fill="white"/>
<path d="M1544.49 2612.33V2476.64L1541.82 2455.27H1580.19L1670.79 2550.36L1681.18 2564.78H1684.11V2455.27H1719.28V2612.33H1685.44L1592.71 2515.63L1582.32 2503.08H1579.66V2612.33H1544.49Z" fill="white"/>
<path d="M1437.37 2612.33V2455.27H1472.54V2612.33H1437.37Z" fill="white"/>
<path d="M1255.68 2612.33C1243.07 2612.33 1233.21 2610.55 1226.1 2606.99C1219 2603.43 1214.02 2598.08 1211.18 2590.96C1208.34 2583.84 1206.92 2575.02 1206.92 2564.52V2504.95C1206.92 2487.85 1210.74 2475.3 1218.37 2467.29C1226.01 2459.1 1238.45 2455 1255.68 2455H1335.88C1348.14 2455 1357.47 2455.71 1363.86 2457.14C1370.43 2458.38 1373.72 2459.72 1373.72 2461.14L1368.39 2483.31C1365.37 2482.78 1356.4 2482.25 1341.48 2481.71C1326.73 2481 1305.24 2480.64 1277 2480.64H1263.41C1249.2 2480.64 1242.09 2486.96 1242.09 2499.61V2567.72C1242.09 2573.78 1243.6 2578.49 1246.62 2581.88C1249.82 2585.08 1255.41 2586.69 1263.41 2586.69H1274.33C1303.82 2586.69 1326.65 2586.42 1342.81 2585.88C1359.15 2585.17 1369.28 2584.46 1373.19 2583.75L1384.11 2601.38C1384.11 2602.27 1382.6 2603.6 1379.58 2605.38C1376.74 2607.16 1371.41 2608.77 1363.59 2610.19C1355.78 2611.62 1344.5 2612.33 1329.75 2612.33H1255.68Z" fill="white"/>
<path d="M958.394 2612.33L1036.47 2455.27H1088.96L1166.76 2612.33H1125.73L1110.01 2578.41H1014.62L997.297 2612.33H958.394ZM1024.21 2552.23H1100.15L1063.64 2479.31H1060.98L1024.21 2552.23Z" fill="white"/>
<path d="M902.671 2615C895.565 2615 888.549 2613.93 881.621 2611.79C874.871 2609.48 867.143 2603.96 858.439 2595.23L839.254 2576C831.438 2567.99 822.823 2562.11 813.408 2558.37C804.171 2554.63 792.535 2552.76 778.502 2552.76H770.242V2612.33H735.069V2476.64L732.405 2455H850.445C861.814 2455 870.696 2456.51 877.091 2459.54C883.664 2462.57 888.46 2466.57 891.48 2471.56C894.677 2476.37 896.72 2481.53 897.608 2487.05C898.496 2492.57 898.941 2497.83 898.941 2502.81V2507.89C898.941 2511.81 898.408 2516.17 897.342 2520.98C896.276 2525.78 894.233 2530.5 891.213 2535.13C888.193 2539.76 883.841 2543.68 878.157 2546.89C872.65 2550.09 865.367 2551.96 856.307 2552.5C858.617 2553.74 861.548 2555.7 865.1 2558.37C868.653 2560.87 872.295 2563.63 876.025 2566.65C879.933 2569.68 883.486 2572.44 886.684 2574.93C889.881 2577.43 892.368 2579.21 894.144 2580.28C900.539 2584.02 906.224 2586.6 911.198 2588.02C916.171 2589.45 920.257 2590.25 923.455 2590.43C926.652 2590.6 928.517 2590.69 929.05 2590.69L923.721 2612.33C922.122 2612.86 919.458 2613.4 915.727 2613.93C911.997 2614.64 907.645 2615 902.671 2615ZM810.21 2528.46C816.961 2528.46 823 2528.37 828.329 2528.19C833.659 2527.83 838.455 2527.48 842.718 2527.12C850.534 2526.23 855.952 2524.09 858.972 2520.71C862.169 2517.15 863.768 2512.61 863.768 2507.09V2500.94C863.768 2495.24 862.258 2490.44 859.238 2486.52C856.219 2482.6 850.801 2480.64 842.985 2480.64H770.242V2527.12C778.058 2527.65 785.252 2528.01 791.825 2528.19C798.397 2528.37 804.526 2528.46 810.21 2528.46Z" fill="white"/>
<path d="M381.493 2612.33V2476.64L378.828 2455.27H419.33L479.549 2562.11L541.9 2455.27H577.872V2612.33H542.7V2512.7H539.769L529.377 2535.93L495.803 2596.3H463.562L429.988 2535.93L419.33 2512.7H416.665V2612.33H381.493Z" fill="white"/>
<path d="M274.379 2612.33V2455.27H309.552V2612.33H274.379Z" fill="white"/>
<path d="M76.1724 2612.33C64.093 2612.33 55.2111 2611.79 49.5266 2610.73C43.8422 2609.66 41 2608.41 41 2606.99L51.6583 2583.75C55.744 2584.46 65.8694 2585.17 82.0344 2585.88C98.3771 2586.42 120.76 2586.69 149.182 2586.69H154.244C161.883 2586.69 167.301 2585.35 170.498 2582.68C173.696 2579.83 175.294 2575.11 175.294 2568.52V2563.18C175.294 2556.95 173.962 2552.5 171.298 2549.82C168.811 2547.15 163.126 2545.82 154.244 2545.82H92.4263C74.4848 2545.82 61.4284 2542.52 53.257 2535.93C45.0857 2529.17 41 2518.22 41 2503.08V2498.81C41 2490.97 42.4211 2483.76 45.2633 2477.17C48.2832 2470.58 53.3459 2465.33 60.4514 2461.41C67.5569 2457.31 77.327 2455.27 89.7617 2455.27H162.238C174.317 2455.27 184.088 2455.89 191.548 2457.14C199.009 2458.38 202.74 2459.72 202.74 2461.14L197.41 2483.58C192.792 2483.05 182.311 2482.51 165.968 2481.98C149.626 2481.27 127.687 2480.91 100.154 2480.91L97.2225 2480.64C89.0511 2480.64 83.5444 2482.33 80.7021 2485.72C77.8599 2488.92 76.35 2493.02 76.1724 2498V2502.55C76.1724 2508.42 77.7711 2512.87 80.9686 2515.9C84.3437 2518.75 89.8505 2520.18 97.4889 2520.18H156.642C168.011 2520.18 177.693 2521.33 185.686 2523.65C193.68 2525.96 199.809 2530.24 204.072 2536.47C208.335 2542.52 210.467 2551.52 210.467 2563.45V2567.72C210.467 2581.08 207.003 2591.85 200.075 2600.04C193.325 2608.23 181.512 2612.33 164.636 2612.33H76.1724Z" fill="white"/>
<path d="M2059.5 879L2084.12 954.817H2163.79L2099.34 1001.67L2123.96 1077.49L2059.5 1030.63L1995.04 1077.49L2019.66 1001.67L1955.21 954.817H2034.88L2059.5 879Z" fill="#FF0000"/>
<path d="M2451.14 926.024L2472.25 991.01H2540.54L2485.29 1031.17L2506.39 1096.16L2451.14 1056L2395.89 1096.16L2417 1031.17L2361.75 991.01H2430.04L2451.14 926.024Z" fill="#FF0000"/>
<path d="M2787.95 1004.4L2803.78 1053.14H2855L2813.56 1083.26L2829.39 1132L2787.95 1101.88L2746.52 1132L2762.35 1083.26L2720.91 1053.14H2772.13L2787.95 1004.4Z" fill="#FF0000"/>
<path d="M1331.05 1004.4L1346.87 1053.14H1398.09L1356.65 1083.26L1372.48 1132L1331.05 1101.88L1289.61 1132L1305.44 1083.26L1264 1053.14H1315.22L1331.05 1004.4Z" fill="#FF0000"/>
<path d="M1667.86 926.024L1688.96 991.01H1757.25L1702 1031.17L1723.11 1096.16L1667.86 1056L1612.61 1096.16L1633.71 1031.17L1578.46 991.01H1646.75L1667.86 926.024Z" fill="#FF0000"/>
</svg>
