<svg width="1200" height="413" viewBox="0 0 1200 413" fill="none" xmlns="http://www.w3.org/2000/svg">
<rect width="1200" height="412" transform="translate(0 0.244141)" fill="#F44336"/>
<path d="M57.1426 301.974C57.578 304.25 63.8678 310.373 65.8682 311.44C71.2871 313.012 101.241 317.845 127.096 315.283C193.401 308.714 255.86 271.743 252.064 233.324C250.124 213.697 223.185 196.759 192.417 192.217C222.763 181.831 253.616 163.804 251.203 139.375C249.985 127.056 237.088 120.111 215.827 115.893C208.948 114.466 200.693 114.019 192.375 112.945C187.772 108.974 175.101 104.326 169.68 104.863C168.012 105.028 166.03 106.279 165.111 107.635L162.188 112.141L160.728 112.286C135.416 113.951 110.373 118.329 105.325 120.516C102.301 121.87 92.1761 134.469 92.5268 138.019C92.5681 138.437 92.8179 138.833 93.0264 138.813C99.8886 135.814 129.169 127.431 155.837 124.578C144.491 148.262 131.235 184.574 121.721 211.872C115.657 229.34 102.974 275.716 103.861 284.694C104.106 289.308 119.17 298.99 129.238 300.734C88.515 306.245 73.4657 303.097 57.1426 301.974ZM155.214 201.385C159.572 200.742 164.327 199.849 169.269 198.727C189.907 200.899 216.124 210.53 218.001 229.531C220.825 260.244 182.429 293.566 132.574 300.403C131.698 300.068 131.158 298.857 130.951 296.769C129.881 283.803 140.222 243.562 155.214 201.385ZM186.817 124.881C190.591 124.718 197.158 125.122 201.055 126.212C212.936 129.251 220.289 135.48 221.155 144.25C223.156 164.503 182.333 186.047 158.539 192.411C168.699 165.26 176.102 144.286 186.817 124.881Z" fill="white"/>
<path d="M302.564 186.996C304.655 180.464 308.96 170.76 311.318 169.051C310.924 167.192 296.296 159.786 289.019 160.718C287.559 160.863 286.203 162.051 285.452 162.969C282.842 166.39 278.745 176.073 274.961 186.779C265.76 212.992 263.329 224.618 259.96 237.391C255.375 254.923 252.922 268.449 253.128 270.537C253.685 276.175 271.022 285.421 280.569 286.161C277.448 280.145 282.601 257.708 288.023 235.876C291.185 223.123 295.077 209.244 302.564 186.996ZM293.369 128.029C292.608 137.381 299.586 144.069 308.76 143.16C317.934 142.251 325.969 134.076 326.521 124.744C327.073 115.412 320.075 108.516 310.901 109.425C301.727 110.334 293.921 118.697 293.369 128.029Z" fill="white"/>
<path d="M326.721 281.589C323.391 275.593 326.972 260.691 331.978 238.9C338.868 208.489 359.112 149.135 365.007 134.214C367.536 127.849 371.403 117.978 373.761 116.268C373.158 114.431 359.614 107.339 352.128 108.291C350.877 108.415 349.333 109.833 348.79 110.731C345.993 114.381 341.582 125.149 338.07 134.353C332.698 148.168 322.074 179.159 317.158 195.46C305.004 234.404 299.284 261.747 299.738 266.341C300.504 271.958 316.965 280.869 326.721 281.589Z" fill="white"/>
<path d="M373.39 276.965C370.061 270.969 373.641 256.067 378.647 234.276C385.538 203.865 405.781 144.511 411.676 129.59C414.205 123.225 418.073 113.354 420.43 111.644C419.828 109.807 406.283 102.715 398.798 103.667C397.547 103.791 396.003 105.209 395.46 106.107C392.662 109.757 388.252 120.525 384.74 129.729C379.367 143.544 368.744 174.535 363.827 190.836C351.674 229.78 345.954 257.123 346.407 261.717C347.173 267.334 363.634 276.245 373.39 276.965Z" fill="white"/>
<path d="M518.221 148.551C517.827 146.692 502.303 138.742 496.151 140.406C491.646 141.696 429.278 252.03 422.397 252.712C421.563 252.794 421.063 252.001 420.919 250.539C420.664 235.173 435.072 193.475 442.181 173.795C444.502 167.451 448.578 157.559 450.935 155.85C452.333 155.079 429.475 143.217 425.653 149.289C410.22 174.221 392.369 238.609 392.631 247.649C393.328 258.965 414.477 270.575 429.448 268.67C432.138 268.192 457.182 223.332 474.5 189.779C465.543 222.714 462.59 235.447 459.282 248.846C451.578 279.549 445.626 308.813 446.472 317.373C446.802 320.714 463.217 333.425 469.264 332.826C470.098 332.743 470.703 332.472 471.287 331.993C471.211 324.832 471.946 319.488 472.285 314.394C475.394 292.58 479.48 272.146 484.463 252.255C493.404 214.894 511.856 154.452 518.221 148.551Z" fill="white"/>
<path d="M535.077 254.619C535.512 256.896 541.802 263.019 543.802 264.086C549.221 265.657 579.175 270.491 605.03 267.929C671.335 261.359 733.794 224.388 729.998 185.97C728.058 166.343 701.119 149.404 670.352 144.863C700.697 134.477 731.551 116.45 729.137 92.0211C727.92 79.7021 715.022 72.7573 693.761 68.5387C686.882 67.1119 678.627 66.6648 670.309 65.5913C665.706 61.6198 653.035 56.9718 647.614 57.5089C645.946 57.6742 643.964 58.9247 643.045 60.2808L640.122 64.7872L638.662 64.9318C613.35 66.5964 588.307 70.9753 583.259 73.1621C580.235 74.516 570.11 87.1153 570.461 90.6648C570.502 91.0824 570.752 91.4793 570.961 91.4587C577.823 88.4595 607.103 80.0766 633.771 77.2235C622.425 100.907 609.17 137.22 599.655 164.518C593.591 181.986 580.908 228.362 581.795 237.34C582.041 241.954 597.104 251.636 607.172 253.38C566.449 258.89 551.4 255.743 535.077 254.619ZM633.148 154.031C637.506 153.388 642.261 152.495 647.203 151.373C667.841 153.545 694.058 163.176 695.935 182.176C698.76 212.89 660.364 246.212 610.508 253.049C609.633 252.714 609.092 251.503 608.886 249.415C607.815 236.449 618.156 196.208 633.148 154.031ZM664.751 77.5274C668.525 77.3643 675.092 77.7678 678.989 78.8575C690.87 81.8972 698.223 88.1264 699.089 96.8958C701.09 117.149 660.267 138.693 636.473 145.057C646.633 117.906 654.036 96.9321 664.751 77.5274Z" fill="white"/>
<path d="M807.189 107.058C803.959 106.324 800.687 105.172 796.308 105.606C766.075 108.602 730.551 166.729 734.367 205.356C736.327 225.192 756.58 236.257 774.72 234.46C806.205 231.34 840.187 172.522 835.978 129.928C835.215 122.203 821.785 105.612 808.44 106.934L807.189 107.058ZM770.563 222.221C764.725 222.8 762.48 217.119 761.964 211.899C758.89 180.788 787.581 117.435 806.555 115.555C810.517 115.162 811.697 122.846 811.924 125.143C813.421 148.819 788.078 220.486 770.563 222.221Z" fill="white"/>
<path d="M921.2 111.153C912.758 130.122 893.596 191.899 895.081 206.932C895.639 212.569 913.6 221.753 923.148 222.494C914.856 217.412 942.579 122.95 948.808 107.153C947.852 103.874 932.56 94.0039 924.637 94.7889C914.628 95.7805 900.497 112.572 894.755 120.52C883.063 136.437 870.698 158.325 863.862 176.502C871.628 146.426 883.255 112.804 886.758 112.036C886.781 110.136 872.423 103.336 864.917 104.079C863.458 104.224 862.039 104.786 861.517 105.892C848.025 129.156 830.625 200.246 831.554 209.642C832.111 215.28 847.55 224.503 857.097 225.243C856.827 224.638 856.474 223.197 856.371 222.153C854.535 203.57 897.37 132.068 911.062 117.218C915.257 112.796 918.554 109.939 921.2 111.153Z" fill="white"/>
<path d="M972.521 161.097C975.44 160.808 981.549 160.835 988.265 158.483C1008.04 151.886 1040.46 126.324 1038.98 111.291C1037.33 94.5873 1018.95 83.336 1001.43 85.0714C969.95 88.1908 936.731 154.734 940.053 188.35C941.373 201.713 960.893 216.013 978.199 214.299C998.007 212.336 1032.15 174.375 1038.63 158.974C1039.12 157.451 1039.83 151.898 1037.52 151.917C1014.41 180.14 989.412 197.797 975.859 199.139C972.106 199.511 968.857 196.46 968.279 190.613C967.495 182.679 969.195 172.18 972.521 161.097ZM1016.55 105.923C1014.15 124.292 998.144 141.27 988.381 146.876C983.604 149.668 980.705 150.166 975.951 151.059C985.422 125.452 1001.94 98.7257 1012.16 97.7134C1015.49 97.3828 1017.26 100.37 1016.55 105.923Z" fill="white"/>
<path d="M1117.77 129.417C1118.71 128.27 1124.31 116.751 1130.05 106.694C1135.44 97.3053 1141.06 88.1043 1141.73 86.3513C1140.44 81.8404 1124.36 72.4705 1112.89 73.6067C1104.55 74.4331 1074.54 118.098 1065.68 143.434C1073.02 117.616 1081.97 93.1155 1085.06 92.3881C1085.08 90.4883 1070.72 83.6881 1063.22 84.4318C1061.76 84.5764 1060.34 85.1386 1059.82 86.2446C1046.32 109.509 1028.92 180.599 1029.85 189.995C1030.41 195.632 1045.85 204.855 1055.4 205.596C1055.13 204.99 1054.77 203.549 1054.67 202.505C1053.76 193.318 1062.92 168.797 1067.37 158.446C1079.53 130.254 1096.97 104.28 1112.92 86.676C1111.63 97.1342 1109.9 122.185 1111.19 126.696C1111.54 128.137 1116.14 130 1117.77 129.417Z" fill="white"/>
<path d="M604.254 319.4H590.951V354.198H582.002V319.4H568.878V312.429H604.254V319.4Z" fill="white"/>
<path d="M631.571 338.908H624.442V354.198H615.493V312.429H631.63C636.761 312.429 640.718 313.529 643.502 315.728C646.286 317.927 647.678 321.035 647.678 325.052C647.678 327.901 647.031 330.282 645.739 332.195C644.466 334.088 642.527 335.599 639.922 336.727L649.318 353.797V354.198H639.714L631.571 338.908ZM624.442 331.937H631.66C633.907 331.937 635.647 331.391 636.88 330.301C638.113 329.192 638.729 327.672 638.729 325.74C638.729 323.77 638.143 322.221 636.969 321.093C635.816 319.964 634.036 319.4 631.63 319.4H624.442V331.937Z" fill="white"/>
<path d="M696.291 334.26C696.291 338.372 695.536 341.977 694.024 345.075C692.513 348.174 690.346 350.564 687.522 352.247C684.718 353.93 681.497 354.772 677.858 354.772C674.258 354.772 671.047 353.94 668.223 352.276C665.399 350.612 663.212 348.241 661.661 345.162C660.11 342.063 659.325 338.506 659.305 334.49V332.424C659.305 328.312 660.07 324.698 661.601 321.58C663.152 318.444 665.33 316.044 668.134 314.38C670.957 312.697 674.179 311.855 677.798 311.855C681.417 311.855 684.629 312.697 687.432 314.38C690.256 316.044 692.434 318.444 693.965 321.58C695.516 324.698 696.291 328.303 696.291 332.396V334.26ZM687.224 332.367C687.224 327.987 686.408 324.659 684.778 322.384C683.147 320.108 680.821 318.97 677.798 318.97C674.795 318.97 672.479 320.098 670.848 322.355C669.217 324.593 668.392 327.882 668.372 332.223V334.26C668.372 338.525 669.188 341.834 670.818 344.186C672.449 346.539 674.795 347.715 677.858 347.715C680.86 347.715 683.167 346.586 684.778 344.33C686.388 342.054 687.204 338.745 687.224 334.404V332.367Z" fill="white"/>
<path d="M741.773 312.429V339.94C741.773 344.511 740.282 348.126 737.299 350.784C734.336 353.443 730.279 354.772 725.129 354.772C720.058 354.772 716.031 353.481 713.049 350.899C710.066 348.317 708.545 344.769 708.485 340.256V312.429H717.433V339.998C717.433 342.733 718.11 344.731 719.462 345.993C720.834 347.237 722.723 347.858 725.129 347.858C730.16 347.858 732.715 345.315 732.795 340.227V312.429H741.773Z" fill="white"/>
<path d="M777.74 343.239C777.74 341.614 777.143 340.371 775.95 339.51C774.757 338.63 772.609 337.712 769.507 336.756C766.405 335.781 763.949 334.824 762.14 333.887C757.208 331.325 754.742 327.872 754.742 323.531C754.742 321.274 755.398 319.266 756.711 317.507C758.043 315.728 759.942 314.341 762.408 313.347C764.894 312.352 767.678 311.855 770.76 311.855C773.862 311.855 776.626 312.4 779.052 313.49C781.478 314.561 783.357 316.082 784.69 318.052C786.042 320.022 786.718 322.259 786.718 324.765H777.769C777.769 322.852 777.143 321.37 775.89 320.318C774.637 319.247 772.878 318.712 770.611 318.712C768.423 318.712 766.723 319.161 765.51 320.06C764.297 320.94 763.691 322.106 763.691 323.56C763.691 324.918 764.397 326.056 765.808 326.974C767.24 327.892 769.338 328.752 772.102 329.555C777.193 331.028 780.901 332.855 783.228 335.035C785.555 337.215 786.718 339.931 786.718 343.182C786.718 346.797 785.296 349.637 782.452 351.702C779.609 353.749 775.781 354.772 770.969 354.772C767.628 354.772 764.585 354.189 761.841 353.022C759.097 351.836 756.999 350.22 755.548 348.174C754.116 346.127 753.4 343.756 753.4 341.059H762.378C762.378 345.668 765.242 347.973 770.969 347.973C773.096 347.973 774.757 347.562 775.95 346.739C777.143 345.898 777.74 344.731 777.74 343.239Z" fill="white"/>
<path d="M825.041 336.096H807.86V347.284H828.024V354.198H798.911V312.429H827.964V319.4H807.86V329.355H825.041V336.096Z" fill="white"/>
<path d="M855.459 338.908H848.331V354.198H839.382V312.429H855.519C860.649 312.429 864.607 313.529 867.391 315.728C870.174 317.927 871.566 321.035 871.566 325.052C871.566 327.901 870.92 330.282 869.628 332.195C868.355 334.088 866.416 335.599 863.811 336.727L873.207 353.797V354.198H863.602L855.459 338.908ZM848.331 331.937H855.549C857.796 331.937 859.536 331.391 860.769 330.301C862.002 329.192 862.618 327.672 862.618 325.74C862.618 323.77 862.031 322.221 860.858 321.093C859.705 319.964 857.925 319.4 855.519 319.4H848.331V331.937Z" fill="white"/>
<path d="M936.729 319.4H923.425V354.198H914.477V319.4H901.353V312.429H936.729V319.4Z" fill="white"/>
<path d="M974.097 336.096H956.916V347.284H977.08V354.198H947.968V312.429H977.02V319.4H956.916V329.355H974.097V336.096Z" fill="white"/>
<path d="M1023.75 354.198H1014.81L997.387 326.715V354.198H988.438V312.429H997.387L1014.84 339.969V312.429H1023.75V354.198Z" fill="white"/>
<path d="M1069.48 319.4H1056.17V354.198H1047.22V319.4H1034.1V312.429H1069.48V319.4Z" fill="white"/>
<path d="M1102.76 343.239C1102.76 341.614 1102.16 340.371 1100.97 339.51C1099.77 338.63 1097.63 337.712 1094.52 336.756C1091.42 335.781 1088.97 334.824 1087.16 333.887C1082.23 331.325 1079.76 327.872 1079.76 323.531C1079.76 321.274 1080.42 319.266 1081.73 317.507C1083.06 315.728 1084.96 314.341 1087.43 313.347C1089.91 312.352 1092.7 311.855 1095.78 311.855C1098.88 311.855 1101.64 312.4 1104.07 313.49C1106.5 314.561 1108.37 316.082 1109.71 318.052C1111.06 320.022 1111.74 322.259 1111.74 324.765H1102.79C1102.79 322.852 1102.16 321.37 1100.91 320.318C1099.66 319.247 1097.9 318.712 1095.63 318.712C1093.44 318.712 1091.74 319.161 1090.53 320.06C1089.31 320.94 1088.71 322.106 1088.71 323.56C1088.71 324.918 1089.41 326.056 1090.83 326.974C1092.26 327.892 1094.36 328.752 1097.12 329.555C1102.21 331.028 1105.92 332.855 1108.25 335.035C1110.57 337.215 1111.74 339.931 1111.74 343.182C1111.74 346.797 1110.31 349.637 1107.47 351.702C1104.63 353.749 1100.8 354.772 1095.99 354.772C1092.65 354.772 1089.6 354.189 1086.86 353.022C1084.11 351.836 1082.02 350.22 1080.57 348.174C1079.13 346.127 1078.42 343.756 1078.42 341.059H1087.4C1087.4 345.668 1090.26 347.973 1095.99 347.973C1098.11 347.973 1099.77 347.562 1100.97 346.739C1102.16 345.898 1102.76 344.731 1102.76 343.239Z" fill="white"/>
</svg>
