<svg width="1200" height="1108" viewBox="0 0 1200 1108" fill="none" xmlns="http://www.w3.org/2000/svg">
<path d="M349.319 782.834C351.245 784.383 353.192 785.157 355.159 785.157C357.127 785.157 358.844 784.194 360.309 782.268C361.774 780.384 362.507 778.312 362.507 776.051C362.507 773.79 361.398 772.388 359.179 771.843C356.96 771.299 354.657 771.404 352.271 772.157C349.884 772.911 348.398 773.769 347.812 774.732C345.509 777.454 346.012 780.154 349.319 782.834ZM350.135 744.588C372.157 744.588 387.292 749.612 395.54 759.66C401.109 766.485 402.595 773.916 399.999 781.954C397.403 789.993 392.316 796.147 384.739 800.418C380.636 802.762 375.967 804.269 370.734 804.939C365.501 805.609 361.167 807.493 357.734 810.591C356.52 811.638 355.494 813.48 354.657 816.118C353.82 818.714 353.024 821.351 352.271 824.031C351.517 826.71 350.491 829.306 349.193 831.818C347.896 834.33 345.739 836.235 342.725 837.533C339.711 838.789 335.88 839.124 331.233 838.538C320.515 837.072 312.476 831.211 307.117 820.953C301.758 810.696 300.125 799.036 302.219 785.974C304.312 772.911 310.09 762.549 319.552 754.887C327.967 748.021 338.161 744.588 350.135 744.588Z" fill="#4CAF50"/>
<path d="M405.463 794.64C405.463 787.104 406.823 780.133 409.545 773.728C411.094 770.085 413.522 767.217 416.83 765.124C420.137 763.03 423.759 761.984 427.694 761.984C431.63 761.984 434.728 762.696 436.989 764.119C439.249 765.543 441.112 767.238 442.578 769.206C444.043 771.174 445.529 773.162 447.037 775.172C450.679 780.028 455.494 782.457 461.481 782.457C465.207 782.457 469.163 781.41 473.35 779.317C477.537 777.223 481.095 775.067 484.026 772.848C486.957 770.671 490.495 768.913 494.639 767.573C498.784 766.233 502.699 766.296 506.383 767.761C510.151 769.059 512.705 772.137 514.045 776.993C515.384 781.85 516.054 789.197 516.054 799.036C516.054 815.49 511.093 827.171 501.171 834.079C491.248 840.987 476.364 844.441 456.519 844.441C440.484 844.441 428.427 841.28 420.346 834.958C410.424 827.213 405.463 813.773 405.463 794.64Z" fill="#4CAF50"/>
<path d="M523.842 805.065C523.842 786.727 530.875 772.89 544.943 763.554C555.828 756.436 568.2 753.129 582.058 753.631C595.916 754.134 606.613 757.378 614.149 763.365C619.717 767.803 622.501 773.079 622.501 779.191C622.459 783.545 621.015 787.188 618.168 790.118C615.321 793.049 612.055 795.122 608.371 796.336C604.687 797.55 600.395 799.036 595.497 800.795C590.599 802.553 586.998 804.311 584.695 806.07C580.55 809.126 578.08 813.564 577.285 819.383C576.489 825.203 574.605 830.08 571.633 834.016C570.126 835.984 567.572 837.596 563.971 838.852C560.371 840.108 555.828 840.736 550.343 840.736C537.783 840.694 529.85 834.958 526.542 823.528C524.742 817.206 523.842 811.052 523.842 805.065Z" fill="#4CAF50"/>
<path d="M674.5 799.287C676.51 802.72 679.21 804.437 682.601 804.437C685.992 804.437 688.86 803.851 691.205 802.679C695.392 800.585 697.171 797.382 696.543 793.07C696.292 791.312 695.161 789.7 693.152 788.234C691.142 786.769 688.546 785.869 685.364 785.534C679.712 784.906 675.986 786.183 674.186 789.365C672.386 792.547 672.49 795.854 674.5 799.287ZM731.02 793.51C731.02 801.213 729.974 807.703 727.88 812.978C725.787 818.253 723.108 822.147 719.842 824.659C713.311 829.683 705.272 833.116 695.727 834.958C691.665 835.712 687.5 836.968 683.229 838.726C678.959 840.484 675.777 842.41 673.684 844.504C671.59 846.597 669.832 849.256 668.408 852.479C666.985 855.703 665.792 858.55 664.829 861.02C663.949 863.49 662.338 865.688 659.993 867.614C657.648 869.54 654.655 870.503 651.013 870.503C640.211 870.503 633.701 864.851 631.482 853.547C624.615 819.593 628.09 794.18 641.906 777.307C650.824 766.338 662.861 760.246 678.017 759.032C690.702 757.986 702.153 760.435 712.369 766.38C724.803 773.581 731.02 782.624 731.02 793.51Z" fill="#4CAF50"/>
<path d="M749.798 750.429C752.184 745.404 755.094 742.432 758.527 741.511C761.96 740.59 764.891 740.171 767.319 740.255C771.883 740.255 775.839 742.139 779.188 745.907C782.538 749.675 785.008 754.573 786.599 760.602C791.874 781.159 790.974 801.695 783.898 822.209C781.847 828.196 779 833.032 775.358 836.716C771.715 840.401 767.696 842.159 763.3 841.992C754.466 841.74 748.374 839.94 745.025 836.591C741.676 833.241 740.022 827.757 740.064 820.137C740.064 787.397 743.308 764.161 749.798 750.429Z" fill="#4CAF50"/>
<path d="M841.172 784.906C841.172 788.172 843.119 790.098 847.013 790.684C850.907 791.27 854.8 790.726 858.694 789.051C862.587 787.376 864.534 785.346 864.534 782.959C864.534 779.191 862.587 777.056 858.694 776.554C854.8 776.051 850.907 776.805 847.013 778.814C843.119 780.824 841.172 782.855 841.172 784.906ZM856.119 753.38C862.692 753.38 868.805 754.364 874.457 756.332C880.109 758.3 884.986 761.251 889.089 765.187C893.192 769.08 895.244 773.12 895.244 777.307C895.244 781.494 894.218 785.157 892.167 788.297C890.115 791.437 887.833 793.845 885.321 795.519C882.809 797.194 880.507 798.911 878.413 800.669C876.32 802.385 875.252 803.83 875.21 805.002C875.21 806.174 876.32 807.116 878.539 807.828C880.758 808.498 883.228 809.168 885.949 809.838C888.671 810.508 891.141 812.14 893.36 814.736C895.579 817.332 896.688 820.87 896.688 825.35C896.688 829.829 895.034 833.618 891.727 836.716C888.378 839.815 884.191 841.95 879.167 843.122C868.826 845.55 857.731 845.948 845.883 844.315C840.565 843.52 836.107 842.431 832.506 841.05C821.788 837.03 813.561 831.965 807.825 825.852C802.09 819.739 798.971 813.501 798.468 807.137C798.008 800.815 799.243 794.389 802.173 787.858C805.104 781.326 809.395 775.528 815.047 770.462C820.7 765.396 827.315 761.272 834.892 758.09C842.47 754.908 849.546 753.338 856.119 753.38Z" fill="#4CAF50"/>
<path d="M319.803 870.126C323.068 870.126 325.999 871.571 328.595 874.459C331.191 877.348 333.2 880.509 334.624 883.942C336.089 887.375 337.868 890.536 339.962 893.425C342.055 896.272 344.274 897.696 346.619 897.696C350.596 897.696 354.134 894.2 357.232 887.208C358.53 884.319 359.974 881.43 361.565 878.542C363.156 875.695 365.48 873.266 368.536 871.257C371.55 869.247 375.318 868.242 379.84 868.242C384.362 868.242 388.423 869.289 392.023 871.382C395.624 873.476 397.927 876.239 398.931 879.672C401.443 887.92 402.574 900.564 402.323 917.603C402.239 926.102 401.653 934.183 400.564 941.844C399.476 949.506 397.361 955.954 394.221 961.187C391.081 966.42 387.083 969.037 382.226 969.037C377.37 969.037 373.309 968.304 370.043 966.839C366.736 965.374 364.266 963.594 362.633 961.501C361.042 959.408 359.576 957.314 358.237 955.221C355.055 950.197 351.35 947.685 347.121 947.685C344.232 947.685 339.145 950.699 331.861 956.728C325.036 962.213 318.275 965.771 311.576 967.404C308.31 968.158 305.003 967.593 301.653 965.709C294.829 961.857 290.538 952.939 288.779 938.956C287.858 932.006 287.754 924.616 288.465 916.787C289.135 908.958 290.538 901.527 292.673 894.493C294.808 887.459 298.241 881.64 302.972 877.034C307.703 872.429 313.313 870.126 319.803 870.126Z" fill="#4CAF50"/>
<path d="M455.64 913.521C455.64 916.787 457.587 918.713 461.481 919.299C465.374 919.885 469.268 919.341 473.162 917.666C477.055 915.992 479.002 913.961 479.002 911.575C479.002 907.807 477.055 905.671 473.162 905.169C469.268 904.667 465.374 905.42 461.481 907.43C457.587 909.439 455.64 911.47 455.64 913.521ZM470.587 881.996C477.16 881.996 483.272 882.979 488.925 884.947C494.577 886.915 499.454 889.867 503.557 893.802C507.66 897.696 509.711 901.736 509.711 905.923C509.711 910.109 508.686 913.773 506.634 916.913C504.583 920.053 502.301 922.46 499.789 924.135C497.277 925.809 494.974 927.526 492.881 929.284C490.788 931.001 489.72 932.445 489.678 933.618C489.678 934.79 490.788 935.732 493.007 936.444C495.225 937.113 497.696 937.783 500.417 938.453C503.138 939.123 505.609 940.756 507.827 943.352C510.046 945.947 511.156 949.485 511.156 953.965C511.156 958.445 509.502 962.234 506.195 965.332C502.845 968.43 498.659 970.565 493.635 971.737C483.293 974.166 472.199 974.563 460.35 972.931C455.033 972.135 450.574 971.047 446.974 969.665C436.256 965.646 428.029 960.58 422.293 954.467C416.557 948.355 413.438 942.117 412.936 935.753C412.475 929.431 413.71 923.004 416.641 916.473C419.572 909.942 423.863 904.143 429.515 899.077C435.167 894.011 441.782 889.887 449.36 886.706C456.938 883.524 464.014 881.954 470.587 881.996Z" fill="#4CAF50"/>
<path d="M529.431 879.044C531.817 874.02 534.727 871.047 538.16 870.126C541.593 869.205 544.524 868.787 546.952 868.87C551.516 868.87 555.472 870.754 558.821 874.522C562.171 878.29 564.641 883.189 566.232 889.218C571.507 909.774 570.607 930.31 563.531 950.825C561.48 956.812 558.633 961.648 554.991 965.332C551.348 969.016 547.329 970.775 542.933 970.607C534.099 970.356 528.007 968.556 524.658 965.206C521.309 961.857 519.655 956.372 519.697 948.752C519.697 916.012 522.941 892.776 529.431 879.044Z" fill="#4CAF50"/>
<path d="M633.554 887.836C642.053 891.813 648.312 893.802 652.331 893.802C656.351 893.802 661.354 892.881 667.341 891.039C673.328 889.197 677.912 888.276 681.094 888.276C691.896 888.276 700.269 894.87 706.214 908.058C712.159 921.288 713.918 934.518 711.489 947.748C709.061 960.978 703.095 967.614 693.591 967.655C689.907 967.655 686.6 967.111 683.669 966.023C680.738 964.892 678.435 963.573 676.761 962.066C675.086 960.559 673.6 959.031 672.302 957.482C669.078 953.714 666.21 951.851 663.698 951.893C661.228 951.934 658.967 953.442 656.916 956.414C656.162 957.503 654.739 958.507 652.645 959.429C650.552 960.35 647.935 960.81 644.795 960.81C641.613 960.81 638.85 960.35 636.506 959.429C634.161 958.507 632.445 957.503 631.356 956.414C628.425 953.442 626.248 951.976 624.825 952.018C623.401 952.06 621.371 953.923 618.733 957.607C617.603 959.156 616.326 960.685 614.902 962.192C611.469 965.834 606.696 967.655 600.584 967.655C588.149 967.655 580.718 962.129 578.29 951.076C575.861 940.065 577.536 928.405 583.314 916.096C589.091 903.787 596.083 895.749 604.289 891.981C611.155 888.883 617.121 887.124 622.187 886.706C627.253 886.287 631.042 886.664 633.554 887.836Z" fill="#4CAF50"/>
<path d="M761.604 913.521C761.604 916.787 763.551 918.713 767.445 919.299C771.338 919.885 775.232 919.341 779.126 917.666C783.019 915.992 784.966 913.961 784.966 911.575C784.966 907.807 783.019 905.671 779.126 905.169C775.232 904.667 771.338 905.42 767.445 907.43C763.551 909.439 761.604 911.47 761.604 913.521ZM776.551 881.996C783.124 881.996 789.236 882.979 794.889 884.947C800.541 886.915 805.418 889.867 809.521 893.802C813.624 897.696 815.675 901.736 815.675 905.923C815.675 910.109 814.65 913.773 812.598 916.913C810.547 920.053 808.265 922.46 805.753 924.135C803.241 925.809 800.938 927.526 798.845 929.284C796.752 931.001 795.684 932.445 795.642 933.618C795.642 934.79 796.752 935.732 798.971 936.444C801.19 937.113 803.66 937.783 806.381 938.453C809.102 939.123 811.573 940.756 813.791 943.352C816.01 945.947 817.12 949.485 817.12 953.965C817.12 958.445 815.466 962.234 812.159 965.332C808.809 968.43 804.623 970.565 799.599 971.737C789.257 974.166 778.163 974.563 766.314 972.931C760.997 972.135 756.538 971.047 752.938 969.665C742.22 965.646 733.993 960.58 728.257 954.467C722.521 948.355 719.402 942.117 718.9 935.753C718.439 929.431 719.674 923.004 722.605 916.473C725.536 909.942 729.827 904.143 735.479 899.077C741.131 894.011 747.746 889.887 755.324 886.706C762.902 883.524 769.978 881.954 776.551 881.996Z" fill="#4CAF50"/>
<path d="M824.342 910.381C824.342 904.687 826.247 901.212 830.057 899.956C831.731 899.454 833.448 898.994 835.206 898.575C839.519 897.57 842.303 894.807 843.559 890.285C844.815 885.764 847.494 881.849 851.597 878.542C855.7 875.276 860.201 873.099 865.099 872.01C869.998 870.922 874.896 871.215 879.795 872.889C884.693 874.564 888.378 877.683 890.848 882.247C892.564 885.177 893.59 887.417 893.925 888.966C894.009 889.385 894.532 889.887 895.495 890.474C896.458 891.06 897.484 891.478 898.572 891.73C899.661 891.981 901.754 892.441 904.852 893.111C907.95 893.781 910.358 895.288 912.074 897.633C913.791 900.061 914.649 902.866 914.649 906.048C914.649 909.23 913.958 911.951 912.577 914.212C911.195 916.473 909.499 918.19 907.49 919.362C905.48 920.534 903.45 921.581 901.398 922.502C896.332 924.805 893.59 927.631 893.171 930.98C892.753 934.329 892.229 938.035 891.601 942.096C890.973 946.157 890.052 949.401 888.838 951.83C885.782 957.775 882.705 961.689 879.606 963.573C875.127 966.295 869.14 967.676 861.645 967.718C854.109 967.718 848.918 965.541 846.071 961.187C844.271 958.424 843.077 955.409 842.491 952.144C841.905 948.878 841.633 944.88 841.675 940.149C841.717 935.334 841.654 931.922 841.487 929.912C841.277 927.903 840.251 926.207 838.409 924.825C836.567 923.444 834.62 922.502 832.569 921.999C830.517 921.497 828.633 920.241 826.917 918.231C825.2 916.222 824.342 913.605 824.342 910.381Z" fill="#4CAF50"/>
<path d="M309.957 1026.46L304.732 1054.74L294.531 1050.08L298.574 1028.14C294.013 1029.3 290.488 1030.6 288 1032.05C288.788 1027.7 290.011 1021.15 291.67 1012.41C297.558 1011.09 303.509 1010.3 309.522 1010.05C311.305 1009.97 312.943 1009.93 314.436 1009.93C317.878 1009.93 320.47 1010.13 322.211 1010.55L320.47 1025.77C318.147 1025.94 314.643 1026.17 309.957 1026.46Z" fill="#4CAF50"/>
<path d="M326.876 1009.49L337.078 1014.15L334.403 1028.88C336.601 1028.51 339.089 1028.18 341.867 1027.89L345.226 1009.37L357.729 1014.59L350.389 1054.86L337.886 1049.7L338.695 1045.17C335.751 1045.75 333.2 1046.41 331.044 1047.15L329.738 1054.43L319.599 1049.83L326.876 1009.49Z" fill="#4CAF50"/>
<path d="M363.14 1012.29C369.029 1011 374.98 1010.24 380.993 1009.99C382.776 1009.9 384.414 1009.86 385.907 1009.86C389.348 1009.86 391.94 1010.07 393.682 1010.48L391.94 1025.71C387.42 1025.96 384.414 1026.15 382.921 1026.27C379.52 1026.56 376.514 1026.91 373.901 1027.33L373.217 1031.12L383.729 1029.63L384.787 1037.77L371.662 1039.7L370.854 1044.42C376.659 1043.96 382.237 1042.91 387.586 1041.25C388.332 1043.69 389.473 1047.09 391.007 1051.44C383.584 1053.93 374.98 1055.07 365.193 1054.86C364.778 1053.78 364.219 1052.13 363.514 1049.89L359.097 1047.9L362.27 1030.56C361.606 1030.85 360.652 1031.33 359.408 1031.99C360.196 1027.6 361.44 1021.03 363.14 1012.29Z" fill="#4CAF50"/>
<path d="M416.883 1030.81C415.722 1031.1 414.768 1031.31 414.022 1031.43C414.561 1028.99 415.266 1025.71 416.137 1021.61L418.252 1011.79C422.44 1010.92 427.022 1010.15 431.999 1009.49C434.03 1009.2 436.042 1009.05 438.032 1009.05C440.893 1009.05 443.672 1009.34 446.367 1009.93L449.726 1028.07C446.326 1032.47 440.997 1036.88 433.74 1041.31L448.918 1043.61L444.439 1054.43L424.161 1051.57L423.415 1055.73L413.213 1051.19L416.883 1030.81ZM428.391 1028.45L427.085 1035.66C428.577 1035.08 430.112 1034.27 431.688 1033.23C433.802 1031.82 434.86 1030.6 434.86 1029.57C434.86 1028.57 433.906 1028.07 431.999 1028.07C431.045 1028.07 429.842 1028.2 428.391 1028.45Z" fill="#4CAF50"/>
<path d="M464.53 1034.6L469.942 1033.79L469.507 1023.23L464.53 1034.6ZM470.44 1047.22L458.248 1049.27L455.324 1055.92L446.429 1049.52L464.53 1007.69L469.009 1010.92L468.947 1009.05L479.957 1010.8L481.636 1053.68L470.626 1051.88L470.44 1047.22Z" fill="#4CAF50"/>
<path d="M492.335 1009.43L502.101 1013.84L508.632 1026.77L521.446 1009.93L531.647 1014.52L524.369 1054.86L514.168 1050.2L516.221 1039.51L505.211 1054.12L498.057 1037.96L495.196 1054.36L485.057 1049.77L492.335 1009.43Z" fill="#4CAF50"/>
<path d="M538.613 1009.43L548.379 1013.84L554.91 1026.77L567.724 1009.93L577.925 1014.52L570.648 1054.86L560.446 1050.2L562.499 1039.51L551.489 1054.12L544.336 1037.96L541.475 1054.36L531.336 1049.77L538.613 1009.43Z" fill="#4CAF50"/>
<path d="M583.026 1012.29C588.914 1011 594.865 1010.24 600.878 1009.99C602.661 1009.9 604.299 1009.86 605.792 1009.86C609.234 1009.86 611.826 1010.07 613.567 1010.48L611.826 1025.71C607.306 1025.96 604.299 1026.15 602.806 1026.27C599.406 1026.56 596.399 1026.91 593.787 1027.33L593.103 1031.12L603.615 1029.63L604.672 1037.77L591.548 1039.7L590.739 1044.42C596.545 1043.96 602.122 1042.91 607.471 1041.25C608.218 1043.69 609.358 1047.09 610.893 1051.44C603.47 1053.93 594.865 1055.07 585.079 1054.86C584.664 1053.78 584.104 1052.13 583.399 1049.89L578.983 1047.9L582.155 1030.56C581.492 1030.85 580.538 1031.33 579.294 1031.99C580.082 1027.6 581.326 1021.03 583.026 1012.29Z" fill="#4CAF50"/>
<path d="M618.543 1030.81C617.382 1031.1 616.429 1031.31 615.682 1031.43C616.221 1028.99 616.926 1025.71 617.797 1021.61L619.912 1011.79C624.1 1010.92 628.682 1010.15 633.659 1009.49C635.691 1009.2 637.702 1009.05 639.692 1009.05C642.554 1009.05 645.332 1009.34 648.027 1009.93L651.386 1028.07C647.986 1032.47 642.657 1036.88 635.4 1041.31L650.578 1043.61L646.099 1054.43L625.821 1051.57L625.075 1055.73L614.874 1051.19L618.543 1030.81ZM630.051 1028.45L628.745 1035.66C630.237 1035.08 631.772 1034.27 633.348 1033.23C635.462 1031.82 636.52 1030.6 636.52 1029.57C636.52 1028.57 635.566 1028.07 633.659 1028.07C632.705 1028.07 631.502 1028.2 630.051 1028.45Z" fill="#4CAF50"/>
<path d="M677.325 1009.86C680.518 1009.86 683.296 1010.77 685.66 1012.6L690.449 1028.32L676.205 1031.93C676.412 1031.1 676.516 1030.39 676.516 1029.81C676.516 1028.65 675.977 1028.07 674.899 1028.07C673.157 1028.07 671.27 1029.28 669.238 1031.68C668.077 1033.05 667.455 1034.37 667.372 1035.66L683.047 1033.36L687.339 1040.5C684.976 1044.56 681.99 1047.92 678.382 1050.57C674.277 1053.56 670.109 1055.05 665.879 1055.05C662.189 1055.05 659.079 1053.87 656.549 1051.51V1051.44L665.444 1043.55C666.066 1045.04 666.999 1045.79 668.243 1045.79C668.907 1045.79 669.653 1045.58 670.482 1045.17C672.929 1044.05 674.028 1042.68 673.779 1041.06L653.626 1041.87L651.946 1036.22C652.071 1035.39 652.299 1034.14 652.63 1032.49C654.04 1026.69 657.005 1021.57 661.525 1017.13C666.419 1012.29 671.685 1009.86 677.325 1009.86Z" fill="#4CAF50"/>
<path d="M733.556 1009.68C736.749 1009.68 739.527 1010.59 741.891 1012.41L747.302 1030.12C747.178 1030.7 747.033 1031.41 746.867 1032.24C746.577 1033.36 746.203 1034.54 745.747 1035.78H732.809C733.017 1034.99 733.12 1034.29 733.12 1033.67C733.12 1031.84 732.208 1030.93 730.383 1030.93C729.015 1030.93 727.543 1031.6 725.967 1032.92C724.723 1034 723.665 1035.24 722.795 1036.65C721.675 1038.52 721.157 1040.21 721.24 1041.75C721.281 1043.24 721.924 1044.13 723.168 1044.42C725.449 1044.92 727.854 1043.57 730.383 1040.38L739.651 1045.79C734.219 1051.84 728.372 1054.86 722.11 1054.86C718.42 1054.86 715.33 1053.68 712.842 1051.32L708.177 1036.03C708.26 1034.91 708.488 1033.65 708.861 1032.24C710.354 1026.4 713.319 1021.28 717.756 1016.89C722.608 1012.08 727.875 1009.68 733.556 1009.68Z" fill="#4CAF50"/>
<path d="M754.58 1009.49L764.781 1014.15L762.107 1028.88C764.304 1028.51 766.792 1028.18 769.571 1027.89L772.93 1009.37L785.432 1014.59L778.093 1054.86L765.59 1049.7L766.398 1045.17C763.454 1045.75 760.904 1046.41 758.748 1047.15L757.441 1054.43L747.302 1049.83L754.58 1009.49Z" fill="#4CAF50"/>
<path d="M810.002 1009.8C813.195 1009.8 815.974 1010.71 818.337 1012.54L823.749 1030.25C823.666 1030.75 823.5 1031.47 823.251 1032.42C821.8 1038.23 818.835 1043.34 814.357 1047.78C809.463 1052.62 804.197 1055.05 798.557 1055.05C794.866 1055.05 791.756 1053.85 789.227 1051.44L784.686 1036.15C784.769 1035.32 784.976 1034.08 785.308 1032.42C786.801 1026.58 789.766 1021.46 794.203 1017.07C799.055 1012.22 804.321 1009.8 810.002 1009.8ZM806.83 1030.99C805.462 1030.99 803.99 1031.68 802.414 1033.05C801.17 1034.12 800.112 1035.37 799.241 1036.78C798.122 1038.64 797.603 1040.34 797.686 1041.87C797.728 1043.74 798.619 1044.67 800.361 1044.67C801.688 1044.67 803.139 1044.01 804.715 1042.68C806.001 1041.56 807.079 1040.3 807.95 1038.89C809.069 1037.07 809.588 1035.39 809.505 1033.85C809.422 1031.95 808.53 1030.99 806.83 1030.99Z" fill="#4CAF50"/>
<path d="M830.405 1009.74L840.606 1014.34L833.266 1054.68L823.065 1050.01L830.405 1009.74Z" fill="#4CAF50"/>
<path d="M865.238 1009.68C868.431 1009.68 871.21 1010.59 873.573 1012.41L878.985 1030.12C878.86 1030.7 878.715 1031.41 878.549 1032.24C878.259 1033.36 877.886 1034.54 877.43 1035.78H864.492C864.699 1034.99 864.803 1034.29 864.803 1033.67C864.803 1031.84 863.89 1030.93 862.066 1030.93C860.697 1030.93 859.225 1031.6 857.649 1032.92C856.405 1034 855.348 1035.24 854.477 1036.65C853.357 1038.52 852.839 1040.21 852.922 1041.75C852.964 1043.24 853.606 1044.13 854.85 1044.42C857.131 1044.92 859.536 1043.57 862.066 1040.38L871.334 1045.79C865.902 1051.84 860.055 1054.86 853.793 1054.86C850.102 1054.86 847.013 1053.68 844.525 1051.32L839.859 1036.03C839.942 1034.91 840.171 1033.65 840.544 1032.24C842.037 1026.4 845.002 1021.28 849.439 1016.89C854.29 1012.08 859.557 1009.68 865.238 1009.68Z" fill="#4CAF50"/>
<path d="M884.459 1012.29C890.347 1011 896.298 1010.24 902.311 1009.99C904.094 1009.9 905.732 1009.86 907.225 1009.86C910.667 1009.86 913.258 1010.07 915 1010.48L913.258 1025.71C908.738 1025.96 905.732 1026.15 904.239 1026.27C900.839 1026.56 897.832 1026.91 895.22 1027.33L894.535 1031.12L905.048 1029.63L906.105 1037.77L892.98 1039.7L892.172 1044.42C897.977 1043.96 903.555 1042.91 908.904 1041.25C909.651 1043.69 910.791 1047.09 912.325 1051.44C904.902 1053.93 896.298 1055.07 886.511 1054.86C886.097 1053.78 885.537 1052.13 884.832 1049.89L880.415 1047.9L883.588 1030.56C882.924 1030.85 881.971 1031.33 880.727 1031.99C881.514 1027.6 882.758 1021.03 884.459 1012.29Z" fill="#4CAF50"/>
<path d="M1196.2 504.692C1195.23 504.692 1097.92 504.692 1097.92 504.692L1099.87 521.234L1104.73 552.371C1104.73 634.108 1045.38 698.329 971.424 698.329H952.936V1101.17C952.936 1101.17 974.343 1130.37 1014.24 1066.14C1047.32 1012.63 1228.31 756.713 1196.2 504.692Z" fill="#800080"/>
<path d="M93.7282 554.318L101.513 503.719C101.513 503.719 6.15334 501.773 4.20723 499.827C-29.8496 752.82 153.084 1011.65 185.195 1064.2C225.09 1129.39 246.498 1099.23 246.498 1099.23V696.384H228.009C153.084 698.33 93.7282 634.108 93.7282 554.318Z" fill="#800080"/>
<path d="M1139.76 398.63H1082.35L1094.03 474.528H1155.33H1168.95H1178.68V434.633V426.849V398.63H1171.87H1168.95H1155.33H1139.76Z" fill="#4CAF50"/>
<path d="M45.0717 474.528H105.401L116.104 398.63H60.6403H52.856H30.4759H28.5297H27.5569V401.549V403.495V474.528H39.233H45.0717Z" fill="#4CAF50"/>
<path d="M972.395 668.165C1028.83 668.165 1075.54 617.567 1075.54 555.291L1067.75 504.693L1066.78 498.854L1065.81 489.124L1063.86 473.555L1052.19 397.657L1051.21 392.791C1051.21 388.899 1050.24 385.98 1050.24 383.061C1050.24 378.196 1049.27 372.357 1048.29 367.492C1041.48 331.489 1019.1 302.298 990.884 287.702C978.234 280.89 963.638 276.998 948.069 276.998C943.204 276.998 716.482 244.887 602.635 244.887C489.761 244.887 254.282 276.998 252.336 276.998C236.767 276.998 221.199 280.89 207.576 287.702C178.384 302.298 156.004 331.489 149.193 367.492C148.22 372.357 148.219 377.223 148.219 383.061C148.219 385.98 147.247 387.926 147.247 390.845L146.273 398.63L135.57 474.528L133.624 490.097L131.677 505.666L129.732 519.288L123.893 558.21C123.893 618.54 170.6 669.138 227.037 669.138H245.525H376.887C417.755 669.138 453.758 642.866 470.3 601.998C472.246 598.106 512.142 515.396 606.528 515.396C688.264 515.396 728.159 601.025 729.132 601.025V601.998C745.674 642.866 782.65 668.165 822.545 668.165H953.907H972.395ZM822.545 607.836C799.192 607.836 782.65 590.321 776.812 575.725C770.001 560.156 753.458 529.992 725.24 504.693C719.401 499.827 713.563 493.989 706.752 489.124C698.968 483.285 691.183 478.42 683.399 473.555C661.018 461.878 635.719 453.121 605.554 453.121C572.471 453.121 544.252 460.905 519.926 473.555C511.168 478.42 502.411 483.285 494.627 489.124C487.815 493.989 481.004 498.854 475.166 504.693C449.866 527.073 432.351 552.372 423.593 571.833C423.593 571.833 400.24 607.836 375.914 607.836H245.525H226.064C198.818 607.836 176.438 584.483 176.438 555.291L184.222 504.693L186.169 489.124V486.205L188.115 473.555L198.818 397.657L199.791 387.926C199.791 385.98 199.791 384.034 200.764 382.088C201.738 377.222 202.71 371.384 204.656 366.519C208.549 356.788 216.333 349.004 225.091 344.139C228.983 341.22 233.848 339.273 238.713 338.3C242.605 337.327 246.498 336.354 250.39 336.354C255.255 335.381 322.396 327.597 400.24 318.839C474.192 311.055 557.875 303.27 602.635 303.27C658.099 303.27 739.836 311.055 809.896 318.839C883.848 326.624 944.177 335.381 949.042 336.354C951.961 336.354 954.88 336.354 957.8 337.327C962.665 338.3 967.53 340.246 971.423 343.166C979.207 348.031 986.018 355.815 990.884 365.546C992.83 370.411 994.776 375.276 995.749 381.115C995.749 384.034 996.722 385.98 996.722 388.899L997.695 396.684L1009.37 472.582V475.501L1011.32 487.178L1013.26 502.746L1020.08 550.426C1020.08 581.564 997.695 605.89 970.449 605.89H951.962H822.545V607.836Z" fill="#4CAF50"/>
<path fill-rule="evenodd" clip-rule="evenodd" d="M650.969 0.024232C650.032 26.8142 628.018 48.2444 601 48.2444C573.973 48.2444 551.955 26.8012 551.03 0C283.764 14.1962 105.233 144.575 38.2666 367.491H44.1047H62.5929V368.465H70.3772H120.003C126.815 321.758 155.033 282.836 193.955 262.402C211.47 253.644 230.931 247.806 251.365 247.806C251.798 247.752 252.915 247.605 254.659 247.375C284.307 243.47 495.168 215.695 603.61 215.695C704.294 215.695 888.03 239.638 938.306 246.189C945.364 247.109 949.792 247.686 950.99 247.806C971.424 247.806 989.913 252.671 1006.45 261.429C1044.4 280.89 1072.62 320.785 1079.43 367.491H1131.01H1146.57H1155.33H1163.12C1095.28 143.832 917.791 14.2936 650.969 0.024232Z" fill="#800080"/>
</svg>
