<svg width="2048" height="2048" viewBox="0 0 2048 2048" fill="none" xmlns="http://www.w3.org/2000/svg">
<g clip-path="url(#clip0_3_139)">
<rect width="2048" height="2048" fill="white"/>
<rect width="2810.01" height="2998.64" fill="#FFD700"/>
<rect width="1018.01" height="1018.01" transform="translate(5.98828 5.98828)" fill="black"/>
<path d="M481.066 357.393C501.166 343.432 526.155 338.139 550.327 338.659C572.203 339.438 593.36 345.469 614.338 351.261C623.639 353.418 633.599 356.394 643.04 353.239C650.365 350.822 654.776 344.111 660.524 339.438C664.117 338.219 668.029 338.758 671.762 338.419C662.52 377.106 652.98 415.733 643.599 454.4C640.744 454.6 637.89 454.8 635.056 454.999C632.78 436.844 629.946 418.19 620.884 402.012C612.381 386.034 599.148 371.993 582.103 365.262C567.732 359.43 550.407 359.011 536.894 367.279C522.004 376.307 510.806 392.944 511.585 410.8C511.525 432.45 523.241 452.023 537.473 467.542C559.269 493.586 587.631 513.938 605.815 542.979C619.148 563.95 622.561 589.974 618.589 614.201C613.679 639.546 597.711 662.435 575.476 675.617C553.041 689.158 526.535 694.671 500.507 694.591C474.879 694.411 449.79 688.719 424.6 684.725C413.762 683.207 402.565 681.11 391.767 684.006C381.268 686.542 373.543 696.788 361.867 694.351C371.927 651.21 382.006 608.07 391.926 564.889C395.2 564.649 398.473 564.369 401.766 564.13C404.601 588.636 409.211 613.722 421.986 635.212C432.884 653.707 451.326 667.987 472.484 672.401C488.452 675.837 506.076 674.818 520.307 666.21C535.377 656.923 546.714 640.505 547.353 622.49C548.351 605.333 542.722 588.157 532.702 574.316C510.427 543.039 478.472 519.97 457.753 487.455C445.299 469.2 438.652 446.89 440.608 424.741C441.985 397.318 458.951 372.712 481.066 357.393Z" fill="#FFD700"/>
<rect width="1018.01" height="1018.01" transform="translate(1024 5.98828)" fill="white"/>
<path d="M1441.44 347.102C1456.09 346.543 1470.72 346.743 1485.37 347.002C1504.86 345.884 1524.39 347.661 1543.9 346.703C1576.73 347.601 1610.85 343.827 1642.26 356.048C1663.59 363.955 1680.5 383.624 1684.54 406.588C1689.84 432.947 1680.21 460.783 1662.14 479.853C1644.9 499.342 1619.28 506.71 1595.72 514.718C1607.58 554.455 1618.56 594.452 1630.52 634.129C1634.4 645.411 1637.82 657.253 1644.92 666.957C1652.56 676.123 1665.13 677.201 1676.07 678.439C1676.11 680.955 1676.17 683.491 1676.27 686.047C1641.72 686.606 1607.19 686.566 1572.66 685.967C1557.05 630.715 1541.81 575.342 1525.82 520.229C1520.59 520.289 1515.38 520.309 1510.19 520.309C1502.72 546.368 1495.44 572.486 1488.03 598.565C1483.32 616.417 1476.85 633.91 1474.86 652.38C1473.71 660.108 1476.57 668.675 1483.48 672.608C1492.69 677.66 1503.5 677.441 1513.64 678.419C1512.08 680.915 1511.81 684.749 1509.08 686.207C1456.29 686.227 1403.42 686.886 1350.65 685.967C1351.52 683.551 1352.42 681.155 1353.34 678.759C1366.53 677.461 1381.72 676.602 1391.2 665.759C1399.46 655.515 1403.53 642.556 1407.4 630.096C1427.98 557.27 1448.44 484.405 1469.02 411.58C1472.44 397.802 1477.32 383.045 1473.39 368.888C1467.58 355.649 1450.94 357.026 1439.18 354.71C1439.92 352.174 1440.66 349.638 1441.44 347.102ZM1552.85 369.087C1539.96 414.076 1527.3 459.125 1514.09 504.034C1529.91 504.953 1546.32 504.653 1561.07 498.024C1586.06 487.381 1603.81 462.22 1607.52 434.963C1610.23 417.092 1610.44 395.985 1597.49 381.947C1586.23 369.626 1568.44 367.51 1552.85 369.087Z" fill="#FFD700"/>
<rect width="1018.01" height="1018.01" transform="translate(5.98828 1024)" fill="white"/>
<path d="M448.596 1405.13C485.036 1377.73 528.973 1360.41 574.388 1356.09C599.095 1353.77 624.441 1353.59 648.588 1359.97C659.922 1362.37 670.996 1366.37 682.61 1367.17C690.765 1367.87 696.762 1361.73 702.279 1356.71C705.078 1353.59 709.655 1355.39 713.293 1354.89C705.197 1391.61 697.682 1428.44 689.566 1465.14C686.248 1464.92 682.95 1464.7 679.651 1464.52C678.972 1444.74 675.973 1424.34 666.299 1406.81C657.383 1390.67 640.552 1379.77 622.542 1376.71C593.178 1370.67 562.734 1380.35 538.148 1396.39C509.203 1414.73 488.534 1443.38 473.383 1473.6C454.113 1511.51 444.418 1554.26 445.977 1596.8C446.837 1617.07 451.095 1637.89 462.289 1655.13C474.162 1672.84 492.832 1686.86 514.3 1689.92C528.893 1692.52 543.485 1688.36 557.177 1683.62C564.873 1655.95 572.729 1628.31 580.505 1600.66C583.563 1589.42 587.301 1578.26 588.76 1566.66C589.94 1558.14 584.023 1549.92 576.447 1546.58C569.551 1543.61 561.915 1543.35 554.559 1542.55C554.998 1540.05 555.438 1537.59 555.898 1535.13C604.952 1534.73 653.985 1534.29 703.019 1535.23C702.059 1537.49 701.18 1539.81 700 1541.99C692.564 1544.54 684.049 1544.66 677.632 1549.72C671.396 1554.22 667.698 1561.32 665.639 1568.58C654.885 1608.81 642.431 1648.59 630.978 1688.64C591.179 1705.18 547.702 1712.78 504.666 1710.54C473.582 1709.18 441.76 1700.18 417.713 1679.74C389.268 1655.47 371.038 1619.83 367.12 1582.72C363.162 1545.92 369.359 1507.67 386.889 1474.9C401.561 1447.16 423.649 1423.9 448.596 1405.13Z" fill="#FFD700"/>
<rect width="1018.01" height="1018.01" transform="translate(1024 1024)" fill="black"/>
<path d="M1454.6 1364.56C1500.29 1363.58 1546 1364.4 1591.69 1364.12C1615.8 1364.69 1640.79 1365.81 1663.11 1375.91C1683.69 1385.79 1699.93 1405.39 1703.51 1428.38C1705.57 1446.52 1704.9 1465.67 1696.66 1482.32C1682.54 1511.65 1655.43 1533.87 1624.77 1543.74C1591.6 1554.74 1555.91 1553.42 1521.84 1548.05C1512.81 1580.09 1503.82 1612.14 1494.83 1644.19C1492.39 1653.76 1489.3 1663.44 1489.7 1673.48C1489.82 1680.81 1493.88 1688.43 1500.89 1691.2C1510.2 1694.91 1520.4 1694.93 1530.26 1695.55C1529.53 1698.09 1528.79 1700.62 1528.1 1703.2C1502.37 1704.53 1476.61 1703.48 1450.88 1703.82C1421.65 1703.76 1392.4 1703.9 1363.17 1703.76C1364.02 1701.22 1364.79 1698.71 1365.92 1696.33C1377.42 1694 1390.36 1695.67 1400.42 1688.41C1411.98 1680.51 1415.27 1666.02 1419.21 1653.43C1441.36 1575.71 1463.83 1498.1 1485.74 1420.33C1488.11 1408.82 1493.28 1395.43 1486.35 1384.59C1478.69 1373.46 1463.87 1373.6 1451.93 1371.9C1452.82 1369.42 1453.71 1366.99 1454.6 1364.56ZM1567.12 1386.83C1553.65 1434.42 1540.48 1482.12 1526.87 1529.67C1544.99 1529.24 1564.36 1532.43 1581.14 1523.65C1603.38 1512.29 1615.46 1488.13 1622.65 1465.2C1628.04 1444.38 1630.97 1418.92 1616.17 1401.26C1604.27 1387.07 1584.29 1385.31 1567.12 1386.83Z" fill="#FFD700"/>
</g>
<defs>
<clipPath id="clip0_3_139">
<rect width="2048" height="2048" fill="white"/>
</clipPath>
</defs>
</svg>
