<svg width="2460" height="454" viewBox="0 0 2460 454" fill="none" xmlns="http://www.w3.org/2000/svg">
<rect width="2460" height="453.333" fill="black"/>
<path d="M604.707 159.8C625.427 156.72 646.453 158.467 667.16 160.68C667.173 167.12 667.16 173.56 667.173 180C647.987 177.587 628.493 174.947 609.173 177.507C605.587 177.84 602.08 179.493 600.027 182.533C596.187 187.547 597.347 194.2 597.147 200.08C597.28 205.52 596.013 212.56 601.267 216.12C607.72 219.88 615.573 219.16 622.76 219.347C636.107 219.587 650.747 217.987 662.613 225.387C671.213 230.627 673.587 241.347 673.907 250.707C674.107 263.813 675.067 278.333 667.067 289.573C659.96 299.36 647.507 302.787 636.053 303.96C615.853 306.08 595.547 303.733 575.507 301.173C575.493 294.08 575.52 286.987 575.493 279.907C594.547 283.573 614.053 286.76 633.507 284.733C639.08 283.96 646.04 282.613 648.307 276.653C650.293 270.013 649.013 262.92 649.373 256.093C649.507 250.853 649.387 244.133 644.08 241.333C635.267 237.373 625.32 239.04 615.96 238.68C604.107 238.613 590.547 238.133 581.507 229.347C572.933 220.573 572.653 207.48 572.813 195.973C572.52 186.813 573.867 176.707 580.693 169.973C587.12 163.733 596.107 161.24 604.707 159.8Z" fill="#FFD700"/>
<path d="M702.333 158C710.16 158 718 158 725.84 158C725.827 166.053 725.827 174.107 725.84 182.16C718 182.16 710.16 182.16 702.333 182.16C702.333 174.107 702.333 166.053 702.333 158Z" fill="#FFD700"/>
<path d="M1314.51 158C1322.33 158 1330.16 158 1338 158C1337.99 166.053 1337.99 174.107 1338 182.16C1330.16 182.16 1322.33 182.16 1314.51 182.16C1314.49 174.107 1314.49 166.053 1314.51 158Z" fill="#FFD700"/>
<path d="M1725.15 165.533C1741.71 159.12 1759.64 157.28 1777.27 158.44C1790.59 158.467 1803.8 160.24 1817 161.84C1816.99 168.387 1816.99 174.947 1817 181.493C1797.73 178.533 1778.25 175.72 1758.72 176.733C1749.35 177.547 1739.2 179.053 1731.85 185.467C1727.37 189.387 1725.81 195.507 1725.85 201.253C1725.88 222.44 1725.71 243.627 1725.96 264.8C1725.87 272.907 1732.04 279.6 1739.44 282.053C1757.68 289.053 1777.91 286.947 1796.67 283.347C1796.68 268.4 1796.73 253.44 1796.65 238.493C1785.88 238.507 1775.11 238.493 1764.33 238.493C1764.33 232.28 1764.32 226.053 1764.33 219.827C1782.95 219.827 1801.55 219.827 1820.16 219.84C1820.16 245.893 1820.17 271.947 1820.16 298C1804.29 301.493 1788.2 304.347 1771.92 304.68C1754.65 305.413 1736.88 303.493 1721.07 296.173C1709.65 291.053 1701.37 279.307 1701.23 266.68C1701.13 243.987 1701.11 221.293 1701.24 198.6C1701.13 183.987 1711 169.733 1725.15 165.533Z" fill="#FFD700"/>
<path d="M954.493 160.173C971.88 160.173 989.267 160.147 1006.67 160.187C1017.51 160.44 1028.57 160.547 1039.03 163.813C1045.41 165.827 1051.39 170.227 1053.83 176.64C1057 184.933 1055.73 193.987 1056 202.667C1055.93 211.333 1056.99 221.173 1051.04 228.347C1043.55 237.24 1031.47 240.907 1020.16 241.107C1035 261.6 1049.77 282.147 1064.57 302.667C1055 302.667 1045.44 302.667 1035.88 302.667C1022.64 282.92 1009.41 263.187 996.093 243.493C990.493 243.493 984.907 243.493 979.32 243.507C979.413 263.227 979.307 282.947 979.333 302.667C971.053 302.667 962.773 302.667 954.493 302.667C954.493 255.16 954.493 207.667 954.493 160.173ZM979.333 177.84C979.347 193.84 979.333 209.84 979.333 225.84C989.733 225.773 1000.13 225.96 1010.53 225.76C1016.32 225.213 1022.83 224.88 1027.4 220.827C1031.93 216.48 1030.93 209.693 1031.01 204.013C1030.79 198.693 1031.51 193.28 1030.55 188.027C1028.67 181.52 1021.31 179.28 1015.32 178.52C1003.36 177.293 991.32 178.04 979.333 177.84Z" fill="#FFD700"/>
<path d="M1851.67 160.173C1872.71 160.387 1893.79 159.64 1914.81 160.707C1925.76 161.667 1938.39 163.76 1945.23 173.36C1951.57 182.293 1949.97 193.733 1950.16 204.027C1949.96 214.12 1951.29 224.947 1946.37 234.213C1941.79 242.6 1932.72 247.16 1923.81 249.467C1908.45 253.627 1892.39 252.507 1876.65 252.667C1876.72 269.333 1876.64 286 1876.67 302.667C1868.32 302.667 1859.99 302.667 1851.67 302.667C1851.71 255.16 1851.65 207.667 1851.67 160.173ZM1876.49 235.667C1884.79 235.613 1893.08 235.76 1901.37 235.613C1908.56 235.32 1916.33 233.693 1921.63 228.467C1927.55 221.747 1924.93 212.16 1925.51 204.027C1925.05 196.147 1927.91 185.16 1919.17 180.747C1905.68 175.293 1890.68 177.787 1876.51 177.16C1876.49 196.667 1876.51 216.16 1876.49 235.667Z" fill="#FFD700"/>
<path d="M2288.67 163.333C2296.55 163.333 2304.44 163.333 2312.33 163.333C2312.31 174 2312.36 184.667 2312.33 195.333C2324.6 195.333 2336.88 195.347 2349.16 195.333C2349.15 200.88 2349.19 206.44 2349.17 212C2336.89 212 2324.61 212 2312.33 212C2312.36 232.2 2312.28 252.4 2312.43 272.587C2312.44 277.8 2313.12 284.52 2318.87 286.533C2328.69 289.813 2339.16 287.4 2349.17 286.253C2349.19 291.787 2349.13 297.307 2349.16 302.827C2336.64 304.507 2323.84 305.827 2311.31 303.707C2305.03 302.627 2298.49 300.187 2294.63 294.853C2289.53 287.947 2288.87 279 2288.69 270.72C2288.64 251.147 2288.68 231.573 2288.67 212C2280.99 212 2273.32 212 2265.67 212C2265.65 206.44 2265.65 200.88 2265.67 195.333C2273.32 195.333 2280.99 195.333 2288.67 195.333C2288.67 184.667 2288.67 174 2288.67 163.333Z" fill="#FFD700"/>
<path d="M797.213 194.773C807.24 193.013 817.587 192.813 827.667 194.2C835.427 195.413 843.907 198.92 846.827 206.867C850 197.693 860.88 196.44 869.013 194.413C880.987 192.667 893.84 192.493 905.227 197.147C915.147 201.24 919.813 212.4 919.773 222.587C919.947 249.28 919.8 275.973 919.827 302.667C912.053 302.667 904.28 302.667 896.493 302.667C896.48 276.92 896.547 251.187 896.467 225.44C896.56 220.387 894.707 213.96 889.133 212.6C881.413 210.64 873.307 211 865.44 211.667C861.053 212.147 855.76 213.187 853.533 217.48C851.707 222.08 852.12 227.16 851.987 232.013C852.067 255.56 852 279.12 852 302.667C844.213 302.667 836.44 302.667 828.667 302.667C828.627 276.64 828.76 250.6 828.6 224.573C828.707 219.173 825.88 212.907 819.907 212.2C809.8 210.667 799.027 210.4 789.2 213.56C783.573 215.2 782.48 221.613 782.56 226.667C782.453 252 782.547 277.333 782.507 302.667C774.667 302.667 766.827 302.667 759 302.667C759.04 266.88 759 231.107 759 195.333C766.84 195.333 774.68 195.333 782.52 195.333C782.52 199.04 782.493 202.747 782.307 206.453C783.307 199.08 790.827 196.013 797.213 194.773Z" fill="#FFD700"/>
<path d="M1094.16 195.427C1111.09 194.027 1128.11 192.747 1145.11 193.547C1153.43 194.28 1162.47 194.733 1169.39 199.947C1179.41 208.307 1177.75 222.92 1178 234.627C1178.05 257.307 1177.99 279.987 1178 302.667C1170.37 302.667 1162.75 302.68 1155.12 302.653C1155.15 300.413 1155.2 298.173 1155.33 295.947C1151.35 303.307 1141.96 303.813 1134.57 304.547C1122.92 305.013 1110.64 305.333 1099.72 300.627C1090.32 296.4 1087 285.4 1086.57 275.893C1086.11 266.413 1086.09 255.88 1091.79 247.8C1097.49 240.467 1107.37 238.813 1116.09 238.067C1128.87 237.267 1141.69 237.84 1154.49 237.667C1154.09 230.84 1155.45 223.733 1153.53 217.08C1150.89 211.747 1143.95 211.427 1138.75 210.973C1123.84 210.333 1108.95 211.653 1094.16 213.333C1094.2 207.36 1094.15 201.387 1094.16 195.427ZM1121.11 253.827C1116.97 253.973 1111.69 254.92 1110.36 259.507C1108.97 266.707 1108.77 274.373 1110.75 281.48C1112.31 286.52 1118.03 288.04 1122.73 288.107C1131.04 288.253 1139.45 288.227 1147.61 286.48C1150.8 285.88 1154.45 283.8 1154.41 280.107C1154.63 271.293 1154.51 262.48 1154.49 253.667C1143.36 253.773 1132.23 253.467 1121.11 253.827Z" fill="#FFD700"/>
<path d="M1230.91 195.2C1250.03 191.907 1269.69 193.107 1288.67 196.893C1288.65 202.787 1288.69 208.68 1288.67 214.573C1273.55 211.52 1257.97 208.987 1242.57 211.107C1237.24 211.627 1232 215.52 1231.87 221.24C1230.77 233.68 1231.59 246.2 1231.36 258.667C1231.53 265.227 1230.84 271.88 1232.23 278.347C1233.39 283.64 1239.07 286.053 1243.96 286.573C1259.4 288.573 1275.05 286.493 1290.16 283.107C1290.2 289.24 1290.15 295.373 1290.16 301.507C1282.33 302.56 1274.57 304.187 1266.65 304.32C1252.51 304.933 1237.79 306.027 1224.28 300.933C1218.8 299.12 1214.52 294.747 1212.04 289.627C1207.73 281.827 1207.48 272.667 1207.48 263.973C1207.56 252.413 1207.39 240.853 1207.57 229.293C1207.77 221.227 1208.92 212.613 1214 206.04C1218.05 200.533 1224.07 196.347 1230.91 195.2Z" fill="#FFD700"/>
<path d="M1410.44 194.507C1419.67 193.04 1429.12 192.933 1438.39 194.107C1445.87 195.147 1453.83 197.747 1458.53 204.04C1463.31 209.973 1464.39 217.853 1464.51 225.227C1464.53 251.04 1464.51 276.853 1464.51 302.667C1456.67 302.667 1448.83 302.667 1441 302.667C1441.01 276.84 1441.01 251.013 1441.01 225.187C1441.03 220.653 1439.83 215.12 1435.37 212.947C1429.19 210.693 1422.44 211.013 1415.97 211.067C1409.61 211.453 1402.39 211.64 1397.51 216.307C1394.79 219.493 1394.99 224 1394.83 227.947C1394.84 252.853 1394.83 277.76 1394.84 302.667C1387 302.667 1379.16 302.667 1371.33 302.667C1371.33 266.893 1371.33 231.107 1371.33 195.333C1379.16 195.333 1386.99 195.333 1394.81 195.333C1394.81 198.973 1394.63 202.653 1395.27 206.253C1395.73 204.48 1395.73 202.507 1396.83 200.933L1397.44 200.227C1401.07 197.027 1405.69 195.227 1410.44 194.507Z" fill="#FFD700"/>
<path d="M1500.53 206.12C1506.85 197.627 1517.92 194.933 1527.91 193.8C1538.48 193.12 1549.51 192.56 1559.68 196.107C1563.63 197.373 1566.89 200.373 1568.13 204.387C1567.96 201.373 1567.97 198.347 1567.99 195.333C1575.37 195.333 1582.76 195.333 1590.16 195.333C1590.17 234.227 1590.19 273.133 1590.17 312.027C1590.12 321.64 1587.59 331.88 1580.49 338.76C1572.97 346.093 1562.09 347.987 1552.07 349.067C1535.09 350.32 1517.99 349.48 1501.16 346.987C1501.29 341.093 1501.2 335.213 1501.15 329.32C1516.64 330.8 1532.19 333.347 1547.79 332.213C1554.77 331.653 1563.31 329.293 1565.63 321.747C1567.71 313.973 1566.28 305.8 1566.71 297.853C1557.99 304.32 1546.45 304.573 1536.04 304.813C1525.36 304.427 1513.8 304.16 1504.53 298.173C1496.95 292.987 1494.35 283.293 1494.11 274.56C1493.85 261.707 1494.08 248.84 1493.99 235.987C1493.91 225.787 1494.08 214.613 1500.53 206.12ZM1527.25 211.56C1522.33 212.16 1517.73 215.787 1517.65 221.04C1516.6 234 1517.44 247.027 1517.19 260.013C1517.49 267.16 1516.29 274.627 1518.69 281.507C1521 286.387 1527.05 287.213 1531.85 287.64C1541.19 288.16 1550.96 288.653 1559.89 285.44C1564.63 283.653 1566.73 278.32 1566.64 273.573C1566.81 258.387 1566.59 243.2 1566.68 228.013C1566.6 224.16 1566.81 220.013 1564.84 216.547C1561.21 211.96 1554.85 211.227 1549.43 210.84C1542.04 210.6 1534.56 210.28 1527.25 211.56Z" fill="#FFD700"/>
<path d="M2062.24 199.467C2069.03 194.067 2078.23 193.853 2086.52 193.36C2097.37 193.307 2109.36 193.44 2118.53 200.107C2126.25 205.933 2128.45 216.173 2128.47 225.347C2128.55 251.12 2128.48 276.893 2128.51 302.667C2120.65 302.667 2112.83 302.667 2105 302.667C2104.97 276.893 2105.04 251.107 2104.97 225.333C2104.91 220.88 2103.89 215.613 2099.76 213.16C2093.91 210.747 2087.37 211.08 2081.19 211.027C2074.99 211.347 2068.24 211.373 2062.93 215.013C2058.67 217.773 2058.91 223.48 2058.68 227.947C2058.68 252.853 2058.69 277.76 2058.67 302.667C2050.83 302.667 2042.99 302.667 2035.16 302.667C2035.21 266.88 2035.16 231.107 2035.17 195.333C2042.97 195.333 2050.8 195.347 2058.63 195.333C2058.6 199.68 2058.87 204.027 2058.91 208.387C2059.08 205.173 2059.36 201.507 2062.24 199.467Z" fill="#FFD700"/>
<path d="M2161.51 212.293C2166.57 200.28 2180.16 195.347 2192.24 194.133C2206.64 192.813 2222.09 192.4 2235.43 198.893C2244.44 203.12 2249.4 212.853 2250.33 222.44C2251.28 233.373 2250.67 244.373 2250.84 255.333C2227.73 255.333 2204.63 255.333 2181.52 255.32C2182.07 263.293 2179.81 272.4 2184.77 279.36C2189.67 285.307 2198.05 286.227 2205.25 286.76C2219.29 287.427 2233.2 284.667 2246.83 281.6C2246.85 287.8 2246.83 293.987 2246.83 300.187C2228.04 304.013 2208.57 306.467 2189.49 303.373C2178.89 301.613 2167.6 297.093 2161.96 287.387C2156.08 277.013 2158.33 264.613 2157.87 253.24C2158.35 239.613 2156.04 225.213 2161.51 212.293ZM2182.92 217.707C2180.44 224.373 2181.87 231.707 2181.51 238.667C2196.83 238.667 2212.16 238.667 2227.49 238.667C2226.67 230.493 2230 220.267 2223.39 213.853C2216.56 209.467 2207.85 210.187 2200.08 210.213C2193.96 210.8 2185.8 211.213 2182.92 217.707Z" fill="#FFD700"/>
<path d="M702.333 195.333C710.16 195.333 718 195.333 725.84 195.333C725.84 231.107 725.84 266.893 725.84 302.667C718 302.667 710.16 302.667 702.333 302.667C702.333 266.893 702.333 231.107 702.333 195.333Z" fill="#FFD700"/>
<path d="M1314.49 195.333C1322.33 195.333 1330.16 195.333 1338 195.333C1338 231.107 1338.03 266.88 1338 302.667C1330.16 302.667 1322.33 302.667 1314.49 302.667C1314.53 266.893 1314.49 231.107 1314.49 195.333Z" fill="#FFD700"/>
<path d="M1615.33 230C1636.56 230 1657.77 230 1679 230C1679 236.44 1679 242.893 1679 249.333C1657.77 249.333 1636.56 249.333 1615.33 249.333C1615.33 242.893 1615.33 236.44 1615.33 230Z" fill="#FFD700"/>
<path d="M1974.67 275.493C1984.33 275.493 1994 275.493 2003.67 275.493C2003.65 284.547 2003.65 293.613 2003.67 302.667C1994 302.667 1984.33 302.667 1974.67 302.667C1974.67 293.613 1974.65 284.547 1974.67 275.493Z" fill="#FFD700"/>
<rect width="453" height="453" fill="#FFD700"/>
<rect width="213.5" height="213.5" transform="translate(13 13)" fill="black"/>
<path d="M112.635 86.6975C116.85 83.7696 122.091 82.6596 127.16 82.7685C131.748 82.9319 136.185 84.1969 140.585 85.4116C142.535 85.864 144.624 86.4881 146.604 85.8263C148.14 85.3195 149.065 83.912 150.271 82.9319C151.024 82.6764 151.845 82.7895 152.628 82.7183C150.69 90.8318 148.689 98.9328 146.721 107.042C146.123 107.084 145.524 107.126 144.93 107.168C144.452 103.36 143.858 99.448 141.958 96.0551C140.174 92.7042 137.399 89.7595 133.824 88.3479C130.81 87.1248 127.177 87.0368 124.343 88.771C121.22 90.6643 118.872 94.1535 119.035 97.8982C119.022 102.439 121.48 106.544 124.464 109.798C129.035 115.26 134.984 119.529 138.797 125.619C141.593 130.017 142.309 135.475 141.476 140.556C140.446 145.871 137.098 150.672 132.434 153.436C127.729 156.276 122.17 157.432 116.712 157.416C111.337 157.378 106.075 156.184 100.792 155.346C98.5194 155.028 96.171 154.588 93.9064 155.196C91.7045 155.728 90.0846 157.876 87.6357 157.365C89.7455 148.318 91.8594 139.27 93.9399 130.214C94.6264 130.164 95.3129 130.105 96.0036 130.055C96.598 135.194 97.5649 140.455 100.244 144.963C102.53 148.841 106.397 151.836 110.835 152.762C114.183 153.482 117.88 153.269 120.864 151.463C124.025 149.516 126.402 146.073 126.536 142.294C126.746 138.696 125.565 135.094 123.464 132.191C118.792 125.632 112.09 120.794 107.745 113.974C105.133 110.146 103.739 105.467 104.15 100.822C104.438 95.0708 107.996 89.9103 112.635 86.6975Z" fill="#FFD700"/>
<rect width="213.5" height="213.5" transform="translate(226.5 13)" fill="white"/>
<path d="M314.046 84.5395C317.119 84.4222 320.188 84.4641 323.26 84.5185C327.348 84.284 331.443 84.6567 335.535 84.4557C342.421 84.6442 349.576 83.8527 356.164 86.4156C360.636 88.074 364.183 92.199 365.03 97.0151C366.143 102.543 364.121 108.381 360.333 112.38C356.716 116.468 351.344 118.013 346.401 119.692C348.889 128.026 351.193 136.414 353.701 144.736C354.515 147.102 355.231 149.585 356.72 151.62C358.324 153.543 360.959 153.769 363.254 154.028C363.262 154.556 363.275 155.088 363.295 155.624C356.049 155.741 348.807 155.733 341.565 155.607C338.292 144.019 335.097 132.407 331.742 120.848C330.645 120.861 329.553 120.865 328.465 120.865C326.898 126.33 325.372 131.808 323.817 137.277C322.831 141.021 321.472 144.689 321.055 148.563C320.814 150.184 321.415 151.98 322.863 152.806C324.795 153.865 327.061 153.819 329.189 154.024C328.862 154.548 328.804 155.352 328.231 155.657C317.16 155.662 306.072 155.8 295.005 155.607C295.189 155.1 295.377 154.598 295.57 154.095C298.335 153.823 301.523 153.643 303.511 151.369C305.242 149.221 306.097 146.503 306.907 143.89C311.223 128.617 315.515 113.335 319.832 98.062C320.548 95.1724 321.571 92.0776 320.748 89.1084C319.529 86.3319 316.039 86.6208 313.572 86.135C313.727 85.6032 313.883 85.0713 314.046 84.5395ZM337.413 89.1503C334.708 98.5855 332.053 108.033 329.283 117.452C332.601 117.644 336.042 117.582 339.135 116.191C344.376 113.959 348.099 108.682 348.877 102.966C349.446 99.2179 349.491 94.7913 346.774 91.8473C344.413 89.2634 340.682 88.8194 337.413 89.1503Z" fill="#FFD700"/>
<rect width="213.5" height="213.5" transform="translate(13 226.5)" fill="white"/>
<path d="M105.825 306.431C113.467 300.685 122.682 297.053 132.206 296.147C137.388 295.661 142.703 295.623 147.768 296.961C150.145 297.464 152.467 298.303 154.903 298.471C156.613 298.617 157.871 297.33 159.028 296.277C159.615 295.623 160.575 296.001 161.338 295.896C159.64 303.596 158.064 311.321 156.362 319.016C155.666 318.97 154.974 318.924 154.282 318.886C154.14 314.738 153.511 310.461 151.482 306.783C149.612 303.398 146.082 301.113 142.305 300.471C136.147 299.205 129.762 301.234 124.606 304.598C118.536 308.444 114.201 314.453 111.023 320.79C106.982 328.742 104.949 337.708 105.276 346.628C105.456 350.881 106.349 355.246 108.696 358.861C111.187 362.577 115.102 365.517 119.605 366.159C122.665 366.704 125.725 365.831 128.597 364.838C130.211 359.033 131.858 353.238 133.489 347.437C134.13 345.081 134.914 342.74 135.22 340.308C135.468 338.521 134.227 336.798 132.638 336.097C131.192 335.473 129.59 335.418 128.048 335.25C128.14 334.726 128.232 334.21 128.328 333.694C138.616 333.611 148.9 333.518 159.183 333.715C158.982 334.189 158.797 334.676 158.55 335.133C156.99 335.67 155.205 335.695 153.859 336.756C152.551 337.7 151.775 339.188 151.344 340.711C149.088 349.149 146.476 357.49 144.074 365.89C135.728 369.358 126.61 370.952 117.584 370.482C111.065 370.197 104.391 368.31 99.3479 364.024C93.3824 358.933 89.5591 351.459 88.7374 343.676C87.9074 335.959 89.207 327.936 92.8835 321.063C95.9606 315.246 100.593 310.369 105.825 306.431Z" fill="#FFD700"/>
<rect width="213.5" height="213.5" transform="translate(226.5 226.5)" fill="black"/>
<path d="M316.808 297.922C326.39 297.717 335.976 297.889 345.558 297.83C350.613 297.951 355.855 298.186 360.536 300.303C364.852 302.375 368.257 306.485 369.009 311.307C369.441 315.111 369.3 319.129 367.572 322.62C364.611 328.772 358.924 333.43 352.495 335.502C345.538 337.808 338.053 337.532 330.909 336.406C329.015 343.123 327.129 349.845 325.243 356.567C324.732 358.576 324.085 360.606 324.168 362.711C324.193 364.247 325.044 365.846 326.514 366.427C328.467 367.206 330.606 367.21 332.674 367.34C332.52 367.871 332.367 368.403 332.221 368.943C326.826 369.223 321.422 369.001 316.027 369.072C309.896 369.06 303.761 369.089 297.631 369.06C297.809 368.528 297.971 368.001 298.208 367.503C300.621 367.013 303.333 367.365 305.443 365.841C307.869 364.184 308.559 361.145 309.385 358.505C314.029 342.207 318.743 325.93 323.337 309.62C323.835 307.205 324.919 304.397 323.466 302.124C321.858 299.789 318.751 299.818 316.247 299.462C316.434 298.943 316.621 298.433 316.808 297.922ZM340.404 302.593C337.579 312.575 334.817 322.578 331.964 332.551C335.764 332.459 339.826 333.129 343.345 331.287C348.009 328.906 350.543 323.838 352.05 319.029C353.18 314.663 353.795 309.323 350.692 305.619C348.196 302.643 344.005 302.275 340.404 302.593Z" fill="#FFD700"/>
</svg>
