<svg width="2037" height="2037" viewBox="0 0 2037 2037" fill="none" xmlns="http://www.w3.org/2000/svg">
<rect width="1018.01" height="1018.01" fill="black"/>
<path d="M475.078 351.405C495.178 337.444 520.167 332.151 544.338 332.67C566.214 333.449 587.372 339.481 608.349 345.273C617.65 347.43 627.61 350.406 637.051 347.25C644.377 344.834 648.788 338.123 654.536 333.449C658.129 332.231 662.041 332.77 665.773 332.431C656.532 371.118 646.991 409.745 637.61 448.412C634.756 448.612 631.902 448.811 629.067 449.011C626.792 430.856 623.958 412.201 614.896 396.024C606.393 380.045 593.16 366.005 576.114 359.274C561.743 353.442 544.418 353.022 530.905 361.291C516.016 370.319 504.818 386.956 505.597 404.812C505.537 426.462 517.253 446.035 531.484 461.554C553.28 487.598 581.643 507.95 599.826 536.99C613.16 557.962 616.573 583.986 612.601 608.213C607.691 633.558 591.723 656.447 569.488 669.629C547.053 683.17 520.546 688.683 494.519 688.603C468.891 688.423 443.801 682.731 418.612 678.736C407.774 677.218 396.577 675.121 385.778 678.017C375.28 680.554 367.555 690.8 355.879 688.363C365.938 645.222 376.018 602.081 385.938 558.9C389.211 558.661 392.485 558.381 395.778 558.141C398.612 582.648 403.223 607.734 415.997 629.224C426.895 647.719 445.338 661.999 466.495 666.413C482.463 669.848 500.088 668.83 514.319 660.222C529.389 650.934 540.726 634.517 541.364 616.502C542.362 599.345 536.734 582.169 526.714 568.328C504.439 537.05 472.483 513.982 451.765 481.467C439.31 463.212 432.664 440.902 434.62 418.752C435.997 391.33 452.963 366.724 475.078 351.405Z" fill="#FFD700"/>
<rect width="1018.01" height="1018.01" transform="translate(1018.01)" fill="white"/>
<path d="M1435.45 341.114C1450.1 340.555 1464.73 340.754 1479.39 341.014C1498.87 339.896 1518.4 341.673 1537.91 340.714C1570.74 341.613 1604.87 337.839 1636.27 350.06C1657.6 357.967 1674.51 377.636 1678.55 400.6C1683.86 426.958 1674.22 454.794 1656.15 473.864C1638.91 493.354 1613.29 500.722 1589.73 508.729C1601.59 548.467 1612.57 588.464 1624.53 628.141C1628.41 639.423 1631.83 651.264 1638.93 660.969C1646.58 670.135 1659.14 671.213 1670.08 672.451C1670.12 674.967 1670.18 677.503 1670.28 680.059C1635.73 680.618 1601.2 680.578 1566.67 679.979C1551.06 624.726 1535.82 569.354 1519.83 514.241C1514.6 514.3 1509.39 514.32 1504.2 514.32C1496.73 540.379 1489.45 566.498 1482.04 592.577C1477.34 610.429 1470.86 627.921 1468.87 646.392C1467.72 654.12 1470.59 662.686 1477.49 666.62C1486.7 671.672 1497.51 671.453 1507.65 672.431C1506.09 674.927 1505.82 678.761 1503.09 680.219C1450.3 680.239 1397.43 680.898 1344.66 679.979C1345.54 677.563 1346.43 675.167 1347.35 672.771C1360.54 671.473 1375.73 670.614 1385.22 659.771C1393.47 649.527 1397.55 636.568 1401.41 624.107C1421.99 551.282 1442.45 478.417 1463.04 405.592C1466.45 391.814 1471.33 377.057 1467.41 362.899C1461.59 349.66 1444.95 351.038 1433.19 348.722C1433.93 346.186 1434.67 343.65 1435.45 341.114ZM1546.87 363.099C1533.97 408.088 1521.31 453.137 1508.1 498.046C1523.92 498.965 1540.33 498.665 1555.08 492.036C1580.07 481.392 1597.82 456.232 1601.53 428.975C1604.24 411.103 1604.46 389.997 1591.5 375.959C1580.25 363.638 1562.45 361.522 1546.87 363.099Z" fill="#FFD700"/>
<rect width="1018.01" height="1018.01" transform="translate(0 1018.01)" fill="white"/>
<path d="M442.608 1399.14C479.048 1371.74 522.984 1354.43 568.4 1350.11C593.106 1347.79 618.453 1347.61 642.6 1353.99C653.934 1356.38 665.008 1360.38 676.621 1361.18C684.777 1361.88 690.774 1355.75 696.291 1350.73C699.089 1347.61 703.667 1349.41 707.305 1348.91C699.209 1385.62 691.693 1422.45 683.578 1459.15C680.259 1458.93 676.961 1458.71 673.663 1458.53C672.983 1438.75 669.985 1418.36 660.31 1400.82C651.395 1384.68 634.564 1373.78 616.554 1370.72C587.19 1364.68 556.746 1374.36 532.159 1390.4C503.215 1408.74 482.546 1437.39 467.394 1467.61C448.125 1505.52 438.43 1548.28 439.989 1590.81C440.849 1611.09 445.106 1631.9 456.3 1649.14C468.174 1666.86 486.844 1680.87 508.312 1683.93C522.904 1686.53 537.496 1682.37 551.189 1677.63C558.885 1649.96 566.741 1622.32 574.517 1594.67C577.575 1583.43 581.313 1572.27 582.772 1560.67C583.951 1552.15 578.035 1543.94 570.459 1540.6C563.562 1537.62 555.927 1537.36 548.57 1536.56C549.01 1534.06 549.45 1531.6 549.91 1529.14C598.963 1528.74 647.997 1528.3 697.03 1529.24C696.071 1531.5 695.191 1533.82 694.012 1536C686.576 1538.56 678.061 1538.68 671.644 1543.74C665.407 1548.24 661.709 1555.33 659.651 1562.59C648.896 1602.83 636.443 1642.6 624.989 1682.65C585.191 1699.19 541.714 1706.79 498.677 1704.55C467.594 1703.19 435.771 1694.19 411.724 1673.76C383.28 1649.48 365.049 1613.84 361.132 1576.73C357.174 1539.94 363.37 1501.68 380.901 1468.91C395.573 1441.17 417.661 1417.92 442.608 1399.14Z" fill="#FFD700"/>
<rect width="1018.01" height="1018.01" transform="translate(1018.01 1018.01)" fill="black"/>
<path d="M1448.62 1358.57C1494.31 1357.59 1540.02 1358.41 1585.71 1358.13C1609.81 1358.71 1634.8 1359.82 1657.12 1369.92C1677.7 1379.8 1693.94 1399.4 1697.52 1422.39C1699.58 1440.53 1698.91 1459.69 1690.67 1476.33C1676.55 1505.67 1649.44 1527.88 1618.78 1537.76C1585.61 1548.75 1549.92 1547.43 1515.85 1542.07C1506.82 1574.1 1497.83 1606.15 1488.84 1638.2C1486.4 1647.78 1483.31 1657.45 1483.71 1667.49C1483.83 1674.82 1487.89 1682.44 1494.9 1685.21C1504.21 1688.93 1514.41 1688.95 1524.27 1689.56C1523.54 1692.1 1522.81 1694.63 1522.11 1697.21C1496.39 1698.55 1470.62 1697.49 1444.89 1697.83C1415.66 1697.77 1386.41 1697.91 1357.18 1697.77C1358.03 1695.23 1358.8 1692.72 1359.93 1690.34C1371.44 1688.01 1384.37 1689.68 1394.43 1682.42C1406 1674.52 1409.28 1660.03 1413.23 1647.44C1435.37 1569.73 1457.85 1492.12 1479.75 1414.35C1482.13 1402.83 1487.3 1389.44 1480.36 1378.6C1472.7 1367.47 1457.89 1367.61 1445.94 1365.91C1446.83 1363.44 1447.73 1361 1448.62 1358.57ZM1561.13 1380.84C1547.66 1428.43 1534.49 1476.13 1520.88 1523.69C1539.01 1523.25 1558.38 1526.44 1575.15 1517.66C1597.39 1506.3 1609.47 1482.14 1616.66 1459.21C1622.05 1438.39 1624.98 1412.93 1610.19 1395.27C1598.28 1381.08 1578.3 1379.32 1561.13 1380.84Z" fill="#FFD700"/>
</svg>
